TwilioSansMono-Bold.ufo
<glyph name="exclam" format="2">
	<unicode hex="0021"/>
	<advance width="600"/>
	<outline>
		<contour>
			<point x="246" y="231" type="line"/>
			<point x="352" y="231" type="line"/>
			<point x="380" y="559" type="line"/>
			<point x="380" y="684" type="line"/>
			<point x="219" y="684" type="line"/>
			<point x="219" y="559" type="line"/>
		</contour>
		<contour>
			<point x="301" y="-12" type="curve" smooth="yes"/>
			<point x="363" y="-12"/>
			<point x="394" y="11"/>
			<point x="394" y="73" type="curve" smooth="yes"/>
			<point x="394" y="133"/>
			<point x="363" y="157"/>
			<point x="301" y="157" type="curve" smooth="yes"/>
			<point x="237" y="157"/>
			<point x="206" y="133"/>
			<point x="206" y="73" type="curve" smooth="yes"/>
			<point x="206" y="11"/>
			<point x="237" y="-12"/>
		</contour>
	</outline>
</glyph>
<glyph name="numbersign" format="2">
	<unicode hex="0023"/>
	<advance width="600"/>
	<outline>
		<contour>
			<point x="23" y="266" type="line"/>
			<point x="23" y="157" type="line"/>
			<point x="115" y="157" type="line"/>
			<point x="100" y="0" type="line"/>
			<point x="212" y="0" type="line"/>
			<point x="227" y="157" type="line"/>
			<point x="339" y="157" type="line"/>
			<point x="324" y="0" type="line"/>
			<point x="435" y="0" type="line"/>
			<point x="450" y="157" type="line"/>
			<point x="554" y="157" type="line"/>
			<point x="554" y="266" type="line"/>
			<point x="461" y="266" type="line"/>
			<point x="476" y="425" type="line"/>
			<point x="577" y="425" type="line"/>
			<point x="577" y="535" type="line"/>
			<point x="487" y="535" type="line"/>
			<point x="501" y="684" type="line"/>
			<point x="389" y="684" type="line"/>
			<point x="375" y="535" type="line"/>
			<point x="262" y="535" type="line"/>
			<point x="276" y="684" type="line"/>
			<point x="165" y="684" type="line"/>
			<point x="151" y="535" type="line"/>
			<point x="47" y="535" type="line"/>
			<point x="47" y="425" type="line"/>
			<point x="140" y="425" type="line"/>
			<point x="125" y="266" type="line"/>
		</contour>
		<contour>
			<point x="237" y="266" type="line"/>
			<point x="252" y="425" type="line"/>
			<point x="364" y="425" type="line"/>
			<point x="349" y="266" type="line"/>
		</contour>
	</outline>
</glyph>
<glyph name="dollar" format="2">
	<unicode hex="0024"/>
	<advance width="600"/>
	<outline>
		<contour>
			<point x="177" y="-93" type="line"/>
			<point x="280" y="-93" type="line"/>
			<point x="293" y="-11" type="line"/>
			<point x="308" y="-11" type="line" smooth="yes"/>
			<point x="459" y="-11"/>
			<point x="558" y="65"/>
			<point x="558" y="217" type="curve" smooth="yes"/>
			<point x="558" y="342"/>
			<point x="468" y="381"/>
			<point x="356" y="404" type="curve"/>
			<point x="384" y="570" type="line"/>
			<point x="439" y="560"/>
			<point x="495" y="539"/>
			<point x="539" y="509" type="curve"/>
			<point x="539" y="636" type="line"/>
			<point x="509" y="655"/>
			<point x="464" y="673"/>
			<point x="411" y="684" type="curve"/>
			<point x="426" y="774" type="line"/>
			<point x="322" y="774" type="line"/>
			<point x="309" y="695" type="line"/>
			<point x="302" y="695" type="line" smooth="yes"/>
			<point x="147" y="695"/>
			<point x="44" y="620"/>
			<point x="44" y="477" type="curve" smooth="yes"/>
			<point x="44" y="344"/>
			<point x="128" y="306"/>
			<point x="247" y="283" type="curve"/>
			<point x="219" y="119" type="line"/>
			<point x="163" y="132"/>
			<point x="106" y="157"/>
			<point x="54" y="194" type="curve"/>
			<point x="54" y="61" type="line"/>
			<point x="93" y="35"/>
			<point x="138" y="14"/>
			<point x="191" y="2" type="curve"/>
		</contour>
		<contour>
			<point x="187" y="494" type="curve" smooth="yes"/>
			<point x="187" y="554"/>
			<point x="234" y="579"/>
			<point x="297" y="579" type="curve"/>
			<point x="270" y="420" type="line"/>
			<point x="218" y="431"/>
			<point x="187" y="448"/>
		</contour>
		<contour>
			<point x="414" y="193" type="curve" smooth="yes"/>
			<point x="414" y="135"/>
			<point x="373" y="108"/>
			<point x="309" y="108" type="curve" smooth="yes"/>
			<point x="306" y="108" type="line"/>
			<point x="333" y="267" type="line"/>
			<point x="384" y="256"/>
			<point x="414" y="237"/>
		</contour>
	</outline>
</glyph>
<glyph name="percent" format="2">
	<unicode hex="0025"/>
	<advance width="600"/>
	<outline>
		<contour>
			<point x="167" y="338" type="curve" smooth="yes"/>
			<point x="258" y="338"/>
			<point x="315" y="398"/>
			<point x="315" y="517" type="curve" smooth="yes"/>
			<point x="315" y="636"/>
			<point x="258" y="696"/>
			<point x="167" y="696" type="curve" smooth="yes"/>
			<point x="75" y="696"/>
			<point x="19" y="636"/>
			<point x="19" y="517" type="curve" smooth="yes"/>
			<point x="19" y="398"/>
			<point x="76" y="338"/>
		</contour>
		<contour>
			<point x="375" y="412" type="line"/>
			<point x="481" y="412" type="line"/>
			<point x="580" y="684" type="line"/>
			<point x="450" y="684" type="line"/>
		</contour>
		<contour>
			<point x="167" y="409" type="curve" smooth="yes"/>
			<point x="133" y="409"/>
			<point x="115" y="437"/>
			<point x="115" y="517" type="curve" smooth="yes"/>
			<point x="115" y="597"/>
			<point x="132" y="626"/>
			<point x="167" y="626" type="curve" smooth="yes"/>
			<point x="201" y="626"/>
			<point x="219" y="597"/>
			<point x="219" y="517" type="curve" smooth="yes"/>
			<point x="219" y="437"/>
			<point x="201" y="409"/>
		</contour>
		<contour>
			<point x="433" y="-12" type="curve" smooth="yes"/>
			<point x="527" y="-12"/>
			<point x="581" y="46"/>
			<point x="581" y="167" type="curve" smooth="yes"/>
			<point x="581" y="286"/>
			<point x="524" y="346"/>
			<point x="434" y="346" type="curve" smooth="yes"/>
			<point x="342" y="346"/>
			<point x="285" y="286"/>
			<point x="285" y="167" type="curve" smooth="yes"/>
			<point x="285" y="47"/>
			<point x="338" y="-12"/>
		</contour>
		<contour>
			<point x="434" y="59" type="curve" smooth="yes"/>
			<point x="399" y="59"/>
			<point x="381" y="84"/>
			<point x="381" y="167" type="curve" smooth="yes"/>
			<point x="381" y="249"/>
			<point x="399" y="276"/>
			<point x="434" y="276" type="curve" smooth="yes"/>
			<point x="467" y="276"/>
			<point x="485" y="247"/>
			<point x="485" y="167" type="curve" smooth="yes"/>
			<point x="485" y="85"/>
			<point x="468" y="59"/>
		</contour>
		<contour>
			<point x="20" y="0" type="line"/>
			<point x="150" y="0" type="line"/>
			<point x="226" y="273" type="line"/>
			<point x="119" y="273" type="line"/>
		</contour>
	</outline>
</glyph>
<glyph name="ampersand" format="2">
	<unicode hex="0026"/>
	<advance width="600"/>
	<outline>
		<contour>
			<point x="221" y="-14" type="curve" smooth="yes"/>
			<point x="293" y="-14"/>
			<point x="353" y="8"/>
			<point x="402" y="47" type="curve"/>
			<point x="440" y="0" type="line"/>
			<point x="612" y="0" type="line"/>
			<point x="491" y="150" type="line"/>
			<point x="533" y="221"/>
			<point x="560" y="309"/>
			<point x="574" y="404" type="curve"/>
			<point x="445" y="404" type="line"/>
			<point x="437" y="349"/>
			<point x="425" y="297"/>
			<point x="408" y="253" type="curve"/>
			<point x="294" y="394" type="line" smooth="yes"/>
			<point x="261" y="435"/>
			<point x="239" y="463"/>
			<point x="239" y="502" type="curve" smooth="yes"/>
			<point x="239" y="551"/>
			<point x="270" y="579"/>
			<point x="327" y="580" type="curve" smooth="yes"/>
			<point x="386" y="580"/>
			<point x="434" y="560"/>
			<point x="487" y="530" type="curve"/>
			<point x="487" y="656" type="line"/>
			<point x="439" y="682"/>
			<point x="384" y="698"/>
			<point x="316" y="698" type="curve" smooth="yes"/>
			<point x="173" y="698"/>
			<point x="101" y="609"/>
			<point x="101" y="504" type="curve" smooth="yes"/>
			<point x="101" y="463"/>
			<point x="111" y="430"/>
			<point x="127" y="400" type="curve"/>
			<point x="55" y="355"/>
			<point x="8" y="283"/>
			<point x="8" y="186" type="curve" smooth="yes"/>
			<point x="8" y="64"/>
			<point x="88" y="-14"/>
		</contour>
		<contour>
			<point x="142" y="206" type="curve" smooth="yes"/>
			<point x="142" y="253"/>
			<point x="162" y="287"/>
			<point x="193" y="309" type="curve"/>
			<point x="333" y="134" type="line"/>
			<point x="308" y="113"/>
			<point x="278" y="101"/>
			<point x="245" y="101" type="curve" smooth="yes"/>
			<point x="179" y="101"/>
			<point x="142" y="143"/>
		</contour>
	</outline>
</glyph>
<glyph name="asterisk" format="2">
	<unicode hex="002A"/>
	<advance width="600"/>
	<outline>
		<contour>
			<point x="479" y="139" type="line"/>
			<point x="547" y="257" type="line"/>
			<point x="363" y="321" type="line"/>
			<point x="548" y="385" type="line"/>
			<point x="481" y="503" type="line"/>
			<point x="332" y="375" type="line"/>
			<point x="369" y="567" type="line"/>
			<point x="233" y="567" type="line"/>
			<point x="270" y="374" type="line"/>
			<point x="120" y="503" type="line"/>
			<point x="52" y="386" type="line"/>
			<point x="238" y="321" type="line"/>
			<point x="54" y="257" type="line"/>
			<point x="121" y="140" type="line"/>
			<point x="270" y="268" type="line"/>
			<point x="233" y="75" type="line"/>
			<point x="369" y="75" type="line"/>
			<point x="332" y="266" type="line"/>
		</contour>
	</outline>
</glyph>
<glyph name="plus" format="2">
	<unicode hex="002B"/>
	<advance width="600"/>
	<outline>
		<contour>
			<point x="236" y="530" type="line"/>
			<point x="236" y="357" type="line"/>
			<point x="65" y="357" type="line"/>
			<point x="65" y="234" type="line"/>
			<point x="236" y="234" type="line"/>
			<point x="236" y="60" type="line"/>
			<point x="364" y="60" type="line"/>
			<point x="364" y="234" type="line"/>
			<point x="535" y="234" type="line"/>
			<point x="535" y="357" type="line"/>
			<point x="364" y="357" type="line"/>
			<point x="364" y="530" type="line"/>
		</contour>
	</outline>
</glyph>
<glyph name="hyphen" format="2">
	<unicode hex="002D"/>
	<advance width="600"/>
	<outline>
		<contour>
			<point x="480" y="360" type="line"/>
			<point x="120" y="360" type="line"/>
			<point x="120" y="229" type="line"/>
			<point x="480" y="229" type="line"/>
		</contour>
	</outline>
</glyph>
<glyph name="one" format="2">
	<unicode hex="0031"/>
	<advance width="600"/>
	<outline>
		<contour>
			<point x="52" y="0" type="line"/>
			<point x="570" y="0" type="line"/>
			<point x="570" y="130" type="line"/>
			<point x="399" y="130" type="line"/>
			<point x="399" y="684" type="line"/>
			<point x="249" y="684" type="line"/>
			<point x="58" y="534" type="line"/>
			<point x="58" y="387" type="line"/>
			<point x="250" y="535" type="line"/>
			<point x="250" y="130" type="line"/>
			<point x="52" y="130" type="line"/>
		</contour>
	</outline>
</glyph>
<glyph name="three" format="2">
	<unicode hex="0033"/>
	<advance width="600"/>
	<outline>
		<contour>
			<point x="280" y="-14" type="curve" smooth="yes"/>
			<point x="444" y="-14"/>
			<point x="539" y="82"/>
			<point x="539" y="223" type="curve" smooth="yes"/>
			<point x="539" y="339"/>
			<point x="480" y="408"/>
			<point x="355" y="417" type="curve"/>
			<point x="527" y="562" type="line"/>
			<point x="527" y="684" type="line"/>
			<point x="61" y="684" type="line"/>
			<point x="61" y="563" type="line"/>
			<point x="346" y="563" type="line"/>
			<point x="147" y="384" type="line"/>
			<point x="147" y="294" type="line"/>
			<point x="176" y="304"/>
			<point x="212" y="311"/>
			<point x="259" y="311" type="curve" smooth="yes"/>
			<point x="344" y="311"/>
			<point x="389" y="284"/>
			<point x="389" y="218" type="curve" smooth="yes"/>
			<point x="389" y="156"/>
			<point x="349" y="108"/>
			<point x="265" y="108" type="curve" smooth="yes"/>
			<point x="202" y="108"/>
			<point x="129" y="130"/>
			<point x="58" y="179" type="curve"/>
			<point x="58" y="48" type="line"/>
			<point x="107" y="17"/>
			<point x="175" y="-14"/>
		</contour>
	</outline>
</glyph>
<glyph name="four" format="2">
	<unicode hex="0034"/>
	<advance width="600"/>
	<outline>
		<contour>
			<point x="344" y="0" type="line"/>
			<point x="491" y="0" type="line"/>
			<point x="491" y="135" type="line"/>
			<point x="557" y="135" type="line"/>
			<point x="557" y="254" type="line"/>
			<point x="491" y="254" type="line"/>
			<point x="491" y="686" type="line"/>
			<point x="268" y="686" type="line"/>
			<point x="28" y="256" type="line"/>
			<point x="28" y="136" type="line"/>
			<point x="344" y="136" type="line"/>
		</contour>
		<contour>
			<point x="164" y="254" type="line"/>
			<point x="344" y="581" type="line"/>
			<point x="344" y="254" type="line"/>
		</contour>
	</outline>
</glyph>
<glyph name="five" format="2">
	<unicode hex="0035"/>
	<advance width="600"/>
	<outline>
		<contour>
			<point x="287" y="-14" type="curve" smooth="yes"/>
			<point x="440" y="-14"/>
			<point x="538" y="80"/>
			<point x="538" y="227" type="curve" smooth="yes"/>
			<point x="538" y="360"/>
			<point x="467" y="427"/>
			<point x="321" y="427" type="curve" smooth="yes"/>
			<point x="283" y="427"/>
			<point x="252" y="424"/>
			<point x="223" y="418" type="curve"/>
			<point x="224" y="563" type="line"/>
			<point x="523" y="563" type="line"/>
			<point x="523" y="684" type="line"/>
			<point x="88" y="684" type="line"/>
			<point x="88" y="288" type="line"/>
			<point x="137" y="304"/>
			<point x="190" y="315"/>
			<point x="255" y="315" type="curve" smooth="yes"/>
			<point x="353" y="315"/>
			<point x="388" y="279"/>
			<point x="388" y="217" type="curve" smooth="yes"/>
			<point x="388" y="153"/>
			<point x="351" y="108"/>
			<point x="271" y="108" type="curve" smooth="yes"/>
			<point x="212" y="108"/>
			<point x="136" y="128"/>
			<point x="62" y="180" type="curve"/>
			<point x="62" y="50" type="line"/>
			<point x="111" y="15"/>
			<point x="181" y="-14"/>
		</contour>
	</outline>
</glyph>
<glyph name="eight" format="2">
	<unicode hex="0038"/>
	<advance width="600"/>
	<outline>
		<contour>
			<point x="300" y="-14" type="curve" smooth="yes"/>
			<point x="460" y="-14"/>
			<point x="562" y="47"/>
			<point x="562" y="182" type="curve" smooth="yes"/>
			<point x="562" y="284"/>
			<point x="500" y="331"/>
			<point x="425" y="350" type="curve"/>
			<point x="497" y="366"/>
			<point x="551" y="425"/>
			<point x="551" y="508" type="curve" smooth="yes"/>
			<point x="551" y="645"/>
			<point x="449" y="698"/>
			<point x="301" y="698" type="curve" smooth="yes"/>
			<point x="151" y="698"/>
			<point x="49" y="641"/>
			<point x="49" y="508" type="curve" smooth="yes"/>
			<point x="49" y="423"/>
			<point x="104" y="365"/>
			<point x="179" y="350" type="curve"/>
			<point x="101" y="332"/>
			<point x="38" y="284"/>
			<point x="38" y="179" type="curve" smooth="yes"/>
			<point x="38" y="45"/>
			<point x="139" y="-14"/>
		</contour>
		<contour>
			<point x="301" y="400" type="curve" smooth="yes"/>
			<point x="239" y="400"/>
			<point x="194" y="425"/>
			<point x="194" y="493" type="curve" smooth="yes"/>
			<point x="194" y="562"/>
			<point x="239" y="586"/>
			<point x="300" y="586" type="curve" smooth="yes"/>
			<point x="362" y="586"/>
			<point x="407" y="562"/>
			<point x="407" y="493" type="curve" smooth="yes"/>
			<point x="407" y="425"/>
			<point x="362" y="400"/>
		</contour>
		<contour>
			<point x="300" y="100" type="curve" smooth="yes"/>
			<point x="233" y="100"/>
			<point x="187" y="128"/>
			<point x="187" y="202" type="curve" smooth="yes"/>
			<point x="187" y="272"/>
			<point x="234" y="297"/>
			<point x="300" y="297" type="curve" smooth="yes"/>
			<point x="367" y="297"/>
			<point x="413" y="272"/>
			<point x="413" y="202" type="curve" smooth="yes"/>
			<point x="413" y="128"/>
			<point x="366" y="100"/>
		</contour>
	</outline>
</glyph>
<glyph name="nine" format="2">
	<unicode hex="0039"/>
	<advance width="600"/>
	<outline>
		<contour>
			<point x="256" y="-14" type="curve" smooth="yes"/>
			<point x="491" y="-14"/>
			<point x="560" y="156"/>
			<point x="560" y="367" type="curve" smooth="yes"/>
			<point x="560" y="378" type="line" smooth="yes"/>
			<point x="560" y="576"/>
			<point x="500" y="698"/>
			<point x="300" y="698" type="curve" smooth="yes"/>
			<point x="132" y="698"/>
			<point x="43" y="589"/>
			<point x="43" y="444" type="curve" smooth="yes"/>
			<point x="43" y="317"/>
			<point x="102" y="229"/>
			<point x="233" y="229" type="curve" smooth="yes"/>
			<point x="306" y="229"/>
			<point x="365" y="263"/>
			<point x="402" y="339" type="curve"/>
			<point x="398" y="180"/>
			<point x="364" y="108"/>
			<point x="236" y="108" type="curve" smooth="yes"/>
			<point x="175" y="108"/>
			<point x="99" y="137"/>
			<point x="59" y="169" type="curve"/>
			<point x="59" y="38" type="line"/>
			<point x="101" y="10"/>
			<point x="181" y="-14"/>
		</contour>
		<contour>
			<point x="296" y="336" type="curve" smooth="yes"/>
			<point x="228" y="336"/>
			<point x="194" y="374"/>
			<point x="194" y="454" type="curve" smooth="yes"/>
			<point x="194" y="541"/>
			<point x="234" y="581"/>
			<point x="301" y="581" type="curve" smooth="yes"/>
			<point x="369" y="581"/>
			<point x="406" y="535"/>
			<point x="406" y="454" type="curve" smooth="yes"/>
			<point x="405" y="381"/>
			<point x="367" y="336"/>
		</contour>
	</outline>
</glyph>
<glyph name="less" format="2">
	<unicode hex="003C"/>
	<advance width="600"/>
	<outline>
		<contour>
			<point x="535" y="16" type="line"/>
			<point x="535" y="157" type="line"/>
			<point x="184" y="296" type="line"/>
			<point x="535" y="434" type="line"/>
			<point x="535" y="575" type="line"/>
			<point x="65" y="375" type="line"/>
			<point x="65" y="214" type="line"/>
		</contour>
	</outline>
</glyph>
<glyph name="greater" format="2">
	<unicode hex="003E"/>
	<advance width="600"/>
	<outline>
		<contour>
			<point x="65" y="16" type="line"/>
			<point x="535" y="214" type="line"/>
			<point x="535" y="375" type="line"/>
			<point x="65" y="575" type="line"/>
			<point x="65" y="434" type="line"/>
			<point x="416" y="296" type="line"/>
			<point x="65" y="157" type="line"/>
		</contour>
	</outline>
</glyph>
<glyph name="A" format="2">
	<unicode hex="0041"/>
	<advance width="600"/>
	<outline>
		<contour>
			<point x="10" y="0" type="line"/>
			<point x="163" y="0" type="line"/>
			<point x="196" y="140" type="line"/>
			<point x="403" y="140" type="line"/>
			<point x="436" y="0" type="line"/>
			<point x="590" y="0" type="line"/>
			<point x="406" y="686" type="line"/>
			<point x="194" y="686" type="line"/>
		</contour>
		<contour>
			<point x="224" y="262" type="line"/>
			<point x="299" y="579" type="line"/>
			<point x="374" y="262" type="line"/>
		</contour>
	</outline>
	<anchor name="ogonek" x="589" y="0"/>
	<anchor name="bottom" x="340" y="0"/>
	<anchor name="top" x="300" y="684"/>
</glyph>
<glyph name="D" format="2">
	<unicode hex="0044"/>
	<advance width="600"/>
	<outline>
		<contour>
			<point x="55" y="0" type="line"/>
			<point x="299" y="0" type="line" smooth="yes"/>
			<point x="473" y="0"/>
			<point x="569" y="105"/>
			<point x="569" y="335" type="curve" smooth="yes"/>
			<point x="569" y="349" type="line" smooth="yes"/>
			<point x="569" y="580"/>
			<point x="468" y="684"/>
			<point x="294" y="684" type="curve" smooth="yes"/>
			<point x="55" y="684" type="line"/>
		</contour>
		<contour>
			<point x="273" y="563" type="line" smooth="yes"/>
			<point x="370" y="563"/>
			<point x="414" y="501"/>
			<point x="414" y="349" type="curve" smooth="yes"/>
			<point x="414" y="336" type="line" smooth="yes"/>
			<point x="414" y="184"/>
			<point x="376" y="122"/>
			<point x="277" y="122" type="curve" smooth="yes"/>
			<point x="204" y="122" type="line"/>
			<point x="204" y="563" type="line"/>
		</contour>
	</outline>
	<anchor name="center" x="159" y="342"/>
	<anchor name="bottom" x="312" y="0"/>
	<anchor name="top" x="278" y="684"/>
</glyph>
<glyph name="H" format="2">
	<unicode hex="0048"/>
	<advance width="600"/>
	<outline>
		<contour>
			<point x="57" y="0" type="line"/>
			<point x="206" y="0" type="line"/>
			<point x="206" y="286" type="line"/>
			<point x="394" y="286" type="line"/>
			<point x="394" y="0" type="line"/>
			<point x="543" y="0" type="line"/>
			<point x="543" y="684" type="line"/>
			<point x="394" y="684" type="line"/>
			<point x="394" y="409" type="line"/>
			<point x="206" y="409" type="line"/>
			<point x="206" y="684" type="line"/>
			<point x="57" y="684" type="line"/>
		</contour>
	</outline>
	<anchor name="center" x="300" y="535"/>
	<anchor name="bottom" x="295" y="0"/>
	<anchor name="top" x="300" y="684"/>
</glyph>
<glyph name="I" format="2">
	<unicode hex="0049"/>
	<advance width="600"/>
	<outline>
		<contour>
			<point x="70" y="0" type="line"/>
			<point x="530" y="0" type="line"/>
			<point x="530" y="117" type="line"/>
			<point x="375" y="117" type="line"/>
			<point x="375" y="568" type="line"/>
			<point x="530" y="568" type="line"/>
			<point x="530" y="684" type="line"/>
			<point x="70" y="684" type="line"/>
			<point x="70" y="568" type="line"/>
			<point x="225" y="568" type="line"/>
			<point x="225" y="117" type="line"/>
			<point x="70" y="117" type="line"/>
		</contour>
	</outline>
	<anchor name="ogonek" x="530" y="0"/>
	<anchor name="bottom" x="301" y="0"/>
	<anchor name="top" x="300" y="684"/>
</glyph>
<glyph name="J" format="2">
	<unicode hex="004A"/>
	<advance width="600"/>
	<outline>
		<contour>
			<point x="252" y="-12" type="curve" smooth="yes"/>
			<point x="407" y="-12"/>
			<point x="519" y="52"/>
			<point x="519" y="229" type="curve" smooth="yes"/>
			<point x="519" y="684" type="line"/>
			<point x="75" y="684" type="line"/>
			<point x="75" y="556" type="line"/>
			<point x="369" y="556" type="line"/>
			<point x="369" y="250" type="line" smooth="yes"/>
			<point x="369" y="153"/>
			<point x="320" y="112"/>
			<point x="224" y="112" type="curve" smooth="yes"/>
			<point x="174" y="112"/>
			<point x="118" y="124"/>
			<point x="75" y="142" type="curve"/>
			<point x="74" y="19" type="line"/>
			<point x="122" y="-1"/>
			<point x="176" y="-12"/>
		</contour>
	</outline>
	<anchor name="top" x="305" y="684"/>
	<anchor name="bottom" x="82" y="0"/>
</glyph>
<glyph name="M" format="2">
	<unicode hex="004D"/>
	<advance width="600"/>
	<outline>
		<contour>
			<point x="38" y="0" type="line"/>
			<point x="167" y="0" type="line"/>
			<point x="167" y="213" type="line" smooth="yes"/>
			<point x="167" y="322"/>
			<point x="161" y="428"/>
			<point x="149" y="525" type="curve"/>
			<point x="158" y="525" type="line"/>
			<point x="240" y="159" type="line"/>
			<point x="360" y="159" type="line"/>
			<point x="440" y="525" type="line"/>
			<point x="452" y="525" type="line"/>
			<point x="437" y="425"/>
			<point x="433" y="324"/>
			<point x="433" y="214" type="curve" smooth="yes"/>
			<point x="433" y="0" type="line"/>
			<point x="562" y="0" type="line"/>
			<point x="562" y="684" type="line"/>
			<point x="373" y="684" type="line"/>
			<point x="303" y="316" type="line"/>
			<point x="297" y="316" type="line"/>
			<point x="226" y="684" type="line"/>
			<point x="38" y="684" type="line"/>
		</contour>
	</outline>
</glyph>
<glyph name="O" format="2">
	<unicode hex="004F"/>
	<advance width="600"/>
	<outline>
		<contour>
			<point x="300" y="-14" type="curve" smooth="yes"/>
			<point x="465" y="-14"/>
			<point x="557" y="103"/>
			<point x="557" y="335" type="curve" smooth="yes"/>
			<point x="557" y="349" type="line" smooth="yes"/>
			<point x="557" y="581"/>
			<point x="465" y="698"/>
			<point x="300" y="698" type="curve" smooth="yes"/>
			<point x="135" y="698"/>
			<point x="43" y="581"/>
			<point x="43" y="349" type="curve" smooth="yes"/>
			<point x="43" y="335" type="line" smooth="yes"/>
			<point x="43" y="103"/>
			<point x="135" y="-14"/>
		</contour>
		<contour>
			<point x="300" y="107" type="curve" smooth="yes"/>
			<point x="233" y="107"/>
			<point x="194" y="165"/>
			<point x="194" y="338" type="curve" smooth="yes"/>
			<point x="194" y="345" type="line" smooth="yes"/>
			<point x="194" y="520"/>
			<point x="233" y="577"/>
			<point x="300" y="577" type="curve" smooth="yes"/>
			<point x="367" y="577"/>
			<point x="406" y="520"/>
			<point x="406" y="345" type="curve" smooth="yes"/>
			<point x="406" y="338" type="line" smooth="yes"/>
			<point x="406" y="165"/>
			<point x="367" y="107"/>
		</contour>
	</outline>
	<anchor name="center" x="303" y="346"/>
	<anchor name="bottom" x="301" y="0"/>
	<anchor name="top" x="301" y="684"/>
</glyph>
<glyph name="U" format="2">
	<unicode hex="0055"/>
	<advance width="600"/>
	<outline>
		<contour>
			<point x="294" y="-14" type="curve" smooth="yes"/>
			<point x="461" y="-14"/>
			<point x="545" y="71"/>
			<point x="545" y="237" type="curve" smooth="yes"/>
			<point x="545" y="684" type="line"/>
			<point x="396" y="684" type="line"/>
			<point x="396" y="237" type="line" smooth="yes"/>
			<point x="396" y="157"/>
			<point x="364" y="111"/>
			<point x="300" y="111" type="curve" smooth="yes"/>
			<point x="236" y="111"/>
			<point x="204" y="157"/>
			<point x="204" y="237" type="curve" smooth="yes"/>
			<point x="204" y="684" type="line"/>
			<point x="55" y="684" type="line"/>
			<point x="55" y="237" type="line" smooth="yes"/>
			<point x="55" y="70"/>
			<point x="132" y="-14"/>
		</contour>
	</outline>
	<anchor name="ogonek" x="398" y="0"/>
	<anchor name="bottom" x="283" y="0"/>
	<anchor name="top" x="300" y="684"/>
</glyph>
<glyph name="W" format="2">
	<unicode hex="0057"/>
	<advance width="600"/>
	<outline>
		<contour>
			<point x="73" y="0" type="line"/>
			<point x="251" y="0" type="line"/>
			<point x="294" y="367" type="line"/>
			<point x="303" y="367" type="line"/>
			<point x="348" y="0" type="line"/>
			<point x="527" y="0" type="line"/>
			<point x="578" y="684" type="line"/>
			<point x="449" y="685" type="line"/>
			<point x="424" y="152" type="line"/>
			<point x="414" y="152" type="line"/>
			<point x="367" y="542" type="line"/>
			<point x="233" y="542" type="line"/>
			<point x="186" y="152" type="line"/>
			<point x="176" y="152" type="line"/>
			<point x="151" y="684" type="line"/>
			<point x="22" y="684" type="line"/>
		</contour>
	</outline>
	<anchor name="top" x="300" y="684"/>
</glyph>
<glyph name="Z" format="2">
	<unicode hex="005A"/>
	<advance width="600"/>
	<outline>
		<contour>
			<point x="48" y="0" type="line"/>
			<point x="552" y="0" type="line"/>
			<point x="552" y="122" type="line"/>
			<point x="231" y="122" type="line"/>
			<point x="551" y="554" type="line"/>
			<point x="551" y="684" type="line"/>
			<point x="62" y="684" type="line"/>
			<point x="62" y="563" type="line"/>
			<point x="386" y="563" type="line"/>
			<point x="48" y="118" type="line"/>
		</contour>
	</outline>
	<anchor name="top" x="305" y="684"/>
	<anchor name="bottom" x="300" y="0"/>
</glyph>
<glyph name="underscore" format="2">
	<unicode hex="005F"/>
	<advance width="600"/>
	<outline>
		<contour>
			<point x="30" y="-75" type="line"/>
			<point x="30" y="-183" type="line"/>
			<point x="570" y="-183" type="line"/>
			<point x="570" y="-75" type="line"/>
		</contour>
	</outline>
</glyph>
<glyph name="a" format="2">
	<unicode hex="0061"/>
	<advance width="600"/>
	<outline>
		<contour>
			<point x="215" y="-14" type="curve" smooth="yes"/>
			<point x="291" y="-14"/>
			<point x="347" y="26"/>
			<point x="382" y="93" type="curve"/>
			<point x="382" y="0" type="line"/>
			<point x="523" y="0" type="line"/>
			<point x="523" y="347" type="line" smooth="yes"/>
			<point x="523" y="471"/>
			<point x="443" y="537"/>
			<point x="295" y="537" type="curve" smooth="yes"/>
			<point x="208" y="537"/>
			<point x="129" y="513"/>
			<point x="78" y="485" type="curve"/>
			<point x="78" y="363" type="line"/>
			<point x="136" y="401"/>
			<point x="210" y="421"/>
			<point x="270" y="421" type="curve" smooth="yes"/>
			<point x="338" y="421"/>
			<point x="377" y="391"/>
			<point x="377" y="334" type="curve" smooth="yes"/>
			<point x="377" y="327" type="line"/>
			<point x="275" y="313" type="line" smooth="yes"/>
			<point x="133" y="294"/>
			<point x="63" y="230"/>
			<point x="63" y="132" type="curve" smooth="yes"/>
			<point x="63" y="41"/>
			<point x="127" y="-14"/>
		</contour>
		<contour>
			<point x="278" y="90" type="curve" smooth="yes"/>
			<point x="235" y="90"/>
			<point x="201" y="112"/>
			<point x="201" y="154" type="curve" smooth="yes"/>
			<point x="201" y="198"/>
			<point x="232" y="222"/>
			<point x="303" y="233" type="curve" smooth="yes"/>
			<point x="377" y="243" type="line"/>
			<point x="377" y="182" type="line" smooth="yes"/>
			<point x="377" y="122"/>
			<point x="327" y="90"/>
		</contour>
	</outline>
	<anchor name="ogonek" x="523" y="0"/>
	<anchor name="bottom" x="301" y="0"/>
	<anchor name="top" x="297" y="523"/>
</glyph>
<glyph name="b" format="2">
	<unicode hex="0062"/>
	<advance width="600"/>
	<outline>
		<contour>
			<point x="367" y="-14" type="curve" smooth="yes"/>
			<point x="475" y="-14"/>
			<point x="555" y="83"/>
			<point x="555" y="255" type="curve" smooth="yes"/>
			<point x="555" y="269" type="line" smooth="yes"/>
			<point x="555" y="437"/>
			<point x="488" y="537"/>
			<point x="376" y="537" type="curve" smooth="yes"/>
			<point x="299" y="537"/>
			<point x="244" y="490"/>
			<point x="208" y="421" type="curve"/>
			<point x="208" y="750" type="line"/>
			<point x="61" y="750" type="line"/>
			<point x="61" y="0" type="line"/>
			<point x="202" y="0" type="line"/>
			<point x="202" y="95" type="line"/>
			<point x="240" y="22"/>
			<point x="293" y="-14"/>
		</contour>
		<contour>
			<point x="304" y="101" type="curve" smooth="yes"/>
			<point x="240" y="101"/>
			<point x="201" y="153"/>
			<point x="201" y="258" type="curve" smooth="yes"/>
			<point x="201" y="265" type="line" smooth="yes"/>
			<point x="201" y="371"/>
			<point x="243" y="423"/>
			<point x="305" y="423" type="curve" smooth="yes"/>
			<point x="368" y="423"/>
			<point x="405" y="374"/>
			<point x="405" y="265" type="curve" smooth="yes"/>
			<point x="405" y="258" type="line" smooth="yes"/>
			<point x="405" y="151"/>
			<point x="369" y="101"/>
		</contour>
	</outline>
</glyph>
<glyph name="e" format="2">
	<unicode hex="0065"/>
	<advance width="600"/>
	<outline>
		<contour>
			<point x="339" y="-14" type="curve" smooth="yes"/>
			<point x="411" y="-14"/>
			<point x="476" y="0"/>
			<point x="525" y="26" type="curve"/>
			<point x="525" y="135" type="line"/>
			<point x="480" y="115"/>
			<point x="426" y="103"/>
			<point x="372" y="103" type="curve" smooth="yes"/>
			<point x="271" y="103"/>
			<point x="206" y="145"/>
			<point x="199" y="223" type="curve"/>
			<point x="547" y="223" type="line"/>
			<point x="547" y="282" type="line" smooth="yes"/>
			<point x="547" y="449"/>
			<point x="456" y="537"/>
			<point x="305" y="537" type="curve" smooth="yes"/>
			<point x="160" y="537"/>
			<point x="53" y="434"/>
			<point x="53" y="269" type="curve" smooth="yes"/>
			<point x="53" y="255" type="line" smooth="yes"/>
			<point x="53" y="76"/>
			<point x="162" y="-14"/>
		</contour>
		<contour>
			<point x="305" y="434" type="curve" smooth="yes"/>
			<point x="364" y="434"/>
			<point x="402" y="392"/>
			<point x="407" y="312" type="curve"/>
			<point x="197" y="312" type="line"/>
			<point x="202" y="384"/>
			<point x="241" y="434"/>
		</contour>
	</outline>
	<anchor name="ogonek" x="457" y="0"/>
	<anchor name="top" x="305" y="523"/>
</glyph>
<glyph name="f" format="2">
	<unicode hex="0066"/>
	<advance width="600"/>
	<outline>
		<contour>
			<point x="47" y="0" type="line"/>
			<point x="530" y="0" type="line"/>
			<point x="530" y="115" type="line"/>
			<point x="346" y="115" type="line"/>
			<point x="346" y="408" type="line"/>
			<point x="535" y="408" type="line"/>
			<point x="535" y="523" type="line"/>
			<point x="346" y="523" type="line"/>
			<point x="346" y="581" type="line" smooth="yes"/>
			<point x="346" y="631"/>
			<point x="378" y="650"/>
			<point x="435" y="650" type="curve" smooth="yes"/>
			<point x="469" y="650"/>
			<point x="511" y="644"/>
			<point x="531" y="634" type="curve"/>
			<point x="531" y="738" type="line"/>
			<point x="507" y="750"/>
			<point x="462" y="760"/>
			<point x="400" y="760" type="curve" smooth="yes"/>
			<point x="284" y="760"/>
			<point x="199" y="717"/>
			<point x="199" y="594" type="curve" smooth="yes"/>
			<point x="199" y="523" type="line"/>
			<point x="49" y="523" type="line"/>
			<point x="49" y="408" type="line"/>
			<point x="199" y="408" type="line"/>
			<point x="199" y="115" type="line"/>
			<point x="47" y="115" type="line"/>
		</contour>
	</outline>
</glyph>
<glyph name="g" format="2">
	<unicode hex="0067"/>
	<advance width="600"/>
	<outline>
		<contour>
			<point x="245" y="-209" type="curve" smooth="yes"/>
			<point x="265" y="-209" type="line" smooth="yes"/>
			<point x="465" y="-209"/>
			<point x="569" y="-131"/>
			<point x="569" y="-20" type="curve" smooth="yes"/>
			<point x="569" y="72"/>
			<point x="505" y="101"/>
			<point x="389" y="101" type="curve" smooth="yes"/>
			<point x="247" y="101" type="line" smooth="yes"/>
			<point x="204" y="101"/>
			<point x="183" y="108"/>
			<point x="183" y="124" type="curve" smooth="yes"/>
			<point x="183" y="151"/>
			<point x="227" y="165"/>
			<point x="257" y="165" type="curve" smooth="yes"/>
			<point x="280" y="165" type="line" smooth="yes"/>
			<point x="406" y="165"/>
			<point x="506" y="229"/>
			<point x="506" y="346" type="curve" smooth="yes"/>
			<point x="506" y="369"/>
			<point x="500" y="392"/>
			<point x="490" y="408" type="curve"/>
			<point x="579" y="408" type="line"/>
			<point x="579" y="523" type="line"/>
			<point x="281" y="523" type="line" smooth="yes"/>
			<point x="160" y="523"/>
			<point x="54" y="461"/>
			<point x="54" y="337" type="curve" smooth="yes"/>
			<point x="54" y="260"/>
			<point x="96" y="204"/>
			<point x="175" y="179" type="curve"/>
			<point x="88" y="155"/>
			<point x="50" y="117"/>
			<point x="50" y="72" type="curve" smooth="yes"/>
			<point x="50" y="32"/>
			<point x="75" y="1"/>
			<point x="158" y="-6" type="curve"/>
			<point x="60" y="-29"/>
			<point x="17" y="-62"/>
			<point x="17" y="-110" type="curve" smooth="yes"/>
			<point x="17" y="-183"/>
			<point x="115" y="-209"/>
		</contour>
		<contour>
			<point x="280" y="251" type="curve" smooth="yes"/>
			<point x="221" y="251"/>
			<point x="193" y="292"/>
			<point x="193" y="343" type="curve" smooth="yes"/>
			<point x="193" y="395"/>
			<point x="222" y="433"/>
			<point x="281" y="433" type="curve" smooth="yes"/>
			<point x="340" y="433"/>
			<point x="369" y="396"/>
			<point x="369" y="343" type="curve" smooth="yes"/>
			<point x="369" y="293"/>
			<point x="343" y="251"/>
		</contour>
		<contour>
			<point x="292" y="-113" type="curve" smooth="yes"/>
			<point x="266" y="-113" type="line"/>
			<point x="204" y="-113"/>
			<point x="159" y="-103"/>
			<point x="159" y="-68" type="curve" smooth="yes"/>
			<point x="159" y="-38"/>
			<point x="204" y="-13"/>
			<point x="263" y="-13" type="curve" smooth="yes"/>
			<point x="351" y="-13" type="line" smooth="yes"/>
			<point x="398" y="-13"/>
			<point x="427" y="-24"/>
			<point x="427" y="-53" type="curve" smooth="yes"/>
			<point x="427" y="-93"/>
			<point x="375" y="-113"/>
		</contour>
	</outline>
	<anchor name="top" x="288" y="523"/>
	<anchor name="bottom" x="316" y="-152"/>
</glyph>
<glyph name="i" format="2">
	<unicode hex="0069"/>
	<advance width="600"/>
	<outline>
		<contour>
			<point x="320" y="606" type="curve" smooth="yes"/>
			<point x="386" y="606"/>
			<point x="411" y="628"/>
			<point x="411" y="679" type="curve" smooth="yes"/>
			<point x="411" y="729"/>
			<point x="383" y="753"/>
			<point x="320" y="753" type="curve" smooth="yes"/>
			<point x="259" y="753"/>
			<point x="230" y="730"/>
			<point x="230" y="679" type="curve" smooth="yes"/>
			<point x="230" y="628"/>
			<point x="255" y="606"/>
		</contour>
		<contour>
			<point x="73" y="0" type="line"/>
			<point x="557" y="0" type="line"/>
			<point x="557" y="115" type="line"/>
			<point x="395" y="115" type="line"/>
			<point x="395" y="523" type="line"/>
			<point x="74" y="523" type="line"/>
			<point x="74" y="408" type="line"/>
			<point x="248" y="408" type="line"/>
			<point x="248" y="115" type="line"/>
			<point x="73" y="115" type="line"/>
		</contour>
	</outline>
	<anchor name="ogonek" x="553" y="0"/>
</glyph>
<glyph name="k" format="2">
	<unicode hex="006B"/>
	<advance width="600"/>
	<outline>
		<contour>
			<point x="76" y="0" type="line"/>
			<point x="222" y="0" type="line"/>
			<point x="222" y="131" type="line"/>
			<point x="292" y="221" type="line"/>
			<point x="410" y="0" type="line"/>
			<point x="574" y="0" type="line"/>
			<point x="407" y="309" type="line"/>
			<point x="565" y="525" type="line"/>
			<point x="403" y="525" type="line"/>
			<point x="222" y="272" type="line"/>
			<point x="222" y="750" type="line"/>
			<point x="76" y="750" type="line"/>
		</contour>
	</outline>
	<anchor name="top" x="202" y="523"/>
	<anchor name="bottom" x="311" y="0"/>
</glyph>
<glyph name="n" format="2">
	<unicode hex="006E"/>
	<advance width="600"/>
	<outline>
		<contour>
			<point x="69" y="0" type="line"/>
			<point x="216" y="0" type="line"/>
			<point x="216" y="311" type="line" smooth="yes"/>
			<point x="216" y="335"/>
			<point x="222" y="355"/>
			<point x="232" y="372" type="curve" smooth="yes"/>
			<point x="248" y="397"/>
			<point x="272" y="416"/>
			<point x="308" y="416" type="curve" smooth="yes"/>
			<point x="364" y="416"/>
			<point x="389" y="379"/>
			<point x="389" y="314" type="curve" smooth="yes"/>
			<point x="389" y="0" type="line"/>
			<point x="536" y="0" type="line"/>
			<point x="536" y="348" type="line" smooth="yes"/>
			<point x="536" y="475"/>
			<point x="483" y="537"/>
			<point x="384" y="537" type="curve" smooth="yes"/>
			<point x="304" y="537"/>
			<point x="249" y="486"/>
			<point x="210" y="412" type="curve"/>
			<point x="210" y="523" type="line"/>
			<point x="69" y="523" type="line"/>
		</contour>
	</outline>
	<anchor name="top" x="311" y="523"/>
	<anchor name="bottom" x="303" y="0"/>
</glyph>
<glyph name="o" format="2">
	<unicode hex="006F"/>
	<advance width="600"/>
	<outline>
		<contour>
			<point x="300" y="-14" type="curve" smooth="yes"/>
			<point x="452" y="-14"/>
			<point x="554" y="87"/>
			<point x="554" y="255" type="curve" smooth="yes"/>
			<point x="554" y="269" type="line" smooth="yes"/>
			<point x="554" y="434"/>
			<point x="454" y="537"/>
			<point x="300" y="537" type="curve" smooth="yes"/>
			<point x="147" y="537"/>
			<point x="46" y="434"/>
			<point x="46" y="269" type="curve" smooth="yes"/>
			<point x="46" y="255" type="line" smooth="yes"/>
			<point x="46" y="87"/>
			<point x="146" y="-14"/>
		</contour>
		<contour>
			<point x="300" y="101" type="curve" smooth="yes"/>
			<point x="235" y="101"/>
			<point x="196" y="149"/>
			<point x="196" y="258" type="curve" smooth="yes"/>
			<point x="196" y="265" type="line" smooth="yes"/>
			<point x="196" y="375"/>
			<point x="235" y="423"/>
			<point x="300" y="423" type="curve" smooth="yes"/>
			<point x="365" y="423"/>
			<point x="404" y="375"/>
			<point x="404" y="265" type="curve" smooth="yes"/>
			<point x="404" y="258" type="line" smooth="yes"/>
			<point x="404" y="149"/>
			<point x="365" y="101"/>
		</contour>
	</outline>
	<anchor name="center" x="299" y="266"/>
	<anchor name="bottom" x="297" y="-10"/>
	<anchor name="top" x="301" y="523"/>
</glyph>
<glyph name="p" format="2">
	<unicode hex="0070"/>
	<advance width="600"/>
	<outline>
		<contour>
			<point x="61" y="-194" type="line"/>
			<point x="208" y="-194" type="line"/>
			<point x="208" y="93" type="line"/>
			<point x="246" y="21"/>
			<point x="296" y="-14"/>
			<point x="367" y="-14" type="curve" smooth="yes"/>
			<point x="476" y="-14"/>
			<point x="555" y="83"/>
			<point x="555" y="258" type="curve" smooth="yes"/>
			<point x="555" y="268" type="line" smooth="yes"/>
			<point x="555" y="437"/>
			<point x="488" y="537"/>
			<point x="376" y="537" type="curve" smooth="yes"/>
			<point x="296" y="537"/>
			<point x="239" y="488"/>
			<point x="202" y="417" type="curve"/>
			<point x="202" y="523" type="line"/>
			<point x="61" y="523" type="line"/>
		</contour>
		<contour>
			<point x="304" y="101" type="curve" smooth="yes"/>
			<point x="239" y="101"/>
			<point x="201" y="153"/>
			<point x="201" y="259" type="curve" smooth="yes"/>
			<point x="201" y="265" type="line" smooth="yes"/>
			<point x="201" y="371"/>
			<point x="242" y="423"/>
			<point x="305" y="423" type="curve" smooth="yes"/>
			<point x="368" y="423"/>
			<point x="405" y="374"/>
			<point x="405" y="265" type="curve" smooth="yes"/>
			<point x="405" y="259" type="line" smooth="yes"/>
			<point x="405" y="151"/>
			<point x="369" y="101"/>
		</contour>
	</outline>
	<anchor name="top" x="351" y="523"/>
	<anchor name="bottom" x="183" y="-133"/>
</glyph>
<glyph name="q" format="2">
	<unicode hex="0071"/>
	<advance width="600"/>
	<outline>
		<contour>
			<point x="392" y="-194" type="line"/>
			<point x="540" y="-194" type="line"/>
			<point x="540" y="523" type="line"/>
			<point x="399" y="523" type="line"/>
			<point x="399" y="422" type="line"/>
			<point x="364" y="492"/>
			<point x="316" y="537"/>
			<point x="238" y="537" type="curve" smooth="yes"/>
			<point x="131" y="537"/>
			<point x="46" y="440"/>
			<point x="46" y="268" type="curve" smooth="yes"/>
			<point x="46" y="258" type="line" smooth="yes"/>
			<point x="46" y="85"/>
			<point x="111" y="-14"/>
			<point x="227" y="-14" type="curve" smooth="yes"/>
			<point x="303" y="-14"/>
			<point x="357" y="32"/>
			<point x="392" y="101" type="curve"/>
		</contour>
		<contour>
			<point x="295" y="100" type="curve" smooth="yes"/>
			<point x="233" y="100"/>
			<point x="196" y="149"/>
			<point x="196" y="258" type="curve" smooth="yes"/>
			<point x="196" y="264" type="line" smooth="yes"/>
			<point x="196" y="372"/>
			<point x="233" y="422"/>
			<point x="296" y="422" type="curve" smooth="yes"/>
			<point x="361" y="422"/>
			<point x="399" y="370"/>
			<point x="399" y="264" type="curve" smooth="yes"/>
			<point x="399" y="258" type="line" smooth="yes"/>
			<point x="399" y="152"/>
			<point x="358" y="100"/>
		</contour>
	</outline>
</glyph>
<glyph name="r" format="2">
	<unicode hex="0072"/>
	<advance width="600"/>
	<outline>
		<contour>
			<point x="62" y="0" type="line"/>
			<point x="511" y="0" type="line"/>
			<point x="511" y="115" type="line"/>
			<point x="340" y="115" type="line"/>
			<point x="340" y="249" type="line" smooth="yes"/>
			<point x="340" y="327"/>
			<point x="388" y="390"/>
			<point x="472" y="390" type="curve" smooth="yes"/>
			<point x="501" y="390"/>
			<point x="532" y="384"/>
			<point x="549" y="377" type="curve"/>
			<point x="549" y="523" type="line"/>
			<point x="539" y="528"/>
			<point x="519" y="532"/>
			<point x="501" y="532" type="curve" smooth="yes"/>
			<point x="411" y="532"/>
			<point x="369" y="475"/>
			<point x="334" y="372" type="curve"/>
			<point x="334" y="523" type="line"/>
			<point x="66" y="523" type="line"/>
			<point x="66" y="408" type="line"/>
			<point x="192" y="408" type="line"/>
			<point x="192" y="115" type="line"/>
			<point x="62" y="115" type="line"/>
		</contour>
	</outline>
	<anchor name="top" x="338" y="523"/>
	<anchor name="bottom" x="266" y="0"/>
</glyph>
<glyph name="t" format="2">
	<unicode hex="0074"/>
	<advance width="600"/>
	<outline>
		<contour>
			<point x="378" y="-12" type="curve" smooth="yes"/>
			<point x="434" y="-12"/>
			<point x="485" y="1"/>
			<point x="516" y="17" type="curve"/>
			<point x="516" y="122" type="line"/>
			<point x="490" y="110"/>
			<point x="452" y="104"/>
			<point x="424" y="104" type="curve" smooth="yes"/>
			<point x="365" y="104"/>
			<point x="329" y="126"/>
			<point x="329" y="194" type="curve" smooth="yes"/>
			<point x="329" y="408" type="line"/>
			<point x="522" y="408" type="line"/>
			<point x="522" y="523" type="line"/>
			<point x="330" y="523" type="line"/>
			<point x="330" y="692" type="line"/>
			<point x="198" y="692" type="line"/>
			<point x="191" y="587" type="line" smooth="yes"/>
			<point x="187" y="529"/>
			<point x="156" y="518"/>
			<point x="119" y="518" type="curve" smooth="yes"/>
			<point x="46" y="518" type="line"/>
			<point x="46" y="408" type="line"/>
			<point x="182" y="408" type="line"/>
			<point x="182" y="171" type="line" smooth="yes"/>
			<point x="182" y="38"/>
			<point x="251" y="-12"/>
		</contour>
	</outline>
	<anchor name="caron" x="440" y="780"/>
	<anchor name="bottom" x="349" y="0"/>
	<anchor name="center" x="284" y="280"/>
</glyph>
<glyph name="x" format="2">
	<unicode hex="0078"/>
	<advance width="600"/>
	<outline>
		<contour>
			<point x="33" y="0" type="line"/>
			<point x="194" y="0" type="line"/>
			<point x="296" y="176" type="line"/>
			<point x="405" y="0" type="line"/>
			<point x="567" y="0" type="line"/>
			<point x="394" y="276" type="line"/>
			<point x="558" y="523" type="line"/>
			<point x="399" y="523" type="line"/>
			<point x="302" y="369" type="line"/>
			<point x="207" y="523" type="line"/>
			<point x="44" y="523" type="line"/>
			<point x="209" y="271" type="line"/>
		</contour>
	</outline>
	<anchor name="top" x="329" y="523"/>
	<anchor name="bottom" x="333" y="0"/>
</glyph>
<glyph name="y" format="2">
	<unicode hex="0079"/>
	<advance width="600"/>
	<outline>
		<contour>
			<point x="180" y="-204" type="curve" smooth="yes"/>
			<point x="286" y="-204"/>
			<point x="351" y="-153"/>
			<point x="391" y="-23" type="curve" smooth="yes"/>
			<point x="563" y="523" type="line"/>
			<point x="411" y="523" type="line"/>
			<point x="302" y="116" type="line"/>
			<point x="191" y="523" type="line"/>
			<point x="37" y="523" type="line"/>
			<point x="192" y="12" type="line"/>
			<point x="268" y="12" type="line"/>
			<point x="266" y="5" type="line" smooth="yes"/>
			<point x="250" y="-70"/>
			<point x="217" y="-95"/>
			<point x="153" y="-95" type="curve" smooth="yes"/>
			<point x="123" y="-95"/>
			<point x="95" y="-91"/>
			<point x="78" y="-85" type="curve"/>
			<point x="78" y="-190" type="line"/>
			<point x="101" y="-198"/>
			<point x="130" y="-204"/>
		</contour>
	</outline>
	<anchor name="top" x="301" y="523"/>
	<anchor name="bottom" x="257" y="-141"/>
</glyph>
<glyph name="z" format="2">
	<unicode hex="007A"/>
	<advance width="600"/>
	<outline>
		<contour>
			<point x="77" y="0" type="line"/>
			<point x="523" y="0" type="line"/>
			<point x="523" y="115" type="line"/>
			<point x="259" y="115" type="line"/>
			<point x="522" y="409" type="line"/>
			<point x="522" y="523" type="line"/>
			<point x="83" y="523" type="line"/>
			<point x="83" y="408" type="line"/>
			<point x="349" y="408" type="line"/>
			<point x="77" y="114" type="line"/>
		</contour>
	</outline>
	<anchor name="top" x="303" y="523"/>
	<anchor name="bottom" x="302" y="0"/>
</glyph>
<glyph name="exclamdown" format="2">
	<unicode hex="00A1"/>
	<advance width="600"/>
	<outline>
		<contour>
			<point x="299" y="535" type="curve" smooth="yes"/>
			<point x="237" y="535"/>
			<point x="206" y="512"/>
			<point x="206" y="450" type="curve" smooth="yes"/>
			<point x="206" y="390"/>
			<point x="237" y="366"/>
			<point x="299" y="366" type="curve" smooth="yes"/>
			<point x="363" y="366"/>
			<point x="394" y="390"/>
			<point x="394" y="450" type="curve" smooth="yes"/>
			<point x="394" y="512"/>
			<point x="363" y="535"/>
		</contour>
		<contour>
			<point x="354" y="292" type="line"/>
			<point x="248" y="292" type="line"/>
			<point x="220" y="-36" type="line"/>
			<point x="220" y="-161" type="line"/>
			<point x="381" y="-161" type="line"/>
			<point x="381" y="-36" type="line"/>
		</contour>
	</outline>
</glyph>
<glyph name="cent" format="2">
	<unicode hex="00A2"/>
	<advance width="600"/>
	<outline>
		<contour>
			<point x="311" y="-93" type="line"/>
			<point x="412" y="-93" type="line"/>
			<point x="417" y="-9" type="line"/>
			<point x="462" y="-4"/>
			<point x="495" y="9"/>
			<point x="517" y="22" type="curve"/>
			<point x="517" y="133" type="line"/>
			<point x="492" y="121"/>
			<point x="458" y="109"/>
			<point x="418" y="105" type="curve"/>
			<point x="436" y="416" type="line"/>
			<point x="466" y="412"/>
			<point x="495" y="403"/>
			<point x="517" y="390" type="curve"/>
			<point x="517" y="504" type="line"/>
			<point x="499" y="513"/>
			<point x="475" y="522"/>
			<point x="447" y="528" type="curve"/>
			<point x="451" y="616" type="line"/>
			<point x="350" y="616" type="line"/>
			<point x="346" y="534" type="line"/>
			<point x="184" y="525"/>
			<point x="81" y="422"/>
			<point x="81" y="268" type="curve" smooth="yes"/>
			<point x="81" y="255" type="line" smooth="yes"/>
			<point x="81" y="106"/>
			<point x="164" y="8"/>
			<point x="316" y="-9" type="curve"/>
		</contour>
		<contour>
			<point x="231" y="259" type="curve" smooth="yes"/>
			<point x="231" y="266" type="line" smooth="yes"/>
			<point x="231" y="351"/>
			<point x="272" y="400"/>
			<point x="345" y="415" type="curve"/>
			<point x="327" y="113" type="line"/>
			<point x="267" y="132"/>
			<point x="231" y="180"/>
		</contour>
	</outline>
</glyph>
<glyph name="sterling" format="2">
	<unicode hex="00A3"/>
	<advance width="600"/>
	<outline>
		<contour>
			<point x="61" y="117" type="curve"/>
			<point x="61" y="-1" type="line"/>
			<point x="547" y="-1" type="line"/>
			<point x="547" y="122" type="line"/>
			<point x="224" y="122" type="line"/>
			<point x="254" y="145"/>
			<point x="289" y="189"/>
			<point x="283" y="275" type="curve"/>
			<point x="458" y="275" type="line"/>
			<point x="458" y="385" type="line"/>
			<point x="270" y="385" type="line"/>
			<point x="262" y="413"/>
			<point x="250" y="442"/>
			<point x="250" y="472" type="curve" smooth="yes"/>
			<point x="248" y="537"/>
			<point x="283" y="573"/>
			<point x="360" y="573" type="curve" smooth="yes"/>
			<point x="421" y="573"/>
			<point x="489" y="550"/>
			<point x="547" y="515" type="curve"/>
			<point x="547" y="646" type="line"/>
			<point x="496" y="676"/>
			<point x="429" y="698"/>
			<point x="337" y="698" type="curve" smooth="yes"/>
			<point x="194" y="698"/>
			<point x="102" y="620"/>
			<point x="102" y="496" type="curve" smooth="yes"/>
			<point x="102" y="460"/>
			<point x="113" y="418"/>
			<point x="126" y="385" type="curve"/>
			<point x="49" y="385" type="line"/>
			<point x="49" y="275" type="line"/>
			<point x="139" y="275" type="line"/>
			<point x="142" y="196"/>
			<point x="101" y="147"/>
		</contour>
	</outline>
</glyph>
<glyph name="currency" format="2">
	<unicode hex="00A4"/>
	<advance width="600"/>
	<outline>
		<contour>
			<point x="103" y="35" type="line"/>
			<point x="190" y="131" type="line"/>
			<point x="222" y="113"/>
			<point x="259" y="104"/>
			<point x="300" y="104" type="curve" smooth="yes"/>
			<point x="342" y="104"/>
			<point x="381" y="114"/>
			<point x="413" y="133" type="curve"/>
			<point x="502" y="35" type="line"/>
			<point x="580" y="117" type="line"/>
			<point x="488" y="214" type="line"/>
			<point x="506" y="249"/>
			<point x="516" y="291"/>
			<point x="516" y="340" type="curve" smooth="yes"/>
			<point x="516" y="390"/>
			<point x="506" y="434"/>
			<point x="487" y="469" type="curve"/>
			<point x="578" y="567" type="line"/>
			<point x="497" y="644" type="line"/>
			<point x="409" y="549" type="line"/>
			<point x="378" y="567"/>
			<point x="341" y="576"/>
			<point x="300" y="576" type="curve" smooth="yes"/>
			<point x="259" y="576"/>
			<point x="222" y="567"/>
			<point x="190" y="549" type="curve"/>
			<point x="100" y="643" type="line"/>
			<point x="23" y="562" type="line"/>
			<point x="113" y="468" type="line"/>
			<point x="94" y="433"/>
			<point x="84" y="390"/>
			<point x="84" y="340" type="curve" smooth="yes"/>
			<point x="84" y="290"/>
			<point x="94" y="247"/>
			<point x="112" y="212" type="curve"/>
			<point x="20" y="114" type="line"/>
		</contour>
		<contour>
			<point x="300" y="214" type="curve" smooth="yes"/>
			<point x="235" y="214"/>
			<point x="198" y="260"/>
			<point x="198" y="340" type="curve" smooth="yes"/>
			<point x="198" y="420"/>
			<point x="235" y="466"/>
			<point x="300" y="466" type="curve" smooth="yes"/>
			<point x="365" y="466"/>
			<point x="400" y="420"/>
			<point x="400" y="340" type="curve" smooth="yes"/>
			<point x="400" y="260"/>
			<point x="365" y="214"/>
		</contour>
	</outline>
</glyph>
<glyph name="brokenbar" format="2">
	<unicode hex="00A6"/>
	<advance width="600"/>
	<outline>
		<contour>
			<point x="232" y="792" type="line"/>
			<point x="232" y="418" type="line"/>
			<point x="368" y="418" type="line"/>
			<point x="368" y="792" type="line"/>
		</contour>
		<contour>
			<point x="232" y="244" type="line"/>
			<point x="232" y="-163" type="line"/>
			<point x="368" y="-163" type="line"/>
			<point x="368" y="244" type="line"/>
		</contour>
	</outline>
</glyph>
<glyph name="guillemetleft" format="2">
	<unicode hex="00AB"/>
	<advance width="600"/>
	<outline>
		<contour>
			<point x="333" y="77" type="line"/>
			<point x="182" y="288" type="line"/>
			<point x="333" y="497" type="line"/>
			<point x="182" y="497" type="line"/>
			<point x="34" y="287" type="line"/>
			<point x="182" y="77" type="line"/>
		</contour>
		<contour>
			<point x="564" y="77" type="line"/>
			<point x="414" y="288" type="line"/>
			<point x="564" y="497" type="line"/>
			<point x="414" y="497" type="line"/>
			<point x="265" y="287" type="line"/>
			<point x="414" y="77" type="line"/>
		</contour>
	</outline>
</glyph>
<glyph name="logicalnot" format="2">
	<unicode hex="00AC"/>
	<advance width="600"/>
	<outline>
		<contour>
			<point x="535" y="45" type="line"/>
			<point x="534" y="356" type="line"/>
			<point x="65" y="356" type="line"/>
			<point x="65" y="234" type="line"/>
			<point x="400" y="234" type="line"/>
			<point x="401" y="45" type="line"/>
		</contour>
	</outline>
</glyph>
<glyph name="registered" format="2">
	<unicode hex="00AE"/>
	<advance width="600"/>
	<outline>
		<contour>
			<point x="300" y="103" type="curve" smooth="yes"/>
			<point x="446" y="103"/>
			<point x="564" y="197"/>
			<point x="564" y="373" type="curve" smooth="yes"/>
			<point x="564" y="387" type="line" smooth="yes"/>
			<point x="564" y="561"/>
			<point x="445" y="657"/>
			<point x="300" y="657" type="curve" smooth="yes"/>
			<point x="155" y="657"/>
			<point x="36" y="561"/>
			<point x="36" y="387" type="curve" smooth="yes"/>
			<point x="36" y="373" type="line" smooth="yes"/>
			<point x="36" y="197"/>
			<point x="154" y="103"/>
		</contour>
		<contour>
			<point x="300" y="166" type="curve" smooth="yes"/>
			<point x="177" y="166"/>
			<point x="102" y="243"/>
			<point x="102" y="376" type="curve" smooth="yes"/>
			<point x="102" y="383" type="line" smooth="yes"/>
			<point x="102" y="519"/>
			<point x="179" y="593"/>
			<point x="300" y="593" type="curve" smooth="yes"/>
			<point x="421" y="593"/>
			<point x="498" y="518"/>
			<point x="498" y="384" type="curve" smooth="yes"/>
			<point x="498" y="376" type="line" smooth="yes"/>
			<point x="498" y="241"/>
			<point x="423" y="166"/>
		</contour>
		<contour>
			<point x="201" y="250" type="line"/>
			<point x="266" y="250" type="line"/>
			<point x="266" y="340" type="line"/>
			<point x="294" y="340" type="line" smooth="yes"/>
			<point x="313" y="340"/>
			<point x="320" y="333"/>
			<point x="325" y="316" type="curve" smooth="yes"/>
			<point x="349" y="250" type="line"/>
			<point x="420" y="250" type="line"/>
			<point x="391" y="328" type="line" smooth="yes"/>
			<point x="382" y="353"/>
			<point x="370" y="363"/>
			<point x="351" y="365" type="curve"/>
			<point x="389" y="373"/>
			<point x="411" y="400"/>
			<point x="411" y="437" type="curve" smooth="yes"/>
			<point x="411" y="483"/>
			<point x="383" y="512"/>
			<point x="315" y="512" type="curve" smooth="yes"/>
			<point x="200" y="512" type="line"/>
		</contour>
		<contour>
			<point x="305" y="463" type="line" smooth="yes"/>
			<point x="331" y="463"/>
			<point x="345" y="451"/>
			<point x="345" y="427" type="curve" smooth="yes"/>
			<point x="345" y="404"/>
			<point x="331" y="389"/>
			<point x="304" y="389" type="curve" smooth="yes"/>
			<point x="266" y="389" type="line"/>
			<point x="266" y="463" type="line"/>
		</contour>
	</outline>
</glyph>
<glyph name="macron" format="2">
	<unicode hex="00AF"/>
	<advance width="600"/>
	<outline>
		<contour>
			<point x="143" y="623" type="line"/>
			<point x="457" y="623" type="line"/>
			<point x="457" y="711" type="line"/>
			<point x="143" y="711" type="line"/>
		</contour>
	</outline>
	<anchor name="_top" x="300" y="523"/>
</glyph>
<glyph name="degree" format="2">
	<unicode hex="00B0"/>
	<advance width="600"/>
	<outline>
		<contour>
			<point x="303" y="289" type="curve" smooth="yes"/>
			<point x="419" y="289"/>
			<point x="500" y="378"/>
			<point x="500" y="494" type="curve" smooth="yes"/>
			<point x="500" y="610"/>
			<point x="419" y="697"/>
			<point x="303" y="697" type="curve" smooth="yes"/>
			<point x="179" y="697"/>
			<point x="100" y="610"/>
			<point x="100" y="494" type="curve" smooth="yes"/>
			<point x="100" y="378"/>
			<point x="179" y="289"/>
		</contour>
		<contour>
			<point x="300" y="382" type="curve" smooth="yes"/>
			<point x="238" y="382"/>
			<point x="196" y="431"/>
			<point x="196" y="493" type="curve" smooth="yes"/>
			<point x="196" y="556"/>
			<point x="239" y="602"/>
			<point x="300" y="602" type="curve" smooth="yes"/>
			<point x="364" y="602"/>
			<point x="404" y="556"/>
			<point x="404" y="493" type="curve" smooth="yes"/>
			<point x="404" y="431"/>
			<point x="364" y="382"/>
		</contour>
	</outline>
</glyph>
<glyph name="acute" format="2">
	<unicode hex="00B4"/>
	<advance width="600"/>
	<outline>
		<contour>
			<point x="426" y="750" type="line"/>
			<point x="265" y="750" type="line"/>
			<point x="209" y="600" type="line"/>
			<point x="321" y="600" type="line"/>
		</contour>
	</outline>
	<anchor name="_top" x="267" y="523"/>
</glyph>
<glyph name="paragraph" format="2">
	<unicode hex="00B6"/>
	<advance width="600"/>
	<outline>
		<contour>
			<point x="262" y="0" type="line"/>
			<point x="369" y="0" type="line"/>
			<point x="369" y="580" type="line"/>
			<point x="439" y="580" type="line"/>
			<point x="439" y="0" type="line"/>
			<point x="546" y="0" type="line"/>
			<point x="546" y="684" type="line"/>
			<point x="262" y="684" type="line"/>
			<point x="110" y="684"/>
			<point x="27" y="595"/>
			<point x="27" y="453" type="curve" smooth="yes"/>
			<point x="27" y="319"/>
			<point x="105" y="234"/>
			<point x="249" y="234" type="curve" smooth="yes"/>
			<point x="262" y="234" type="line"/>
		</contour>
	</outline>
</glyph>
<glyph name="ordmasculine" format="2">
	<unicode hex="00BA"/>
	<advance width="600"/>
	<outline>
		<contour>
			<point x="301" y="226" type="curve" smooth="yes"/>
			<point x="434" y="226"/>
			<point x="525" y="315"/>
			<point x="525" y="461" type="curve" smooth="yes"/>
			<point x="525" y="609"/>
			<point x="433" y="696"/>
			<point x="301" y="696" type="curve" smooth="yes"/>
			<point x="167" y="696"/>
			<point x="75" y="609"/>
			<point x="75" y="461" type="curve" smooth="yes"/>
			<point x="75" y="314"/>
			<point x="169" y="226"/>
		</contour>
		<contour>
			<point x="301" y="319" type="curve" smooth="yes"/>
			<point x="241" y="319"/>
			<point x="198" y="361"/>
			<point x="198" y="461" type="curve" smooth="yes"/>
			<point x="198" y="561"/>
			<point x="239" y="604"/>
			<point x="301" y="604" type="curve" smooth="yes"/>
			<point x="361" y="604"/>
			<point x="401" y="562"/>
			<point x="401" y="461" type="curve" smooth="yes"/>
			<point x="401" y="362"/>
			<point x="363" y="319"/>
		</contour>
	</outline>
</glyph>
<glyph name="guillemetright" format="2">
	<unicode hex="00BB"/>
	<advance width="600"/>
	<outline>
		<contour>
			<point x="267" y="77" type="line"/>
			<point x="418" y="77" type="line"/>
			<point x="566" y="287" type="line"/>
			<point x="418" y="497" type="line"/>
			<point x="267" y="497" type="line"/>
			<point x="418" y="288" type="line"/>
		</contour>
		<contour>
			<point x="36" y="77" type="line"/>
			<point x="186" y="77" type="line"/>
			<point x="335" y="287" type="line"/>
			<point x="186" y="497" type="line"/>
			<point x="36" y="497" type="line"/>
			<point x="186" y="288" type="line"/>
		</contour>
	</outline>
</glyph>
<glyph name="AE" format="2">
	<unicode hex="00C6"/>
	<advance width="600"/>
	<outline>
		<contour>
			<point x="5" y="0" type="line"/>
			<point x="137" y="0" type="line"/>
			<point x="169" y="155" type="line"/>
			<point x="292" y="155" type="line"/>
			<point x="292" y="0" type="line"/>
			<point x="580" y="0" type="line"/>
			<point x="580" y="119" type="line"/>
			<point x="420" y="119" type="line"/>
			<point x="420" y="283" type="line"/>
			<point x="548" y="283" type="line"/>
			<point x="548" y="401" type="line"/>
			<point x="420" y="401" type="line"/>
			<point x="420" y="566" type="line"/>
			<point x="577" y="566" type="line"/>
			<point x="577" y="684" type="line"/>
			<point x="152" y="684" type="line"/>
		</contour>
		<contour>
			<point x="192" y="270" type="line"/>
			<point x="252" y="566" type="line"/>
			<point x="292" y="566" type="line"/>
			<point x="292" y="270" type="line"/>
		</contour>
	</outline>
	<anchor name="top" x="352" y="684"/>
</glyph>
<glyph name="Ccedilla" format="2">
	<unicode hex="00C7"/>
	<advance width="600"/>
	<outline>
		<contour>
			<point x="338" y="-230" type="curve" smooth="yes"/>
			<point x="419" y="-230"/>
			<point x="466" y="-192"/>
			<point x="466" y="-125" type="curve" smooth="yes"/>
			<point x="466" y="-78"/>
			<point x="436" y="-47"/>
			<point x="376" y="-44" type="curve"/>
			<point x="392" y="-12" type="line"/>
			<point x="455" y="-11"/>
			<point x="505" y="2"/>
			<point x="547" y="28" type="curve"/>
			<point x="547" y="147" type="line"/>
			<point x="502" y="121"/>
			<point x="446" y="113"/>
			<point x="400" y="113" type="curve" smooth="yes"/>
			<point x="280" y="113"/>
			<point x="202" y="182"/>
			<point x="202" y="339" type="curve" smooth="yes"/>
			<point x="202" y="346" type="line" smooth="yes"/>
			<point x="202" y="503"/>
			<point x="279" y="572"/>
			<point x="408" y="572" type="curve" smooth="yes"/>
			<point x="461" y="572"/>
			<point x="504" y="562"/>
			<point x="546" y="541" type="curve"/>
			<point x="546" y="666" type="line"/>
			<point x="506" y="684"/>
			<point x="453" y="696"/>
			<point x="383" y="696" type="curve" smooth="yes"/>
			<point x="189" y="696"/>
			<point x="47" y="574"/>
			<point x="47" y="350" type="curve" smooth="yes"/>
			<point x="47" y="336" type="line" smooth="yes"/>
			<point x="47" y="132"/>
			<point x="148" y="14"/>
			<point x="319" y="-8" type="curve"/>
			<point x="282" y="-94" type="line"/>
			<point x="289" y="-92"/>
			<point x="303" y="-91"/>
			<point x="315" y="-91" type="curve" smooth="yes"/>
			<point x="349" y="-91"/>
			<point x="371" y="-99"/>
			<point x="371" y="-125" type="curve" smooth="yes"/>
			<point x="371" y="-149"/>
			<point x="353" y="-160"/>
			<point x="316" y="-160" type="curve" smooth="yes"/>
			<point x="297" y="-160"/>
			<point x="273" y="-156"/>
			<point x="248" y="-145" type="curve"/>
			<point x="248" y="-212" type="line"/>
			<point x="268" y="-222"/>
			<point x="304" y="-230"/>
		</contour>
	</outline>
</glyph>
<glyph name="multiply" format="2">
	<unicode hex="00D7"/>
	<advance width="600"/>
	<outline>
		<contour>
			<point x="155" y="68" type="line"/>
			<point x="300" y="214" type="line"/>
			<point x="444" y="68" type="line"/>
			<point x="530" y="156" type="line"/>
			<point x="386" y="301" type="line"/>
			<point x="531" y="447" type="line"/>
			<point x="444" y="534" type="line"/>
			<point x="300" y="388" type="line"/>
			<point x="156" y="534" type="line"/>
			<point x="70" y="446" type="line"/>
			<point x="213" y="301" type="line"/>
			<point x="69" y="155" type="line"/>
		</contour>
	</outline>
</glyph>
<glyph name="germandbls" format="2">
	<unicode hex="00DF"/>
	<advance width="600"/>
	<outline>
		<contour>
			<point x="351" y="-9" type="curve" smooth="yes"/>
			<point x="472" y="-9"/>
			<point x="567" y="64"/>
			<point x="567" y="195" type="curve" smooth="yes"/>
			<point x="567" y="301"/>
			<point x="507" y="363"/>
			<point x="397" y="378" type="curve"/>
			<point x="486" y="400"/>
			<point x="543" y="469"/>
			<point x="542" y="566" type="curve" smooth="yes"/>
			<point x="539" y="686"/>
			<point x="463" y="760"/>
			<point x="309" y="760" type="curve" smooth="yes"/>
			<point x="125" y="760"/>
			<point x="50" y="651"/>
			<point x="50" y="522" type="curve" smooth="yes"/>
			<point x="50" y="0" type="line"/>
			<point x="197" y="0" type="line"/>
			<point x="197" y="528" type="line" smooth="yes"/>
			<point x="197" y="596"/>
			<point x="229" y="645"/>
			<point x="298" y="645" type="curve" smooth="yes"/>
			<point x="363" y="645"/>
			<point x="396" y="609"/>
			<point x="396" y="544" type="curve" smooth="yes"/>
			<point x="396" y="482"/>
			<point x="365" y="430"/>
			<point x="295" y="430" type="curve" smooth="yes"/>
			<point x="248" y="430" type="line"/>
			<point x="248" y="311" type="line"/>
			<point x="297" y="311" type="line" smooth="yes"/>
			<point x="373" y="311"/>
			<point x="415" y="281"/>
			<point x="415" y="202" type="curve" smooth="yes"/>
			<point x="415" y="135"/>
			<point x="378" y="98"/>
			<point x="316" y="98" type="curve" smooth="yes"/>
			<point x="291" y="98"/>
			<point x="269" y="104"/>
			<point x="253" y="113" type="curve"/>
			<point x="253" y="10" type="line"/>
			<point x="272" y="0"/>
			<point x="308" y="-9"/>
		</contour>
	</outline>
</glyph>
<glyph name="ae" format="2">
	<unicode hex="00E6"/>
	<advance width="600"/>
	<outline>
		<contour>
			<point x="131" y="-14" type="curve" smooth="yes"/>
			<point x="192" y="-14"/>
			<point x="232" y="21"/>
			<point x="256" y="102" type="curve"/>
			<point x="284" y="27"/>
			<point x="341" y="-14"/>
			<point x="431" y="-14" type="curve" smooth="yes"/>
			<point x="494" y="-14"/>
			<point x="538" y="4"/>
			<point x="567" y="24" type="curve"/>
			<point x="567" y="130" type="line"/>
			<point x="533" y="110"/>
			<point x="493" y="98"/>
			<point x="456" y="98" type="curve" smooth="yes"/>
			<point x="384" y="98"/>
			<point x="352" y="136"/>
			<point x="349" y="224" type="curve"/>
			<point x="588" y="224" type="line"/>
			<point x="588" y="282" type="line" smooth="yes"/>
			<point x="588" y="451"/>
			<point x="535" y="537"/>
			<point x="423" y="537" type="curve" smooth="yes"/>
			<point x="377" y="537"/>
			<point x="338" y="517"/>
			<point x="308" y="482" type="curve"/>
			<point x="281" y="519"/>
			<point x="243" y="537"/>
			<point x="178" y="537" type="curve" smooth="yes"/>
			<point x="112" y="537"/>
			<point x="58" y="512"/>
			<point x="24" y="488" type="curve"/>
			<point x="24" y="373" type="line"/>
			<point x="60" y="401"/>
			<point x="113" y="425"/>
			<point x="161" y="425" type="curve" smooth="yes"/>
			<point x="215" y="425"/>
			<point x="235" y="398"/>
			<point x="235" y="338" type="curve" smooth="yes"/>
			<point x="235" y="322" type="line"/>
			<point x="182" y="313" type="line" smooth="yes"/>
			<point x="67" y="292"/>
			<point x="12" y="231"/>
			<point x="12" y="127" type="curve" smooth="yes"/>
			<point x="12" y="38"/>
			<point x="60" y="-14"/>
		</contour>
		<contour>
			<point x="415" y="435" type="curve" smooth="yes"/>
			<point x="453" y="435"/>
			<point x="472" y="396"/>
			<point x="472" y="308" type="curve"/>
			<point x="348" y="308" type="line"/>
			<point x="350" y="391"/>
			<point x="372" y="435"/>
		</contour>
		<contour>
			<point x="124" y="147" type="curve" smooth="yes"/>
			<point x="124" y="197"/>
			<point x="148" y="222"/>
			<point x="192" y="231" type="curve" smooth="yes"/>
			<point x="235" y="240" type="line"/>
			<point x="235" y="167" type="line" smooth="yes"/>
			<point x="235" y="114"/>
			<point x="213" y="82"/>
			<point x="178" y="82" type="curve" smooth="yes"/>
			<point x="146" y="82"/>
			<point x="124" y="106"/>
		</contour>
	</outline>
	<anchor name="top" x="304" y="523"/>
</glyph>
<glyph name="ccedilla" format="2">
	<unicode hex="00E7"/>
	<advance width="600"/>
	<outline>
		<contour>
			<point x="329" y="-230" type="curve" smooth="yes"/>
			<point x="410" y="-230"/>
			<point x="457" y="-192"/>
			<point x="457" y="-125" type="curve" smooth="yes"/>
			<point x="457" y="-78"/>
			<point x="427" y="-47"/>
			<point x="367" y="-44" type="curve"/>
			<point x="383" y="-12" type="line"/>
			<point x="445" y="-9"/>
			<point x="490" y="6"/>
			<point x="517" y="22" type="curve"/>
			<point x="517" y="133" type="line"/>
			<point x="487" y="118"/>
			<point x="442" y="104"/>
			<point x="391" y="104" type="curve" smooth="yes"/>
			<point x="293" y="104"/>
			<point x="231" y="155"/>
			<point x="231" y="259" type="curve" smooth="yes"/>
			<point x="231" y="266" type="line" smooth="yes"/>
			<point x="231" y="369"/>
			<point x="291" y="419"/>
			<point x="393" y="419" type="curve" smooth="yes"/>
			<point x="439" y="419"/>
			<point x="485" y="409"/>
			<point x="517" y="390" type="curve"/>
			<point x="517" y="504" type="line"/>
			<point x="485" y="521"/>
			<point x="431" y="535"/>
			<point x="370" y="535" type="curve" smooth="yes"/>
			<point x="194" y="535"/>
			<point x="81" y="430"/>
			<point x="81" y="268" type="curve" smooth="yes"/>
			<point x="81" y="255" type="line" smooth="yes"/>
			<point x="81" y="107"/>
			<point x="162" y="10"/>
			<point x="310" y="-9" type="curve"/>
			<point x="273" y="-94" type="line"/>
			<point x="280" y="-92"/>
			<point x="294" y="-91"/>
			<point x="306" y="-91" type="curve" smooth="yes"/>
			<point x="340" y="-91"/>
			<point x="362" y="-99"/>
			<point x="362" y="-125" type="curve" smooth="yes"/>
			<point x="362" y="-149"/>
			<point x="344" y="-160"/>
			<point x="307" y="-160" type="curve" smooth="yes"/>
			<point x="288" y="-160"/>
			<point x="264" y="-156"/>
			<point x="239" y="-145" type="curve"/>
			<point x="239" y="-212" type="line"/>
			<point x="259" y="-222"/>
			<point x="295" y="-230"/>
		</contour>
	</outline>
</glyph>
<glyph name="eth" format="2">
	<unicode hex="00F0"/>
	<advance width="600"/>
	<outline>
		<contour>
			<point x="290" y="-14" type="curve" smooth="yes"/>
			<point x="446" y="-14"/>
			<point x="556" y="82"/>
			<point x="556" y="285" type="curve" smooth="yes"/>
			<point x="556" y="299" type="line" smooth="yes"/>
			<point x="556" y="437"/>
			<point x="516" y="548"/>
			<point x="456" y="634" type="curve"/>
			<point x="532" y="659" type="line"/>
			<point x="532" y="744" type="line"/>
			<point x="400" y="700" type="line"/>
			<point x="382" y="718"/>
			<point x="363" y="735"/>
			<point x="343" y="750" type="curve"/>
			<point x="148" y="750" type="line"/>
			<point x="189" y="716"/>
			<point x="225" y="684"/>
			<point x="255" y="651" type="curve"/>
			<point x="159" y="619" type="line"/>
			<point x="159" y="534" type="line"/>
			<point x="311" y="585" type="line"/>
			<point x="349" y="531"/>
			<point x="377" y="472"/>
			<point x="395" y="398" type="curve"/>
			<point x="357" y="462"/>
			<point x="302" y="500"/>
			<point x="236" y="500" type="curve" smooth="yes"/>
			<point x="115" y="500"/>
			<point x="44" y="399"/>
			<point x="44" y="256" type="curve" smooth="yes"/>
			<point x="44" y="242" type="line" smooth="yes"/>
			<point x="44" y="75"/>
			<point x="144" y="-14"/>
		</contour>
		<contour>
			<point x="301" y="101" type="curve" smooth="yes"/>
			<point x="233" y="101"/>
			<point x="194" y="151"/>
			<point x="194" y="245" type="curve" smooth="yes"/>
			<point x="194" y="252" type="line" smooth="yes"/>
			<point x="194" y="346"/>
			<point x="236" y="393"/>
			<point x="300" y="393" type="curve" smooth="yes"/>
			<point x="365" y="393"/>
			<point x="408" y="347"/>
			<point x="408" y="254" type="curve" smooth="yes"/>
			<point x="408" y="247" type="line" smooth="yes"/>
			<point x="408" y="152"/>
			<point x="367" y="101"/>
		</contour>
	</outline>
</glyph>
<glyph name="thorn" format="2">
	<unicode hex="00FE"/>
	<advance width="600"/>
	<outline>
		<contour>
			<point x="61" y="750" type="line"/>
			<point x="61" y="-204" type="line"/>
			<point x="208" y="-204" type="line"/>
			<point x="208" y="88" type="line"/>
			<point x="244" y="20"/>
			<point x="295" y="-14"/>
			<point x="367" y="-14" type="curve" smooth="yes"/>
			<point x="475" y="-14"/>
			<point x="555" y="83"/>
			<point x="555" y="255" type="curve" smooth="yes"/>
			<point x="555" y="269" type="line" smooth="yes"/>
			<point x="555" y="437"/>
			<point x="488" y="537"/>
			<point x="376" y="537" type="curve" smooth="yes"/>
			<point x="298" y="537"/>
			<point x="243" y="489"/>
			<point x="208" y="420" type="curve"/>
			<point x="208" y="750" type="line"/>
		</contour>
		<contour>
			<point x="304" y="101" type="curve" smooth="yes"/>
			<point x="256" y="101"/>
			<point x="222" y="130"/>
			<point x="208" y="190" type="curve"/>
			<point x="208" y="192" type="line"/>
			<point x="203" y="211"/>
			<point x="201" y="233"/>
			<point x="201" y="258" type="curve" smooth="yes"/>
			<point x="201" y="265" type="line" smooth="yes"/>
			<point x="201" y="371"/>
			<point x="243" y="423"/>
			<point x="305" y="423" type="curve" smooth="yes"/>
			<point x="368" y="423"/>
			<point x="405" y="374"/>
			<point x="405" y="265" type="curve" smooth="yes"/>
			<point x="405" y="258" type="line" smooth="yes"/>
			<point x="405" y="151"/>
			<point x="369" y="101"/>
		</contour>
	</outline>
</glyph>
<glyph name="Hbar" format="2">
	<unicode hex="0126"/>
	<advance width="600"/>
	<outline>
		<contour>
			<point x="57" y="0" type="line"/>
			<point x="206" y="0" type="line"/>
			<point x="206" y="267" type="line"/>
			<point x="394" y="267" type="line"/>
			<point x="394" y="0" type="line"/>
			<point x="543" y="0" type="line"/>
			<point x="543" y="486" type="line"/>
			<point x="600" y="486" type="line"/>
			<point x="600" y="573" type="line"/>
			<point x="543" y="573" type="line"/>
			<point x="543" y="684" type="line"/>
			<point x="394" y="684" type="line"/>
			<point x="394" y="573" type="line"/>
			<point x="206" y="573" type="line"/>
			<point x="206" y="684" type="line"/>
			<point x="57" y="684" type="line"/>
			<point x="57" y="573" type="line"/>
			<point x="0" y="573" type="line"/>
			<point x="0" y="486" type="line"/>
			<point x="57" y="486" type="line"/>
		</contour>
		<contour>
			<point x="206" y="390" type="line"/>
			<point x="206" y="486" type="line"/>
			<point x="394" y="486" type="line"/>
			<point x="394" y="390" type="line"/>
		</contour>
	</outline>
	<anchor name="center" x="300" y="535"/>
	<anchor name="bottom" x="295" y="0"/>
	<anchor name="top" x="300" y="684"/>
</glyph>
<glyph name="hbar" format="2">
	<unicode hex="0127"/>
	<advance width="600"/>
	<outline>
		<contour>
			<point x="10" y="589" type="line"/>
			<point x="69" y="589" type="line"/>
			<point x="69" y="0" type="line"/>
			<point x="216" y="0" type="line"/>
			<point x="216" y="310" type="line" smooth="yes"/>
			<point x="216" y="335"/>
			<point x="222" y="356"/>
			<point x="232" y="372" type="curve" smooth="yes"/>
			<point x="248" y="397"/>
			<point x="272" y="416"/>
			<point x="309" y="416" type="curve" smooth="yes"/>
			<point x="364" y="416"/>
			<point x="389" y="379"/>
			<point x="389" y="314" type="curve" smooth="yes"/>
			<point x="389" y="0" type="line"/>
			<point x="536" y="0" type="line"/>
			<point x="536" y="347" type="line" smooth="yes"/>
			<point x="536" y="475"/>
			<point x="483" y="537"/>
			<point x="385" y="537" type="curve" smooth="yes"/>
			<point x="309" y="537"/>
			<point x="256" y="490"/>
			<point x="216" y="421" type="curve"/>
			<point x="216" y="589" type="line"/>
			<point x="360" y="589" type="line"/>
			<point x="360" y="670" type="line"/>
			<point x="216" y="670" type="line"/>
			<point x="216" y="750" type="line"/>
			<point x="69" y="750" type="line"/>
			<point x="69" y="670" type="line"/>
			<point x="10" y="670" type="line"/>
		</contour>
	</outline>
</glyph>
<glyph name="ij" format="2">
	<unicode hex="0133"/>
	<advance width="600"/>
	<outline>
		<contour>
			<point x="158" y="606" type="curve" smooth="yes"/>
			<point x="224" y="606"/>
			<point x="249" y="628"/>
			<point x="249" y="679" type="curve" smooth="yes"/>
			<point x="249" y="729"/>
			<point x="222" y="753"/>
			<point x="158" y="753" type="curve" smooth="yes"/>
			<point x="97" y="753"/>
			<point x="69" y="730"/>
			<point x="69" y="679" type="curve" smooth="yes"/>
			<point x="69" y="628"/>
			<point x="94" y="606"/>
		</contour>
		<contour>
			<point x="440" y="606" type="curve" smooth="yes"/>
			<point x="506" y="606"/>
			<point x="531" y="628"/>
			<point x="531" y="679" type="curve" smooth="yes"/>
			<point x="531" y="729"/>
			<point x="504" y="753"/>
			<point x="440" y="753" type="curve" smooth="yes"/>
			<point x="379" y="753"/>
			<point x="351" y="730"/>
			<point x="351" y="679" type="curve" smooth="yes"/>
			<point x="351" y="628"/>
			<point x="376" y="606"/>
		</contour>
		<contour>
			<point x="288" y="-204" type="curve" smooth="yes"/>
			<point x="407" y="-204"/>
			<point x="515" y="-158"/>
			<point x="515" y="-2" type="curve" smooth="yes"/>
			<point x="515" y="523" type="line"/>
			<point x="367" y="523" type="line"/>
			<point x="367" y="10" type="line" smooth="yes"/>
			<point x="367" y="-58"/>
			<point x="335" y="-85"/>
			<point x="262" y="-85" type="curve" smooth="yes"/>
			<point x="219" y="-85"/>
			<point x="182" y="-77"/>
			<point x="157" y="-69" type="curve"/>
			<point x="157" y="-183" type="line"/>
			<point x="187" y="-195"/>
			<point x="240" y="-204"/>
		</contour>
		<contour>
			<point x="85" y="0" type="line"/>
			<point x="232" y="0" type="line"/>
			<point x="232" y="523" type="line"/>
			<point x="85" y="523" type="line"/>
		</contour>
	</outline>
</glyph>
<glyph name="kgreenlandic" format="2">
	<unicode hex="0138"/>
	<advance width="600"/>
	<outline>
		<contour>
			<point x="75" y="0" type="line"/>
			<point x="221" y="0" type="line"/>
			<point x="221" y="134" type="line"/>
			<point x="291" y="223" type="line"/>
			<point x="410" y="0" type="line"/>
			<point x="573" y="0" type="line"/>
			<point x="407" y="310" type="line"/>
			<point x="564" y="525" type="line"/>
			<point x="402" y="525" type="line"/>
			<point x="221" y="272" type="line"/>
			<point x="221" y="524" type="line"/>
			<point x="75" y="524" type="line"/>
		</contour>
	</outline>
</glyph>
<glyph name="ldot" format="2">
	<unicode hex="0140"/>
	<advance width="600"/>
	<outline>
		<contour>
			<point x="64" y="0" type="line"/>
			<point x="547" y="0" type="line"/>
			<point x="547" y="115" type="line"/>
			<point x="385" y="115" type="line"/>
			<point x="385" y="750" type="line"/>
			<point x="65" y="750" type="line"/>
			<point x="65" y="635" type="line"/>
			<point x="237" y="635" type="line"/>
			<point x="237" y="115" type="line"/>
			<point x="64" y="115" type="line"/>
		</contour>
		<contour>
			<point x="601" y="276" type="curve" smooth="yes"/>
			<point x="659" y="276"/>
			<point x="689" y="303"/>
			<point x="689" y="378" type="curve" smooth="yes"/>
			<point x="689" y="451"/>
			<point x="659" y="477"/>
			<point x="601" y="477" type="curve" smooth="yes"/>
			<point x="543" y="477"/>
			<point x="513" y="451"/>
			<point x="513" y="378" type="curve" smooth="yes"/>
			<point x="513" y="303"/>
			<point x="543" y="276"/>
		</contour>
	</outline>
</glyph>
<glyph name="Eng" format="2">
	<unicode hex="014A"/>
	<advance width="600"/>
	<outline>
		<contour>
			<point x="337" y="-207" type="curve" smooth="yes"/>
			<point x="454" y="-207"/>
			<point x="544" y="-151"/>
			<point x="544" y="-12" type="curve" smooth="yes"/>
			<point x="544" y="684" type="line"/>
			<point x="417" y="684" type="line"/>
			<point x="417" y="429" type="line" smooth="yes"/>
			<point x="417" y="328"/>
			<point x="424" y="265"/>
			<point x="437" y="173" type="curve"/>
			<point x="428" y="173" type="line"/>
			<point x="228" y="684" type="line"/>
			<point x="56" y="684" type="line"/>
			<point x="56" y="0" type="line"/>
			<point x="183" y="0" type="line"/>
			<point x="183" y="255" type="line" smooth="yes"/>
			<point x="183" y="343"/>
			<point x="174" y="419"/>
			<point x="164" y="511" type="curve"/>
			<point x="173" y="511" type="line"/>
			<point x="372" y="0" type="line"/>
			<point x="409" y="0" type="line"/>
			<point x="409" y="-3" type="line" smooth="yes"/>
			<point x="409" y="-67"/>
			<point x="377" y="-100"/>
			<point x="306" y="-100" type="curve" smooth="yes"/>
			<point x="274" y="-100"/>
			<point x="247" y="-95"/>
			<point x="225" y="-89" type="curve"/>
			<point x="225" y="-194" type="line"/>
			<point x="252" y="-201"/>
			<point x="287" y="-207"/>
		</contour>
	</outline>
	<anchor name="top" x="343" y="720"/>
	<anchor name="bottom" x="299" y="0"/>
</glyph>
<glyph name="eng" format="2">
	<unicode hex="014B"/>
	<advance width="600"/>
	<outline>
		<contour>
			<point x="354" y="-211" type="curve" smooth="yes"/>
			<point x="455" y="-211"/>
			<point x="536" y="-166"/>
			<point x="536" y="-32" type="curve" smooth="yes"/>
			<point x="536" y="347" type="line" smooth="yes"/>
			<point x="536" y="475"/>
			<point x="483" y="537"/>
			<point x="384" y="537" type="curve" smooth="yes"/>
			<point x="302" y="537"/>
			<point x="248" y="485"/>
			<point x="209" y="410" type="curve"/>
			<point x="209" y="523" type="line"/>
			<point x="69" y="523" type="line"/>
			<point x="69" y="0" type="line"/>
			<point x="216" y="0" type="line"/>
			<point x="216" y="310" type="line" smooth="yes"/>
			<point x="216" y="335"/>
			<point x="222" y="356"/>
			<point x="232" y="372" type="curve" smooth="yes"/>
			<point x="248" y="397"/>
			<point x="272" y="416"/>
			<point x="308" y="416" type="curve" smooth="yes"/>
			<point x="364" y="416"/>
			<point x="389" y="379"/>
			<point x="389" y="314" type="curve" smooth="yes"/>
			<point x="389" y="-25" type="line" smooth="yes"/>
			<point x="389" y="-69"/>
			<point x="365" y="-95"/>
			<point x="314" y="-95" type="curve" smooth="yes"/>
			<point x="297" y="-95"/>
			<point x="279" y="-91"/>
			<point x="269" y="-89" type="curve"/>
			<point x="269" y="-199" type="line"/>
			<point x="290" y="-205"/>
			<point x="321" y="-211"/>
		</contour>
	</outline>
</glyph>
<glyph name="oe" format="2">
	<unicode hex="0153"/>
	<advance width="600"/>
	<outline>
		<contour>
			<point x="142" y="-14" type="curve" smooth="yes"/>
			<point x="195" y="-14"/>
			<point x="235" y="17"/>
			<point x="258" y="110" type="curve"/>
			<point x="284" y="30"/>
			<point x="341" y="-14"/>
			<point x="432" y="-14" type="curve" smooth="yes"/>
			<point x="495" y="-14"/>
			<point x="540" y="4"/>
			<point x="570" y="23" type="curve"/>
			<point x="570" y="129" type="line"/>
			<point x="534" y="109"/>
			<point x="495" y="98"/>
			<point x="456" y="98" type="curve" smooth="yes"/>
			<point x="392" y="98"/>
			<point x="360" y="136"/>
			<point x="356" y="224" type="curve"/>
			<point x="591" y="224" type="line"/>
			<point x="591" y="282" type="line" smooth="yes"/>
			<point x="591" y="451"/>
			<point x="533" y="536"/>
			<point x="426" y="536" type="curve" smooth="yes"/>
			<point x="375" y="536"/>
			<point x="337" y="515"/>
			<point x="308" y="475" type="curve"/>
			<point x="282" y="513"/>
			<point x="242" y="536"/>
			<point x="188" y="536" type="curve" smooth="yes"/>
			<point x="65" y="536"/>
			<point x="10" y="439"/>
			<point x="10" y="261" type="curve" smooth="yes"/>
			<point x="10" y="247" type="line" smooth="yes"/>
			<point x="10" y="88"/>
			<point x="49" y="-14"/>
		</contour>
		<contour>
			<point x="418" y="435" type="curve" smooth="yes"/>
			<point x="457" y="435"/>
			<point x="474" y="392"/>
			<point x="475" y="308" type="curve"/>
			<point x="355" y="308" type="line"/>
			<point x="357" y="392"/>
			<point x="378" y="435"/>
		</contour>
		<contour>
			<point x="186" y="99" type="curve" smooth="yes"/>
			<point x="147" y="99"/>
			<point x="130" y="143"/>
			<point x="130" y="261" type="curve" smooth="yes"/>
			<point x="130" y="268" type="line" smooth="yes"/>
			<point x="130" y="389"/>
			<point x="147" y="432"/>
			<point x="188" y="432" type="curve" smooth="yes"/>
			<point x="230" y="432"/>
			<point x="245" y="388"/>
			<point x="245" y="268" type="curve" smooth="yes"/>
			<point x="245" y="261" type="line" smooth="yes"/>
			<point x="245" y="146"/>
			<point x="227" y="99"/>
		</contour>
	</outline>
</glyph>
<glyph name="Scedilla" format="2">
	<unicode hex="015E"/>
	<advance width="600"/>
	<outline>
		<contour>
			<point x="284" y="-230" type="curve" smooth="yes"/>
			<point x="365" y="-230"/>
			<point x="412" y="-192"/>
			<point x="412" y="-125" type="curve" smooth="yes"/>
			<point x="412" y="-78"/>
			<point x="382" y="-47"/>
			<point x="322" y="-44" type="curve"/>
			<point x="338" y="-13" type="line"/>
			<point x="469" y="-3"/>
			<point x="555" y="73"/>
			<point x="555" y="214" type="curve" smooth="yes"/>
			<point x="555" y="360"/>
			<point x="446" y="390"/>
			<point x="317" y="414" type="curve" smooth="yes"/>
			<point x="237" y="428"/>
			<point x="196" y="444"/>
			<point x="196" y="498" type="curve" smooth="yes"/>
			<point x="196" y="553"/>
			<point x="239" y="579"/>
			<point x="299" y="579" type="curve" smooth="yes"/>
			<point x="382" y="579"/>
			<point x="475" y="551"/>
			<point x="536" y="510" type="curve"/>
			<point x="536" y="641" type="line"/>
			<point x="484" y="673"/>
			<point x="392" y="698"/>
			<point x="302" y="698" type="curve" smooth="yes"/>
			<point x="151" y="698"/>
			<point x="47" y="621"/>
			<point x="47" y="478" type="curve" smooth="yes"/>
			<point x="47" y="326"/>
			<point x="146" y="298"/>
			<point x="283" y="274" type="curve" smooth="yes"/>
			<point x="357" y="261"/>
			<point x="406" y="248"/>
			<point x="406" y="190" type="curve" smooth="yes"/>
			<point x="406" y="135"/>
			<point x="366" y="108"/>
			<point x="304" y="108" type="curve" smooth="yes"/>
			<point x="227" y="108"/>
			<point x="137" y="136"/>
			<point x="57" y="193" type="curve"/>
			<point x="57" y="55" type="line"/>
			<point x="109" y="23"/>
			<point x="175" y="-5"/>
			<point x="264" y="-12" type="curve"/>
			<point x="228" y="-94" type="line"/>
			<point x="235" y="-92"/>
			<point x="249" y="-91"/>
			<point x="261" y="-91" type="curve" smooth="yes"/>
			<point x="295" y="-91"/>
			<point x="317" y="-99"/>
			<point x="317" y="-125" type="curve" smooth="yes"/>
			<point x="317" y="-149"/>
			<point x="299" y="-160"/>
			<point x="262" y="-160" type="curve" smooth="yes"/>
			<point x="243" y="-160"/>
			<point x="219" y="-156"/>
			<point x="194" y="-145" type="curve"/>
			<point x="194" y="-212" type="line"/>
			<point x="214" y="-222"/>
			<point x="250" y="-230"/>
		</contour>
	</outline>
</glyph>
<glyph name="tcaron" format="2">
	<unicode hex="0165"/>
	<advance width="600"/>
	<outline>
		<contour>
			<point x="433" y="618" type="line"/>
			<point x="511" y="618" type="line"/>
			<point x="581" y="780" type="line"/>
			<point x="441" y="780" type="line"/>
		</contour>
		<contour>
			<point x="378" y="-12" type="curve" smooth="yes"/>
			<point x="434" y="-12"/>
			<point x="485" y="1"/>
			<point x="516" y="17" type="curve"/>
			<point x="516" y="122" type="line"/>
			<point x="490" y="110"/>
			<point x="452" y="104"/>
			<point x="424" y="104" type="curve" smooth="yes"/>
			<point x="365" y="104"/>
			<point x="329" y="126"/>
			<point x="329" y="194" type="curve" smooth="yes"/>
			<point x="329" y="408" type="line"/>
			<point x="522" y="408" type="line"/>
			<point x="522" y="523" type="line"/>
			<point x="330" y="523" type="line"/>
			<point x="330" y="692" type="line"/>
			<point x="198" y="692" type="line"/>
			<point x="191" y="587" type="line" smooth="yes"/>
			<point x="187" y="529"/>
			<point x="156" y="518"/>
			<point x="119" y="518" type="curve" smooth="yes"/>
			<point x="46" y="518" type="line"/>
			<point x="46" y="408" type="line"/>
			<point x="182" y="408" type="line"/>
			<point x="182" y="171" type="line" smooth="yes"/>
			<point x="182" y="38"/>
			<point x="251" y="-12"/>
		</contour>
	</outline>
</glyph>
<glyph name="Tbar" format="2">
	<unicode hex="0166"/>
	<advance width="600"/>
	<outline>
		<contour>
			<point x="224" y="0" type="line"/>
			<point x="374" y="0" type="line"/>
			<point x="374" y="289" type="line"/>
			<point x="492" y="289" type="line"/>
			<point x="492" y="385" type="line"/>
			<point x="374" y="385" type="line"/>
			<point x="374" y="556" type="line"/>
			<point x="570" y="556" type="line"/>
			<point x="570" y="684" type="line"/>
			<point x="30" y="684" type="line"/>
			<point x="30" y="556" type="line"/>
			<point x="224" y="556" type="line"/>
			<point x="224" y="385" type="line"/>
			<point x="106" y="385" type="line"/>
			<point x="106" y="289" type="line"/>
			<point x="224" y="289" type="line"/>
		</contour>
	</outline>
</glyph>
<glyph name="tbar" format="2">
	<unicode hex="0167"/>
	<advance width="600"/>
	<outline>
		<contour>
			<point x="56" y="233" type="line"/>
			<point x="182" y="233" type="line"/>
			<point x="182" y="171" type="line" smooth="yes"/>
			<point x="182" y="38"/>
			<point x="251" y="-12"/>
			<point x="378" y="-12" type="curve" smooth="yes"/>
			<point x="434" y="-12"/>
			<point x="485" y="1"/>
			<point x="516" y="17" type="curve"/>
			<point x="516" y="122" type="line"/>
			<point x="490" y="110"/>
			<point x="452" y="104"/>
			<point x="424" y="104" type="curve" smooth="yes"/>
			<point x="365" y="104"/>
			<point x="329" y="126"/>
			<point x="329" y="194" type="curve" smooth="yes"/>
			<point x="329" y="233" type="line"/>
			<point x="511" y="233" type="line"/>
			<point x="511" y="321" type="line"/>
			<point x="329" y="321" type="line"/>
			<point x="329" y="408" type="line"/>
			<point x="522" y="408" type="line"/>
			<point x="522" y="523" type="line"/>
			<point x="330" y="523" type="line"/>
			<point x="330" y="692" type="line"/>
			<point x="198" y="692" type="line"/>
			<point x="191" y="587" type="line" smooth="yes"/>
			<point x="187" y="529"/>
			<point x="156" y="518"/>
			<point x="119" y="518" type="curve" smooth="yes"/>
			<point x="46" y="518" type="line"/>
			<point x="46" y="408" type="line"/>
			<point x="182" y="408" type="line"/>
			<point x="182" y="321" type="line"/>
			<point x="56" y="321" type="line"/>
		</contour>
	</outline>
</glyph>
<glyph name="Oslashacute" format="2">
	<unicode hex="01FE"/>
	<advance width="600"/>
	<outline>
		<contour>
			<point x="246" y="744" type="line"/>
			<point x="356" y="744" type="line"/>
			<point x="457" y="884" type="line"/>
			<point x="299" y="884" type="line"/>
		</contour>
		<contour>
			<point x="300" y="-14" type="curve" smooth="yes"/>
			<point x="465" y="-14"/>
			<point x="557" y="103"/>
			<point x="557" y="335" type="curve" smooth="yes"/>
			<point x="557" y="349" type="line" smooth="yes"/>
			<point x="557" y="449"/>
			<point x="540" y="528"/>
			<point x="507" y="585" type="curve"/>
			<point x="583" y="708" type="line"/>
			<point x="468" y="708" type="line"/>
			<point x="439" y="660" type="line"/>
			<point x="401" y="685"/>
			<point x="354" y="698"/>
			<point x="300" y="698" type="curve" smooth="yes"/>
			<point x="135" y="698"/>
			<point x="43" y="581"/>
			<point x="43" y="349" type="curve" smooth="yes"/>
			<point x="43" y="335" type="line" smooth="yes"/>
			<point x="43" y="235"/>
			<point x="60" y="156"/>
			<point x="93" y="99" type="curve"/>
			<point x="17" y="-24" type="line"/>
			<point x="132" y="-24" type="line"/>
			<point x="161" y="24" type="line"/>
			<point x="199" y="-1"/>
			<point x="246" y="-14"/>
		</contour>
		<contour>
			<point x="194" y="338" type="curve" smooth="yes"/>
			<point x="194" y="345" type="line" smooth="yes"/>
			<point x="194" y="520"/>
			<point x="233" y="577"/>
			<point x="300" y="577" type="curve" smooth="yes"/>
			<point x="330" y="577"/>
			<point x="354" y="566"/>
			<point x="372" y="537" type="curve"/>
			<point x="198" y="250" type="line"/>
			<point x="195" y="275"/>
			<point x="194" y="305"/>
		</contour>
		<contour>
			<point x="300" y="107" type="curve" smooth="yes"/>
			<point x="270" y="107"/>
			<point x="245" y="119"/>
			<point x="227" y="148" type="curve"/>
			<point x="402" y="434" type="line"/>
			<point x="405" y="409"/>
			<point x="406" y="379"/>
			<point x="406" y="345" type="curve" smooth="yes"/>
			<point x="406" y="338" type="line" smooth="yes"/>
			<point x="406" y="165"/>
			<point x="367" y="107"/>
		</contour>
	</outline>
</glyph>
<glyph name="oslashacute" format="2">
	<unicode hex="01FF"/>
	<advance width="600"/>
	<outline>
		<contour>
			<point x="460" y="750" type="line"/>
			<point x="299" y="750" type="line"/>
			<point x="243" y="600" type="line"/>
			<point x="355" y="600" type="line"/>
		</contour>
		<contour>
			<point x="300" y="-14" type="curve" smooth="yes"/>
			<point x="452" y="-14"/>
			<point x="554" y="87"/>
			<point x="554" y="255" type="curve" smooth="yes"/>
			<point x="554" y="269" type="line" smooth="yes"/>
			<point x="554" y="341"/>
			<point x="535" y="402"/>
			<point x="500" y="447" type="curve"/>
			<point x="580" y="548" type="line"/>
			<point x="467" y="548" type="line"/>
			<point x="433" y="505" type="line"/>
			<point x="396" y="526"/>
			<point x="351" y="537"/>
			<point x="300" y="537" type="curve" smooth="yes"/>
			<point x="147" y="537"/>
			<point x="46" y="434"/>
			<point x="46" y="269" type="curve" smooth="yes"/>
			<point x="46" y="255" type="line" smooth="yes"/>
			<point x="46" y="182"/>
			<point x="65" y="122"/>
			<point x="99" y="77" type="curve"/>
			<point x="21" y="-23" type="line"/>
			<point x="134" y="-23" type="line"/>
			<point x="166" y="18" type="line"/>
			<point x="204" y="-3"/>
			<point x="249" y="-14"/>
		</contour>
		<contour>
			<point x="196" y="258" type="curve" smooth="yes"/>
			<point x="196" y="265" type="line" smooth="yes"/>
			<point x="196" y="375"/>
			<point x="235" y="423"/>
			<point x="300" y="423" type="curve" smooth="yes"/>
			<point x="325" y="423"/>
			<point x="346" y="416"/>
			<point x="363" y="401" type="curve"/>
			<point x="202" y="194" type="line"/>
			<point x="198" y="212"/>
			<point x="196" y="234"/>
		</contour>
		<contour>
			<point x="300" y="101" type="curve" smooth="yes"/>
			<point x="275" y="101"/>
			<point x="255" y="108"/>
			<point x="238" y="122" type="curve"/>
			<point x="398" y="329" type="line"/>
			<point x="402" y="311"/>
			<point x="404" y="289"/>
			<point x="404" y="265" type="curve" smooth="yes"/>
			<point x="404" y="258" type="line" smooth="yes"/>
			<point x="404" y="149"/>
			<point x="365" y="101"/>
		</contour>
	</outline>
</glyph>
<glyph name="dotlessj" format="2">
	<unicode hex="0237"/>
	<advance width="600"/>
	<outline>
		<contour>
			<point x="221" y="-204" type="curve" smooth="yes"/>
			<point x="363" y="-204"/>
			<point x="479" y="-158"/>
			<point x="479" y="18" type="curve" smooth="yes"/>
			<point x="479" y="523" type="line"/>
			<point x="75" y="523" type="line"/>
			<point x="75" y="408" type="line"/>
			<point x="332" y="408" type="line"/>
			<point x="332" y="31" type="line" smooth="yes"/>
			<point x="332" y="-57"/>
			<point x="290" y="-85"/>
			<point x="195" y="-85" type="curve" smooth="yes"/>
			<point x="147" y="-85"/>
			<point x="103" y="-77"/>
			<point x="75" y="-67" type="curve"/>
			<point x="75" y="-181" type="line"/>
			<point x="108" y="-195"/>
			<point x="167" y="-204"/>
		</contour>
	</outline>
	<anchor name="top" x="406" y="523"/>
</glyph>
<glyph name="breve" format="2">
	<unicode hex="02D8"/>
	<advance width="600"/>
	<outline>
		<contour>
			<point x="297" y="590" type="curve" smooth="yes"/>
			<point x="415" y="590"/>
			<point x="466" y="635"/>
			<point x="466" y="750" type="curve"/>
			<point x="359" y="750" type="line"/>
			<point x="359" y="690"/>
			<point x="344" y="670"/>
			<point x="300" y="670" type="curve" smooth="yes"/>
			<point x="255" y="670"/>
			<point x="241" y="691"/>
			<point x="241" y="750" type="curve"/>
			<point x="134" y="750" type="line"/>
			<point x="134" y="635"/>
			<point x="181" y="590"/>
		</contour>
	</outline>
	<anchor name="_top" x="300" y="523"/>
</glyph>
<glyph name="dotaccent" format="2">
	<unicode hex="02D9"/>
	<advance width="600"/>
	<outline>
		<contour>
			<point x="299" y="601" type="curve" smooth="yes"/>
			<point x="365" y="601"/>
			<point x="390" y="624"/>
			<point x="390" y="675" type="curve" smooth="yes"/>
			<point x="390" y="725"/>
			<point x="363" y="748"/>
			<point x="299" y="748" type="curve" smooth="yes"/>
			<point x="238" y="748"/>
			<point x="210" y="726"/>
			<point x="210" y="675" type="curve" smooth="yes"/>
			<point x="210" y="624"/>
			<point x="235" y="601"/>
		</contour>
	</outline>
	<anchor name="_top" x="300" y="523"/>
</glyph>
<glyph name="ogonek" format="2">
	<unicode hex="02DB"/>
	<advance width="600"/>
	<outline>
		<contour>
			<point x="323" y="-203" type="curve" smooth="yes"/>
			<point x="356" y="-203"/>
			<point x="382" y="-198"/>
			<point x="398" y="-192" type="curve"/>
			<point x="398" y="-103" type="line"/>
			<point x="393" y="-105"/>
			<point x="381" y="-106"/>
			<point x="366" y="-106" type="curve" smooth="yes"/>
			<point x="337" y="-106"/>
			<point x="315" y="-96"/>
			<point x="315" y="-68" type="curve" smooth="yes"/>
			<point x="315" y="-41"/>
			<point x="335" y="-16"/>
			<point x="389" y="0" type="curve"/>
			<point x="296" y="0" type="line"/>
			<point x="235" y="-22"/>
			<point x="199" y="-63"/>
			<point x="199" y="-112" type="curve" smooth="yes"/>
			<point x="199" y="-171"/>
			<point x="239" y="-203"/>
		</contour>
	</outline>
	<anchor name="_ogonek" x="389" y="0"/>
</glyph>
<glyph name="hungarumlaut" format="2">
	<unicode hex="02DD"/>
	<advance width="600"/>
	<outline>
		<contour>
			<point x="310" y="600" type="line"/>
			<point x="409" y="600" type="line"/>
			<point x="497" y="750" type="line"/>
			<point x="361" y="750" type="line"/>
		</contour>
		<contour>
			<point x="115" y="600" type="line"/>
			<point x="214" y="600" type="line"/>
			<point x="301" y="750" type="line"/>
			<point x="165" y="750" type="line"/>
		</contour>
	</outline>
	<anchor name="_top" x="262" y="523"/>
</glyph>
<glyph name="pi" format="2">
	<unicode hex="03C0"/>
	<advance width="600"/>
	<outline>
		<contour>
			<point x="85" y="0" type="line"/>
			<point x="222" y="0" type="line"/>
			<point x="222" y="409" type="line"/>
			<point x="359" y="409" type="line"/>
			<point x="359" y="127" type="line" smooth="yes"/>
			<point x="359" y="37"/>
			<point x="397" y="-12"/>
			<point x="496" y="-12" type="curve" smooth="yes"/>
			<point x="528" y="-12"/>
			<point x="561" y="-6"/>
			<point x="578" y="0" type="curve"/>
			<point x="578" y="99" type="line"/>
			<point x="574" y="97"/>
			<point x="563" y="95"/>
			<point x="550" y="95" type="curve" smooth="yes"/>
			<point x="516" y="95"/>
			<point x="497" y="111"/>
			<point x="497" y="143" type="curve" smooth="yes"/>
			<point x="497" y="409" type="line"/>
			<point x="578" y="409" type="line"/>
			<point x="578" y="523" type="line"/>
			<point x="11" y="523" type="line"/>
			<point x="11" y="409" type="line"/>
			<point x="85" y="409" type="line"/>
		</contour>
	</outline>
</glyph>
<glyph name="endash" format="2">
	<unicode hex="2013"/>
	<advance width="600"/>
	<outline>
		<contour>
			<point x="540" y="360" type="line"/>
			<point x="60" y="360" type="line"/>
			<point x="60" y="227" type="line"/>
			<point x="540" y="227" type="line"/>
		</contour>
	</outline>
</glyph>
<glyph name="quoteright" format="2">
	<unicode hex="2019"/>
	<advance width="600"/>
	<outline>
		<contour>
			<point x="245" y="750" type="line"/>
			<point x="200" y="445" type="line"/>
			<point x="296" y="445" type="line"/>
			<point x="412" y="750" type="line"/>
		</contour>
	</outline>
</glyph>
<glyph name="quotedblleft" format="2">
	<unicode hex="201C"/>
	<advance width="600"/>
	<outline>
		<contour>
			<point x="454" y="445" type="line"/>
			<point x="498" y="750" type="line"/>
			<point x="404" y="750" type="line"/>
			<point x="291" y="445" type="line"/>
		</contour>
		<contour>
			<point x="237" y="445" type="line"/>
			<point x="281" y="750" type="line"/>
			<point x="186" y="750" type="line"/>
			<point x="72" y="445" type="line"/>
		</contour>
	</outline>
</glyph>
<glyph name="quotedblright" format="2">
	<unicode hex="201D"/>
	<advance width="600"/>
	<outline>
		<contour>
			<point x="146" y="750" type="line"/>
			<point x="102" y="445" type="line"/>
			<point x="195" y="445" type="line"/>
			<point x="309" y="750" type="line"/>
		</contour>
		<contour>
			<point x="364" y="750" type="line"/>
			<point x="319" y="445" type="line"/>
			<point x="414" y="445" type="line"/>
			<point x="527" y="750" type="line"/>
		</contour>
	</outline>
</glyph>
<glyph name="perthousand" format="2">
	<unicode hex="2030"/>
	<advance width="600"/>
	<outline>
		<contour>
			<point x="151" y="393" type="curve" smooth="yes"/>
			<point x="236" y="393"/>
			<point x="291" y="441"/>
			<point x="291" y="542" type="curve" smooth="yes"/>
			<point x="291" y="643"/>
			<point x="237" y="691"/>
			<point x="152" y="691" type="curve" smooth="yes"/>
			<point x="69" y="691"/>
			<point x="11" y="643"/>
			<point x="11" y="542" type="curve" smooth="yes"/>
			<point x="11" y="441"/>
			<point x="67" y="393"/>
		</contour>
		<contour>
			<point x="151" y="464" type="curve" smooth="yes"/>
			<point x="116" y="464"/>
			<point x="101" y="489"/>
			<point x="101" y="542" type="curve" smooth="yes"/>
			<point x="101" y="594"/>
			<point x="116" y="621"/>
			<point x="152" y="621" type="curve" smooth="yes"/>
			<point x="187" y="621"/>
			<point x="202" y="594"/>
			<point x="202" y="542" type="curve" smooth="yes"/>
			<point x="202" y="489"/>
			<point x="187" y="464"/>
		</contour>
		<contour>
			<point x="18" y="261" type="line"/>
			<point x="574" y="400" type="line"/>
			<point x="574" y="469" type="line"/>
			<point x="18" y="329" type="line"/>
		</contour>
		<contour>
			<point x="255" y="-7" type="curve" smooth="yes"/>
			<point x="296" y="-7"/>
			<point x="329" y="5"/>
			<point x="353" y="26" type="curve"/>
			<point x="377" y="5"/>
			<point x="411" y="-7"/>
			<point x="451" y="-7" type="curve" smooth="yes"/>
			<point x="534" y="-7"/>
			<point x="589" y="41"/>
			<point x="589" y="142" type="curve" smooth="yes"/>
			<point x="589" y="243"/>
			<point x="534" y="291"/>
			<point x="452" y="291" type="curve" smooth="yes"/>
			<point x="411" y="291"/>
			<point x="378" y="278"/>
			<point x="354" y="257" type="curve"/>
			<point x="330" y="277"/>
			<point x="297" y="291"/>
			<point x="254" y="291" type="curve" smooth="yes"/>
			<point x="174" y="291"/>
			<point x="117" y="243"/>
			<point x="117" y="142" type="curve" smooth="yes"/>
			<point x="117" y="41"/>
			<point x="172" y="-7"/>
		</contour>
		<contour>
			<point x="258" y="64" type="curve" smooth="yes"/>
			<point x="222" y="64"/>
			<point x="207" y="89"/>
			<point x="207" y="142" type="curve" smooth="yes"/>
			<point x="207" y="194"/>
			<point x="223" y="221"/>
			<point x="258" y="221" type="curve" smooth="yes"/>
			<point x="293" y="221"/>
			<point x="309" y="194"/>
			<point x="309" y="142" type="curve" smooth="yes"/>
			<point x="309" y="89"/>
			<point x="293" y="64"/>
		</contour>
		<contour>
			<point x="449" y="64" type="curve" smooth="yes"/>
			<point x="414" y="64"/>
			<point x="399" y="89"/>
			<point x="399" y="142" type="curve" smooth="yes"/>
			<point x="399" y="194"/>
			<point x="414" y="221"/>
			<point x="449" y="221" type="curve" smooth="yes"/>
			<point x="485" y="221"/>
			<point x="500" y="194"/>
			<point x="500" y="142" type="curve" smooth="yes"/>
			<point x="500" y="89"/>
			<point x="485" y="64"/>
		</contour>
	</outline>
</glyph>
<glyph name="guilsinglleft" format="2">
	<unicode hex="2039"/>
	<advance width="600"/>
	<outline>
		<contour>
			<point x="305" y="77" type="line"/>
			<point x="485" y="77" type="line"/>
			<point x="282" y="290" type="line"/>
			<point x="485" y="497" type="line"/>
			<point x="307" y="497" type="line"/>
			<point x="103" y="287" type="line"/>
		</contour>
	</outline>
</glyph>
<glyph name="fraction" format="2">
	<unicode hex="2044"/>
	<advance width="600"/>
	<outline>
		<contour>
			<point x="378" y="412" type="line"/>
			<point x="479" y="412" type="line"/>
			<point x="577" y="684" type="line"/>
			<point x="454" y="684" type="line"/>
		</contour>
		<contour>
			<point x="23" y="0" type="line"/>
			<point x="146" y="0" type="line"/>
			<point x="223" y="273" type="line"/>
			<point x="121" y="273" type="line"/>
		</contour>
	</outline>
</glyph>
<glyph name="published" format="2">
	<unicode hex="2117"/>
	<advance width="600"/>
	<outline>
		<contour>
			<point x="300" y="103" type="curve" smooth="yes"/>
			<point x="446" y="103"/>
			<point x="564" y="197"/>
			<point x="564" y="373" type="curve" smooth="yes"/>
			<point x="564" y="387" type="line" smooth="yes"/>
			<point x="564" y="561"/>
			<point x="445" y="657"/>
			<point x="300" y="657" type="curve" smooth="yes"/>
			<point x="155" y="657"/>
			<point x="36" y="561"/>
			<point x="36" y="387" type="curve" smooth="yes"/>
			<point x="36" y="373" type="line" smooth="yes"/>
			<point x="36" y="197"/>
			<point x="154" y="103"/>
		</contour>
		<contour>
			<point x="300" y="166" type="curve" smooth="yes"/>
			<point x="177" y="166"/>
			<point x="102" y="243"/>
			<point x="102" y="376" type="curve" smooth="yes"/>
			<point x="102" y="383" type="line" smooth="yes"/>
			<point x="102" y="519"/>
			<point x="179" y="593"/>
			<point x="300" y="593" type="curve" smooth="yes"/>
			<point x="421" y="593"/>
			<point x="498" y="518"/>
			<point x="498" y="384" type="curve" smooth="yes"/>
			<point x="498" y="376" type="line" smooth="yes"/>
			<point x="498" y="241"/>
			<point x="423" y="166"/>
		</contour>
		<contour>
			<point x="206" y="250" type="line"/>
			<point x="272" y="250" type="line"/>
			<point x="272" y="326" type="line"/>
			<point x="317" y="326" type="line" smooth="yes"/>
			<point x="379" y="326"/>
			<point x="421" y="361"/>
			<point x="421" y="421" type="curve" smooth="yes"/>
			<point x="421" y="477"/>
			<point x="386" y="511"/>
			<point x="318" y="511" type="curve" smooth="yes"/>
			<point x="206" y="511" type="line"/>
		</contour>
		<contour>
			<point x="312" y="461" type="line" smooth="yes"/>
			<point x="337" y="461"/>
			<point x="355" y="445"/>
			<point x="355" y="420" type="curve" smooth="yes"/>
			<point x="355" y="395"/>
			<point x="338" y="377"/>
			<point x="312" y="377" type="curve" smooth="yes"/>
			<point x="272" y="377" type="line"/>
			<point x="272" y="461" type="line"/>
		</contour>
	</outline>
</glyph>
<glyph name="servicemark" format="2">
	<unicode hex="2120"/>
	<advance width="600"/>
	<outline>
		<contour>
			<point x="134" y="337" type="curve" smooth="yes"/>
			<point x="210" y="337"/>
			<point x="256" y="379"/>
			<point x="256" y="453" type="curve" smooth="yes"/>
			<point x="256" y="524"/>
			<point x="203" y="540"/>
			<point x="147" y="552" type="curve" smooth="yes"/>
			<point x="113" y="559"/>
			<point x="92" y="566"/>
			<point x="92" y="591" type="curve" smooth="yes"/>
			<point x="92" y="614"/>
			<point x="109" y="628"/>
			<point x="142" y="628" type="curve" smooth="yes"/>
			<point x="182" y="628"/>
			<point x="224" y="612"/>
			<point x="251" y="592" type="curve"/>
			<point x="251" y="662" type="line"/>
			<point x="231" y="674"/>
			<point x="194" y="689"/>
			<point x="142" y="689" type="curve" smooth="yes"/>
			<point x="65" y="689"/>
			<point x="18" y="647"/>
			<point x="18" y="579" type="curve" smooth="yes"/>
			<point x="18" y="503"/>
			<point x="70" y="490"/>
			<point x="128" y="479" type="curve" smooth="yes"/>
			<point x="167" y="472"/>
			<point x="182" y="463"/>
			<point x="182" y="439" type="curve" smooth="yes"/>
			<point x="182" y="414"/>
			<point x="164" y="399"/>
			<point x="134" y="399" type="curve" smooth="yes"/>
			<point x="99" y="399"/>
			<point x="54" y="415"/>
			<point x="24" y="437" type="curve"/>
			<point x="24" y="368" type="line"/>
			<point x="46" y="354"/>
			<point x="83" y="337"/>
		</contour>
		<contour>
			<point x="291" y="342" type="line"/>
			<point x="357" y="342" type="line"/>
			<point x="357" y="458" type="line" smooth="yes"/>
			<point x="357" y="512"/>
			<point x="353" y="561"/>
			<point x="347" y="609" type="curve"/>
			<point x="353" y="609" type="line"/>
			<point x="399" y="429" type="line"/>
			<point x="459" y="429" type="line"/>
			<point x="506" y="609" type="line"/>
			<point x="511" y="609" type="line"/>
			<point x="506" y="560"/>
			<point x="503" y="515"/>
			<point x="503" y="459" type="curve" smooth="yes"/>
			<point x="503" y="342" type="line"/>
			<point x="569" y="342" type="line"/>
			<point x="569" y="684" type="line"/>
			<point x="471" y="684" type="line"/>
			<point x="431" y="505" type="line"/>
			<point x="429" y="505" type="line"/>
			<point x="387" y="684" type="line"/>
			<point x="291" y="684" type="line"/>
		</contour>
	</outline>
</glyph>
<glyph name="trademark" format="2">
	<unicode hex="2122"/>
	<advance width="600"/>
	<outline>
		<contour>
			<point x="291" y="342" type="line"/>
			<point x="357" y="342" type="line"/>
			<point x="357" y="458" type="line" smooth="yes"/>
			<point x="357" y="512"/>
			<point x="353" y="561"/>
			<point x="347" y="609" type="curve"/>
			<point x="353" y="609" type="line"/>
			<point x="399" y="429" type="line"/>
			<point x="459" y="429" type="line"/>
			<point x="506" y="609" type="line"/>
			<point x="511" y="609" type="line"/>
			<point x="506" y="560"/>
			<point x="503" y="515"/>
			<point x="503" y="459" type="curve" smooth="yes"/>
			<point x="503" y="342" type="line"/>
			<point x="569" y="342" type="line"/>
			<point x="569" y="684" type="line"/>
			<point x="471" y="684" type="line"/>
			<point x="431" y="505" type="line"/>
			<point x="429" y="505" type="line"/>
			<point x="387" y="684" type="line"/>
			<point x="291" y="684" type="line"/>
		</contour>
		<contour>
			<point x="98" y="342" type="line"/>
			<point x="176" y="342" type="line"/>
			<point x="176" y="619" type="line"/>
			<point x="261" y="619" type="line"/>
			<point x="261" y="684" type="line"/>
			<point x="12" y="684" type="line"/>
			<point x="12" y="619" type="line"/>
			<point x="98" y="619" type="line"/>
		</contour>
	</outline>
</glyph>
<glyph name="arrowup" format="2">
	<unicode hex="2191"/>
	<advance width="600"/>
	<outline>
		<contour>
			<point x="241" y="0" type="line"/>
			<point x="359" y="0" type="line"/>
			<point x="359" y="499" type="line"/>
			<point x="525" y="332" type="line"/>
			<point x="525" y="479" type="line"/>
			<point x="300" y="703" type="line"/>
			<point x="75" y="477" type="line"/>
			<point x="75" y="332" type="line"/>
			<point x="241" y="501" type="line"/>
		</contour>
	</outline>
</glyph>
<glyph name="arrowright" format="2">
	<unicode hex="2192"/>
	<advance width="600"/>
	<outline>
		<contour>
			<point x="215" y="573" type="line"/>
			<point x="385" y="406" type="line"/>
			<point x="30" y="406" type="line"/>
			<point x="30" y="288" type="line"/>
			<point x="386" y="288" type="line"/>
			<point x="218" y="122" type="line"/>
			<point x="365" y="122" type="line"/>
			<point x="589" y="347" type="line"/>
			<point x="362" y="573" type="line"/>
		</contour>
	</outline>
</glyph>
<glyph name="arrowdown" format="2">
	<unicode hex="2193"/>
	<advance width="600"/>
	<outline>
		<contour>
			<point x="525" y="352" type="line"/>
			<point x="359" y="183" type="line"/>
			<point x="359" y="684" type="line"/>
			<point x="241" y="684" type="line"/>
			<point x="241" y="185" type="line"/>
			<point x="75" y="352" type="line"/>
			<point x="75" y="205" type="line"/>
			<point x="300" y="-19" type="line"/>
			<point x="525" y="207" type="line"/>
		</contour>
	</outline>
</glyph>
<glyph name="uni2199" format="2">
	<unicode hex="2199"/>
	<advance width="600"/>
	<outline>
		<contour>
			<point x="43" y="65" type="line"/>
			<point x="372" y="65" type="line"/>
			<point x="474" y="168" type="line"/>
			<point x="227" y="166" type="line"/>
			<point x="587" y="526" type="line"/>
			<point x="504" y="610" type="line"/>
			<point x="145" y="250" type="line"/>
			<point x="147" y="496" type="line"/>
			<point x="43" y="392" type="line"/>
		</contour>
	</outline>
</glyph>
<glyph name="increment" format="2">
	<unicode hex="2206"/>
	<advance width="600"/>
	<outline>
		<contour>
			<point x="10" y="0" type="line"/>
			<point x="590" y="0" type="line"/>
			<point x="404" y="686" type="line"/>
			<point x="194" y="686" type="line"/>
		</contour>
		<contour>
			<point x="192" y="122" type="line"/>
			<point x="299" y="580" type="line"/>
			<point x="406" y="122" type="line"/>
		</contour>
	</outline>
</glyph>
<glyph name="summation" format="2">
	<unicode hex="2211"/>
	<advance width="600"/>
	<outline>
		<contour>
			<point x="55" y="0" type="line"/>
			<point x="547" y="0" type="line"/>
			<point x="547" y="122" type="line"/>
			<point x="239" y="122" type="line"/>
			<point x="443" y="293" type="line"/>
			<point x="443" y="394" type="line"/>
			<point x="247" y="563" type="line"/>
			<point x="543" y="563" type="line"/>
			<point x="543" y="684" type="line"/>
			<point x="56" y="684" type="line"/>
			<point x="56" y="561" type="line"/>
			<point x="312" y="342" type="line"/>
			<point x="55" y="128" type="line"/>
		</contour>
	</outline>
</glyph>
<glyph name="radical" format="2">
	<unicode hex="221A"/>
	<advance width="600"/>
	<outline>
		<contour>
			<point x="174" y="0" type="line"/>
			<point x="364" y="0" type="line"/>
			<point x="586" y="684" type="line"/>
			<point x="429" y="684" type="line"/>
			<point x="271" y="152" type="line"/>
			<point x="194" y="450" type="line"/>
			<point x="23" y="450" type="line"/>
			<point x="23" y="323" type="line"/>
			<point x="81" y="323" type="line"/>
		</contour>
	</outline>
</glyph>
<glyph name="integral" format="2">
	<unicode hex="222B"/>
	<advance width="600"/>
	<outline>
		<contour>
			<point x="157" y="-204" type="curve" smooth="yes"/>
			<point x="270" y="-204"/>
			<point x="363" y="-157"/>
			<point x="363" y="-8" type="curve" smooth="yes"/>
			<point x="363" y="500" type="line" smooth="yes"/>
			<point x="363" y="561"/>
			<point x="400" y="584"/>
			<point x="451" y="584" type="curve" smooth="yes"/>
			<point x="480" y="584"/>
			<point x="507" y="579"/>
			<point x="524" y="575" type="curve"/>
			<point x="524" y="680" type="line"/>
			<point x="498" y="691"/>
			<point x="463" y="697"/>
			<point x="417" y="697" type="curve" smooth="yes"/>
			<point x="302" y="697"/>
			<point x="217" y="647"/>
			<point x="217" y="506" type="curve" smooth="yes"/>
			<point x="217" y="-3" type="line" smooth="yes"/>
			<point x="217" y="-69"/>
			<point x="189" y="-96"/>
			<point x="124" y="-96" type="curve" smooth="yes"/>
			<point x="101" y="-96"/>
			<point x="79" y="-92"/>
			<point x="54" y="-86" type="curve"/>
			<point x="54" y="-187" type="line"/>
			<point x="77" y="-197"/>
			<point x="116" y="-204"/>
		</contour>
	</outline>
</glyph>
<glyph name="notequal" format="2">
	<unicode hex="2260"/>
	<advance width="600"/>
	<outline>
		<contour>
			<point x="115" y="47" type="line"/>
			<point x="219" y="47" type="line"/>
			<point x="259" y="120" type="line"/>
			<point x="535" y="120" type="line"/>
			<point x="535" y="242" type="line"/>
			<point x="325" y="242" type="line"/>
			<point x="380" y="343" type="line"/>
			<point x="535" y="343" type="line"/>
			<point x="535" y="465" type="line"/>
			<point x="446" y="465" type="line"/>
			<point x="485" y="537" type="line"/>
			<point x="381" y="537" type="line"/>
			<point x="342" y="465" type="line"/>
			<point x="65" y="465" type="line"/>
			<point x="65" y="343" type="line"/>
			<point x="276" y="343" type="line"/>
			<point x="221" y="242" type="line"/>
			<point x="65" y="242" type="line"/>
			<point x="65" y="120" type="line"/>
			<point x="155" y="120" type="line"/>
		</contour>
	</outline>
</glyph>
<glyph name="lessequal" format="2">
	<unicode hex="2264"/>
	<advance width="600"/>
	<outline>
		<contour>
			<point x="535" y="163" type="line"/>
			<point x="535" y="296" type="line"/>
			<point x="181" y="419" type="line"/>
			<point x="535" y="539" type="line"/>
			<point x="535" y="674" type="line"/>
			<point x="65" y="498" type="line"/>
			<point x="65" y="336" type="line"/>
		</contour>
		<contour>
			<point x="65" y="0" type="line"/>
			<point x="535" y="0" type="line"/>
			<point x="535" y="122" type="line"/>
			<point x="65" y="122" type="line"/>
		</contour>
	</outline>
</glyph>
<glyph name="lozenge" format="2">
	<unicode hex="25CA"/>
	<advance width="600"/>
	<outline>
		<contour>
			<point x="205" y="0" type="line"/>
			<point x="394" y="0" type="line"/>
			<point x="584" y="342" type="line"/>
			<point x="394" y="684" type="line"/>
			<point x="205" y="684" type="line"/>
			<point x="16" y="342" type="line"/>
		</contour>
		<contour>
			<point x="173" y="342" type="line"/>
			<point x="299" y="582" type="line"/>
			<point x="427" y="342" type="line"/>
			<point x="300" y="101" type="line"/>
		</contour>
	</outline>
</glyph>
<glyph name="ampersand_ampersand.cLig" format="2">
	<advance width="600"/>
	<outline>
		<contour>
			<point x="-308" y="-14" type="curve" smooth="yes"/>
			<point x="-222" y="-14"/>
			<point x="-152" y="16"/>
			<point x="-95" y="74" type="curve"/>
			<point x="-60" y="19"/>
			<point x="5" y="-14"/>
			<point x="93" y="-14" type="curve" smooth="yes"/>
			<point x="178" y="-14"/>
			<point x="247" y="15"/>
			<point x="301" y="65" type="curve"/>
			<point x="362" y="0" type="line"/>
			<point x="527" y="0" type="line"/>
			<point x="378" y="162" type="line"/>
			<point x="417" y="231"/>
			<point x="442" y="314"/>
			<point x="456" y="404" type="curve"/>
			<point x="334" y="404" type="line"/>
			<point x="325" y="349"/>
			<point x="313" y="297"/>
			<point x="295" y="252" type="curve"/>
			<point x="165" y="394" type="line" smooth="yes"/>
			<point x="129" y="433"/>
			<point x="110" y="463"/>
			<point x="110" y="502" type="curve" smooth="yes"/>
			<point x="110" y="550"/>
			<point x="143" y="580"/>
			<point x="201" y="580" type="curve" smooth="yes"/>
			<point x="249" y="580"/>
			<point x="294" y="561"/>
			<point x="328" y="542" type="curve"/>
			<point x="328" y="667" type="line"/>
			<point x="297" y="683"/>
			<point x="246" y="698"/>
			<point x="189" y="698" type="curve" smooth="yes"/>
			<point x="44" y="698"/>
			<point x="-26" y="612"/>
			<point x="-26" y="508" type="curve" smooth="yes"/>
			<point x="-26" y="468"/>
			<point x="-17" y="435"/>
			<point x="-1" y="404" type="curve"/>
			<point x="-54" y="372"/>
			<point x="-95" y="327"/>
			<point x="-114" y="267" type="curve"/>
			<point x="-234" y="394" type="line" smooth="yes"/>
			<point x="-270" y="432"/>
			<point x="-288" y="463"/>
			<point x="-288" y="502" type="curve" smooth="yes"/>
			<point x="-288" y="550"/>
			<point x="-255" y="580"/>
			<point x="-201" y="580" type="curve" smooth="yes"/>
			<point x="-152" y="580"/>
			<point x="-110" y="561"/>
			<point x="-78" y="543" type="curve"/>
			<point x="-78" y="668" type="line"/>
			<point x="-107" y="683"/>
			<point x="-155" y="698"/>
			<point x="-213" y="698" type="curve" smooth="yes"/>
			<point x="-354" y="698"/>
			<point x="-424" y="612"/>
			<point x="-424" y="508" type="curve" smooth="yes"/>
			<point x="-424" y="467"/>
			<point x="-415" y="433"/>
			<point x="-399" y="401" type="curve"/>
			<point x="-472" y="357"/>
			<point x="-521" y="285"/>
			<point x="-521" y="186" type="curve" smooth="yes"/>
			<point x="-521" y="64"/>
			<point x="-441" y="-14"/>
		</contour>
		<contour>
			<point x="1" y="206" type="curve" smooth="yes"/>
			<point x="1" y="256"/>
			<point x="26" y="295"/>
			<point x="65" y="317" type="curve"/>
			<point x="227" y="144" type="line"/>
			<point x="197" y="115"/>
			<point x="161" y="98"/>
			<point x="117" y="98" type="curve" smooth="yes"/>
			<point x="44" y="98"/>
			<point x="1" y="144"/>
		</contour>
		<contour>
			<point x="-393" y="206" type="curve" smooth="yes"/>
			<point x="-393" y="255"/>
			<point x="-369" y="293"/>
			<point x="-332" y="316" type="curve"/>
			<point x="-170" y="152" type="line"/>
			<point x="-200" y="118"/>
			<point x="-238" y="98"/>
			<point x="-284" y="98" type="curve" smooth="yes"/>
			<point x="-353" y="98"/>
			<point x="-393" y="141"/>
		</contour>
	</outline>
</glyph>
<glyph name="asciitilde_asciitilde_asciitilde.rem" format="2">
	<advance width="600"/>
	<outline>
		<contour>
			<point x="-607" y="187" type="curve"/>
			<point x="-498" y="187"/>
			<point x="-481" y="308"/>
			<point x="-407" y="308" type="curve" smooth="yes"/>
			<point x="-334" y="308"/>
			<point x="-304" y="187"/>
			<point x="-194" y="187" type="curve" smooth="yes"/>
			<point x="-81" y="187"/>
			<point x="-66" y="308"/>
			<point x="7" y="308" type="curve"/>
			<point x="83" y="308"/>
			<point x="112" y="187"/>
			<point x="229" y="187" type="curve"/>
			<point x="328" y="187"/>
			<point x="403" y="271"/>
			<point x="420" y="435" type="curve"/>
			<point x="303" y="435" type="line"/>
			<point x="293" y="369"/>
			<point x="268" y="324"/>
			<point x="214" y="324" type="curve"/>
			<point x="142" y="324"/>
			<point x="129" y="443"/>
			<point x="10" y="443" type="curve"/>
			<point x="-108" y="443"/>
			<point x="-125" y="325"/>
			<point x="-194" y="325" type="curve" smooth="yes"/>
			<point x="-270" y="325"/>
			<point x="-281" y="443"/>
			<point x="-404" y="443" type="curve" smooth="yes"/>
			<point x="-523" y="443"/>
			<point x="-537" y="325"/>
			<point x="-605" y="325" type="curve"/>
			<point x="-682" y="325"/>
			<point x="-709" y="443"/>
			<point x="-821" y="443" type="curve" smooth="yes"/>
			<point x="-928" y="443"/>
			<point x="-1003" y="362"/>
			<point x="-1020" y="195" type="curve"/>
			<point x="-901" y="195" type="line"/>
			<point x="-892" y="264"/>
			<point x="-871" y="308"/>
			<point x="-817" y="308" type="curve" smooth="yes"/>
			<point x="-741" y="308"/>
			<point x="-722" y="187"/>
		</contour>
	</outline>
</glyph>
<glyph name="asciitilde_greater.cLig" format="2">
	<advance width="600"/>
	<outline>
		<contour>
			<point x="73" y="629" type="line"/>
			<point x="297" y="380" type="line"/>
			<point x="-101" y="380" type="line"/>
			<point x="-106" y="339"/>
			<point x="-124" y="313"/>
			<point x="-156" y="313" type="curve" smooth="yes"/>
			<point x="-217" y="313"/>
			<point x="-249" y="433"/>
			<point x="-362" y="433" type="curve" smooth="yes"/>
			<point x="-454" y="433"/>
			<point x="-507" y="371"/>
			<point x="-507" y="197" type="curve"/>
			<point x="-395" y="197" type="line"/>
			<point x="-395" y="267"/>
			<point x="-381" y="299"/>
			<point x="-343" y="299" type="curve"/>
			<point x="-284" y="299"/>
			<point x="-243" y="180"/>
			<point x="-139" y="180" type="curve" smooth="yes"/>
			<point x="-87" y="180"/>
			<point x="-49" y="202"/>
			<point x="-26" y="248" type="curve"/>
			<point x="298" y="248" type="line"/>
			<point x="76" y="0" type="line"/>
			<point x="244" y="0" type="line"/>
			<point x="515" y="314" type="line"/>
			<point x="241" y="629" type="line"/>
		</contour>
	</outline>
</glyph>
<glyph name="asciitilde_hyphen.cLig" format="2">
	<advance width="600"/>
	<outline>
		<contour>
			<point x="425" y="373" type="line"/>
			<point x="-9" y="373" type="line"/>
			<point x="-14" y="332"/>
			<point x="-32" y="306"/>
			<point x="-64" y="306" type="curve" smooth="yes"/>
			<point x="-125" y="306"/>
			<point x="-157" y="426"/>
			<point x="-270" y="426" type="curve" smooth="yes"/>
			<point x="-362" y="426"/>
			<point x="-415" y="364"/>
			<point x="-415" y="190" type="curve"/>
			<point x="-303" y="190" type="line"/>
			<point x="-303" y="260"/>
			<point x="-289" y="292"/>
			<point x="-251" y="292" type="curve"/>
			<point x="-192" y="292"/>
			<point x="-151" y="173"/>
			<point x="-47" y="173" type="curve" smooth="yes"/>
			<point x="5" y="173"/>
			<point x="43" y="195"/>
			<point x="66" y="241" type="curve"/>
			<point x="425" y="241" type="line"/>
		</contour>
	</outline>
</glyph>
<glyph name="aster_comp" format="2">
	<advance width="600"/>
	<outline>
		<contour>
			<point x="242" y="527" type="curve" smooth="yes"/>
			<point x="201" y="312" type="line"/>
			<point x="332" y="312" type="line"/>
			<point x="291" y="527" type="line" smooth="yes"/>
			<point x="289" y="540"/>
			<point x="283" y="547"/>
			<point x="276" y="550" type="curve"/>
			<point x="283" y="553"/>
			<point x="289" y="560"/>
			<point x="291" y="573" type="curve" smooth="yes"/>
			<point x="332" y="788" type="line"/>
			<point x="201" y="788" type="line"/>
			<point x="242" y="573" type="line" smooth="yes"/>
			<point x="244" y="560"/>
			<point x="250" y="553"/>
			<point x="258" y="550" type="curve"/>
			<point x="250" y="547"/>
			<point x="244" y="540"/>
		</contour>
	</outline>
</glyph>
<glyph name="asterisk_asterisk.cLig" format="2">
	<advance width="600"/>
	<outline>
		<contour>
			<point x="-97" y="139" type="line"/>
			<point x="-29" y="257" type="line"/>
			<point x="-213" y="321" type="line"/>
			<point x="-28" y="385" type="line"/>
			<point x="-95" y="503" type="line"/>
			<point x="-244" y="375" type="line"/>
			<point x="-207" y="567" type="line"/>
			<point x="-343" y="567" type="line"/>
			<point x="-306" y="374" type="line"/>
			<point x="-456" y="503" type="line"/>
			<point x="-524" y="386" type="line"/>
			<point x="-338" y="321" type="line"/>
			<point x="-522" y="257" type="line"/>
			<point x="-455" y="140" type="line"/>
			<point x="-306" y="268" type="line"/>
			<point x="-343" y="75" type="line"/>
			<point x="-207" y="75" type="line"/>
			<point x="-244" y="266" type="line"/>
		</contour>
		<contour>
			<point x="456" y="138" type="line"/>
			<point x="524" y="256" type="line"/>
			<point x="340" y="320" type="line"/>
			<point x="525" y="384" type="line"/>
			<point x="458" y="502" type="line"/>
			<point x="309" y="374" type="line"/>
			<point x="346" y="566" type="line"/>
			<point x="210" y="566" type="line"/>
			<point x="247" y="373" type="line"/>
			<point x="97" y="502" type="line"/>
			<point x="29" y="385" type="line"/>
			<point x="215" y="320" type="line"/>
			<point x="31" y="256" type="line"/>
			<point x="98" y="139" type="line"/>
			<point x="247" y="267" type="line"/>
			<point x="210" y="74" type="line"/>
			<point x="346" y="74" type="line"/>
			<point x="309" y="265" type="line"/>
		</contour>
	</outline>
</glyph>
<glyph name="asterisk_asterisk_asterisk.cLig" format="2">
	<advance width="600"/>
	<outline>
		<contour>
			<point x="-121" y="255" type="line"/>
			<point x="-53" y="373" type="line"/>
			<point x="-237" y="437" type="line"/>
			<point x="-52" y="501" type="line"/>
			<point x="-119" y="619" type="line"/>
			<point x="-268" y="491" type="line"/>
			<point x="-231" y="683" type="line"/>
			<point x="-367" y="683" type="line"/>
			<point x="-330" y="490" type="line"/>
			<point x="-480" y="619" type="line"/>
			<point x="-548" y="502" type="line"/>
			<point x="-362" y="437" type="line"/>
			<point x="-546" y="373" type="line"/>
			<point x="-479" y="256" type="line"/>
			<point x="-330" y="384" type="line"/>
			<point x="-367" y="191" type="line"/>
			<point x="-231" y="191" type="line"/>
			<point x="-268" y="382" type="line"/>
		</contour>
		<contour>
			<point x="-674" y="65" type="line"/>
			<point x="-606" y="183" type="line"/>
			<point x="-790" y="247" type="line"/>
			<point x="-605" y="311" type="line"/>
			<point x="-672" y="429" type="line"/>
			<point x="-821" y="301" type="line"/>
			<point x="-784" y="493" type="line"/>
			<point x="-920" y="493" type="line"/>
			<point x="-883" y="300" type="line"/>
			<point x="-1033" y="429" type="line"/>
			<point x="-1101" y="312" type="line"/>
			<point x="-915" y="247" type="line"/>
			<point x="-1099" y="183" type="line"/>
			<point x="-1032" y="66" type="line"/>
			<point x="-883" y="194" type="line"/>
			<point x="-920" y="1" type="line"/>
			<point x="-784" y="1" type="line"/>
			<point x="-821" y="192" type="line"/>
		</contour>
		<contour>
			<point x="432" y="64" type="line"/>
			<point x="500" y="182" type="line"/>
			<point x="316" y="246" type="line"/>
			<point x="501" y="310" type="line"/>
			<point x="434" y="428" type="line"/>
			<point x="285" y="300" type="line"/>
			<point x="322" y="492" type="line"/>
			<point x="186" y="492" type="line"/>
			<point x="223" y="299" type="line"/>
			<point x="73" y="428" type="line"/>
			<point x="5" y="311" type="line"/>
			<point x="191" y="246" type="line"/>
			<point x="7" y="182" type="line"/>
			<point x="74" y="65" type="line"/>
			<point x="223" y="193" type="line"/>
			<point x="186" y="0" type="line"/>
			<point x="322" y="0" type="line"/>
			<point x="285" y="191" type="line"/>
		</contour>
	</outline>
</glyph>
<glyph name="asterisk_asterisk_slash.rem" format="2">
	<advance width="600"/>
	<outline>
		<contour>
			<point x="346" y="792" type="line"/>
			<point x="-1" y="-163" type="line"/>
			<point x="143" y="-163" type="line"/>
			<point x="491" y="792" type="line"/>
		</contour>
		<contour>
			<point x="-651" y="139" type="line"/>
			<point x="-583" y="257" type="line"/>
			<point x="-767" y="321" type="line"/>
			<point x="-582" y="385" type="line"/>
			<point x="-649" y="503" type="line"/>
			<point x="-798" y="375" type="line"/>
			<point x="-761" y="567" type="line"/>
			<point x="-897" y="567" type="line"/>
			<point x="-860" y="374" type="line"/>
			<point x="-1010" y="503" type="line"/>
			<point x="-1078" y="386" type="line"/>
			<point x="-892" y="321" type="line"/>
			<point x="-1076" y="257" type="line"/>
			<point x="-1009" y="140" type="line"/>
			<point x="-860" y="268" type="line"/>
			<point x="-897" y="75" type="line"/>
			<point x="-761" y="75" type="line"/>
			<point x="-798" y="266" type="line"/>
		</contour>
		<contour>
			<point x="-71" y="139" type="line"/>
			<point x="-3" y="257" type="line"/>
			<point x="-187" y="321" type="line"/>
			<point x="-2" y="385" type="line"/>
			<point x="-69" y="503" type="line"/>
			<point x="-218" y="375" type="line"/>
			<point x="-181" y="567" type="line"/>
			<point x="-317" y="567" type="line"/>
			<point x="-280" y="374" type="line"/>
			<point x="-430" y="503" type="line"/>
			<point x="-498" y="386" type="line"/>
			<point x="-312" y="321" type="line"/>
			<point x="-496" y="257" type="line"/>
			<point x="-429" y="140" type="line"/>
			<point x="-280" y="268" type="line"/>
			<point x="-317" y="75" type="line"/>
			<point x="-181" y="75" type="line"/>
			<point x="-218" y="266" type="line"/>
		</contour>
	</outline>
</glyph>
<glyph name="bar_bar_bar_greater.cLig" format="2">
	<advance width="600"/>
	<outline>
		<contour>
			<point x="-897" y="-79" type="line"/>
			<point x="-759" y="-79" type="line"/>
			<point x="-759" y="708" type="line"/>
			<point x="-897" y="708" type="line"/>
		</contour>
		<contour>
			<point x="-1463" y="-79" type="line"/>
			<point x="-1326" y="-79" type="line"/>
			<point x="-1326" y="708" type="line"/>
			<point x="-1463" y="708" type="line"/>
		</contour>
		<contour>
			<point x="-330" y="-79" type="line"/>
			<point x="-193" y="-79" type="line"/>
			<point x="329" y="233" type="line"/>
			<point x="329" y="396" type="line"/>
			<point x="-193" y="708" type="line"/>
			<point x="-330" y="708" type="line"/>
		</contour>
		<contour>
			<point x="-193" y="552" type="line"/>
			<point x="212" y="316" type="line"/>
			<point x="-193" y="76" type="line"/>
		</contour>
	</outline>
</glyph>
<glyph name="bar_bar_equal.fina" format="2">
	<advance width="600"/>
	<outline>
		<contour>
			<point x="-600" y="141" type="line"/>
			<point x="-139" y="141" type="line"/>
			<point x="-139" y="-55" type="line"/>
			<point x="-1" y="-55" type="line"/>
			<point x="-1" y="684" type="line"/>
			<point x="-139" y="684" type="line"/>
			<point x="-139" y="488" type="line"/>
			<point x="-600" y="488" type="line"/>
			<point x="-600" y="365" type="line"/>
			<point x="-139" y="365" type="line"/>
			<point x="-139" y="264" type="line"/>
			<point x="-600" y="264" type="line"/>
		</contour>
		<contour>
			<point x="241" y="684" type="line"/>
			<point x="241" y="-55" type="line"/>
			<point x="379" y="-55" type="line"/>
			<point x="379" y="684" type="line"/>
		</contour>
	</outline>
</glyph>
<glyph name="bar_bar_greater.cLig" format="2">
	<advance width="600"/>
	<outline>
		<contour>
			<point x="-877" y="708" type="line"/>
			<point x="-877" y="-79" type="line"/>
			<point x="-739" y="-79" type="line"/>
			<point x="-739" y="708" type="line"/>
		</contour>
		<contour>
			<point x="-317" y="-79" type="line"/>
			<point x="-179" y="-79" type="line"/>
			<point x="343" y="233" type="line"/>
			<point x="343" y="396" type="line"/>
			<point x="-179" y="708" type="line"/>
			<point x="-317" y="708" type="line"/>
		</contour>
		<contour>
			<point x="-179" y="552" type="line"/>
			<point x="225" y="316" type="line"/>
			<point x="-179" y="76" type="line"/>
		</contour>
	</outline>
</glyph>
<glyph name="bar_bracketright.cLig" format="2">
	<advance width="600"/>
	<outline>
		<contour>
			<point x="-78" y="686" type="line"/>
			<point x="252" y="686" type="line"/>
			<point x="252" y="-57" type="line"/>
			<point x="-78" y="-57" type="line"/>
			<point x="-78" y="-163" type="line"/>
			<point x="390" y="-163" type="line"/>
			<point x="390" y="792" type="line"/>
			<point x="-78" y="792" type="line"/>
		</contour>
		<contour>
			<point x="-235" y="-163" type="line"/>
			<point x="-235" y="792" type="line"/>
			<point x="-371" y="792" type="line"/>
			<point x="-371" y="-163" type="line"/>
		</contour>
	</outline>
</glyph>
<glyph name="bar_equal.med" format="2">
	<advance width="600"/>
	<outline>
		<contour>
			<point x="0" y="141" type="line"/>
			<point x="231" y="141" type="line"/>
			<point x="231" y="-55" type="line"/>
			<point x="369" y="-55" type="line"/>
			<point x="369" y="141" type="line"/>
			<point x="600" y="141" type="line"/>
			<point x="600" y="264" type="line"/>
			<point x="369" y="264" type="line"/>
			<point x="369" y="365" type="line"/>
			<point x="600" y="365" type="line"/>
			<point x="600" y="488" type="line"/>
			<point x="369" y="488" type="line"/>
			<point x="369" y="684" type="line"/>
			<point x="231" y="684" type="line"/>
			<point x="231" y="488" type="line"/>
			<point x="0" y="488" type="line"/>
			<point x="0" y="365" type="line"/>
			<point x="231" y="365" type="line"/>
			<point x="231" y="264" type="line"/>
			<point x="0" y="264" type="line"/>
		</contour>
	</outline>
</glyph>
<glyph name="bar_equal_greater.rem" format="2">
	<advance width="600"/>
	<outline>
		<contour>
			<point x="-1040" y="629" type="line"/>
			<point x="-1040" y="0" type="line"/>
			<point x="-903" y="0" type="line"/>
			<point x="-903" y="141" type="line"/>
			<point x="167" y="141" type="line"/>
			<point x="49" y="0" type="line"/>
			<point x="216" y="0" type="line"/>
			<point x="480" y="314" type="line"/>
			<point x="213" y="629" type="line"/>
			<point x="46" y="629" type="line"/>
			<point x="166" y="488" type="line"/>
			<point x="-903" y="488" type="line"/>
			<point x="-903" y="629" type="line"/>
		</contour>
		<contour>
			<point x="313" y="316" type="line"/>
			<point x="270" y="264" type="line"/>
			<point x="-903" y="264" type="line"/>
			<point x="-903" y="365" type="line"/>
			<point x="272" y="365" type="line"/>
		</contour>
	</outline>
</glyph>
<glyph name="bar_hyphen.init" format="2">
	<advance width="600"/>
	<outline>
		<contour>
			<point x="121" y="-55" type="line"/>
			<point x="259" y="-55" type="line"/>
			<point x="259" y="248" type="line"/>
			<point x="600" y="248" type="line"/>
			<point x="600" y="380" type="line"/>
			<point x="259" y="380" type="line"/>
			<point x="259" y="684" type="line"/>
			<point x="121" y="684" type="line"/>
		</contour>
	</outline>
</glyph>
<glyph name="bar_hyphen.med" format="2">
	<advance width="600"/>
	<outline>
		<contour>
			<point x="231" y="-55" type="line"/>
			<point x="369" y="-55" type="line"/>
			<point x="369" y="248" type="line"/>
			<point x="600" y="248" type="line"/>
			<point x="600" y="380" type="line"/>
			<point x="369" y="380" type="line"/>
			<point x="369" y="684" type="line"/>
			<point x="231" y="684" type="line"/>
			<point x="231" y="380" type="line"/>
			<point x="0" y="380" type="line"/>
			<point x="0" y="248" type="line"/>
			<point x="231" y="248" type="line"/>
		</contour>
	</outline>
</glyph>
<glyph name="braceleft_braceleft_numbersign.cLig" format="2">
	<advance width="600"/>
	<outline>
		<contour>
			<point x="-605" y="-163" type="line"/>
			<point x="-605" y="-57" type="line"/>
			<point x="-743" y="-57" type="line" smooth="yes"/>
			<point x="-795" y="-57"/>
			<point x="-820" y="-30"/>
			<point x="-820" y="5" type="curve"/>
			<point x="-820" y="78"/>
			<point x="-735" y="119"/>
			<point x="-735" y="208" type="curve" smooth="yes"/>
			<point x="-735" y="262"/>
			<point x="-786" y="304"/>
			<point x="-862" y="315" type="curve"/>
			<point x="-783" y="327"/>
			<point x="-734" y="372"/>
			<point x="-734" y="427" type="curve" smooth="yes"/>
			<point x="-734" y="512"/>
			<point x="-820" y="559"/>
			<point x="-820" y="621" type="curve" smooth="yes"/>
			<point x="-820" y="660"/>
			<point x="-794" y="684"/>
			<point x="-738" y="684" type="curve" smooth="yes"/>
			<point x="-418" y="684" type="line"/>
			<point x="-479" y="668"/>
			<point x="-501" y="629"/>
			<point x="-501" y="592" type="curve" smooth="yes"/>
			<point x="-501" y="520"/>
			<point x="-422" y="482"/>
			<point x="-422" y="428" type="curve" smooth="yes"/>
			<point x="-422" y="401"/>
			<point x="-441" y="374"/>
			<point x="-492" y="374" type="curve" smooth="yes"/>
			<point x="-578" y="374" type="line"/>
			<point x="-578" y="253" type="line"/>
			<point x="-492" y="253" type="line" smooth="yes"/>
			<point x="-430" y="253"/>
			<point x="-414" y="221"/>
			<point x="-414" y="193" type="curve" smooth="yes"/>
			<point x="-414" y="120"/>
			<point x="-500" y="73"/>
			<point x="-500" y="-18" type="curve"/>
			<point x="-500" y="-99"/>
			<point x="-446" y="-163"/>
			<point x="-327" y="-163" type="curve" smooth="yes"/>
			<point x="-131" y="-163" type="line"/>
			<point x="-131" y="-57" type="line"/>
			<point x="-272" y="-57" type="line" smooth="yes"/>
			<point x="-324" y="-57"/>
			<point x="-349" y="-35"/>
			<point x="-349" y="4" type="curve"/>
			<point x="-349" y="67"/>
			<point x="-266" y="115"/>
			<point x="-266" y="201" type="curve" smooth="yes"/>
			<point x="-266" y="260"/>
			<point x="-316" y="302"/>
			<point x="-388" y="315" type="curve"/>
			<point x="-319" y="330"/>
			<point x="-264" y="369"/>
			<point x="-264" y="427" type="curve" smooth="yes"/>
			<point x="-264" y="511"/>
			<point x="-350" y="559"/>
			<point x="-350" y="621" type="curve" smooth="yes"/>
			<point x="-350" y="660"/>
			<point x="-321" y="684"/>
			<point x="-264" y="684" type="curve" smooth="yes"/>
			<point x="-108" y="684" type="line"/>
			<point x="-108" y="791" type="line"/>
			<point x="-798" y="791" type="line" smooth="yes"/>
			<point x="-910" y="791"/>
			<point x="-971" y="719"/>
			<point x="-971" y="644" type="curve" smooth="yes"/>
			<point x="-971" y="548"/>
			<point x="-886" y="499"/>
			<point x="-886" y="435" type="curve" smooth="yes"/>
			<point x="-886" y="407"/>
			<point x="-905" y="374"/>
			<point x="-956" y="374" type="curve" smooth="yes"/>
			<point x="-1043" y="374" type="line"/>
			<point x="-1043" y="253" type="line"/>
			<point x="-956" y="253" type="line" smooth="yes"/>
			<point x="-905" y="253"/>
			<point x="-886" y="221"/>
			<point x="-886" y="193" type="curve" smooth="yes"/>
			<point x="-886" y="125"/>
			<point x="-971" y="82"/>
			<point x="-971" y="-18" type="curve"/>
			<point x="-971" y="-100"/>
			<point x="-911" y="-163"/>
			<point x="-798" y="-163" type="curve" smooth="yes"/>
		</contour>
		<contour>
			<point x="-122" y="267" type="line"/>
			<point x="-122" y="157" type="line"/>
			<point x="-11" y="157" type="line"/>
			<point x="-26" y="0" type="line"/>
			<point x="87" y="0" type="line"/>
			<point x="102" y="157" type="line"/>
			<point x="214" y="157" type="line"/>
			<point x="199" y="0" type="line"/>
			<point x="311" y="0" type="line"/>
			<point x="325" y="157" type="line"/>
			<point x="429" y="157" type="line"/>
			<point x="429" y="267" type="line"/>
			<point x="336" y="267" type="line"/>
			<point x="351" y="424" type="line"/>
			<point x="453" y="424" type="line"/>
			<point x="453" y="535" type="line"/>
			<point x="362" y="535" type="line"/>
			<point x="376" y="684" type="line"/>
			<point x="264" y="684" type="line"/>
			<point x="250" y="535" type="line"/>
			<point x="138" y="535" type="line"/>
			<point x="151" y="684" type="line"/>
			<point x="40" y="684" type="line"/>
			<point x="25" y="535" type="line"/>
			<point x="-122" y="535" type="line"/>
			<point x="-122" y="424" type="line"/>
			<point x="15" y="424" type="line"/>
			<point x="0" y="267" type="line"/>
		</contour>
		<contour>
			<point x="112" y="267" type="line"/>
			<point x="127" y="424" type="line"/>
			<point x="239" y="424" type="line"/>
			<point x="224" y="267" type="line"/>
		</contour>
	</outline>
</glyph>
<glyph name="braceright_numbersign.cLig" format="2">
	<advance width="600"/>
	<outline>
		<contour>
			<point x="-513" y="-163" type="line"/>
			<point x="-337" y="-163" type="line" smooth="yes"/>
			<point x="-225" y="-163"/>
			<point x="-164" y="-97"/>
			<point x="-164" y="-21" type="curve" smooth="yes"/>
			<point x="-163" y="73"/>
			<point x="-263" y="130"/>
			<point x="-263" y="193" type="curve" smooth="yes"/>
			<point x="-262" y="222"/>
			<point x="-242" y="254"/>
			<point x="-192" y="254" type="curve" smooth="yes"/>
			<point x="-149" y="254" type="line"/>
			<point x="-149" y="378" type="line"/>
			<point x="-191" y="377" type="line" smooth="yes"/>
			<point x="-241" y="378"/>
			<point x="-262" y="412"/>
			<point x="-262" y="439" type="curve" smooth="yes"/>
			<point x="-263" y="501"/>
			<point x="-164" y="558"/>
			<point x="-164" y="652" type="curve" smooth="yes"/>
			<point x="-164" y="728"/>
			<point x="-224" y="791"/>
			<point x="-337" y="791" type="curve" smooth="yes"/>
			<point x="-513" y="791" type="line"/>
			<point x="-513" y="685" type="line"/>
			<point x="-391" y="685" type="line" smooth="yes"/>
			<point x="-341" y="685"/>
			<point x="-315" y="664"/>
			<point x="-315" y="628" type="curve" smooth="yes"/>
			<point x="-314" y="568"/>
			<point x="-413" y="517"/>
			<point x="-413" y="433" type="curve" smooth="yes"/>
			<point x="-413" y="377"/>
			<point x="-361" y="328"/>
			<point x="-286" y="316" type="curve"/>
			<point x="-361" y="304"/>
			<point x="-413" y="255"/>
			<point x="-413" y="199" type="curve" smooth="yes"/>
			<point x="-413" y="114"/>
			<point x="-314" y="62"/>
			<point x="-315" y="0" type="curve" smooth="yes"/>
			<point x="-315" y="-39"/>
			<point x="-341" y="-57"/>
			<point x="-386" y="-57" type="curve" smooth="yes"/>
			<point x="-513" y="-57" type="line"/>
		</contour>
		<contour>
			<point x="-61" y="267" type="line"/>
			<point x="-61" y="157" type="line"/>
			<point x="50" y="157" type="line"/>
			<point x="35" y="0" type="line"/>
			<point x="148" y="0" type="line"/>
			<point x="163" y="157" type="line"/>
			<point x="274" y="157" type="line"/>
			<point x="260" y="0" type="line"/>
			<point x="371" y="0" type="line"/>
			<point x="386" y="157" type="line"/>
			<point x="490" y="157" type="line"/>
			<point x="490" y="267" type="line"/>
			<point x="397" y="267" type="line"/>
			<point x="412" y="424" type="line"/>
			<point x="513" y="424" type="line"/>
			<point x="513" y="535" type="line"/>
			<point x="422" y="535" type="line"/>
			<point x="436" y="684" type="line"/>
			<point x="324" y="684" type="line"/>
			<point x="310" y="535" type="line"/>
			<point x="198" y="535" type="line"/>
			<point x="212" y="684" type="line"/>
			<point x="100" y="684" type="line"/>
			<point x="86" y="535" type="line"/>
			<point x="-61" y="535" type="line"/>
			<point x="-61" y="424" type="line"/>
			<point x="75" y="424" type="line"/>
			<point x="60" y="267" type="line"/>
		</contour>
		<contour>
			<point x="173" y="267" type="line"/>
			<point x="188" y="424" type="line"/>
			<point x="300" y="424" type="line"/>
			<point x="285" y="267" type="line"/>
		</contour>
	</outline>
</glyph>
<glyph name="bracketright_bracketright.cLig" format="2">
	<advance width="600"/>
	<outline>
		<contour>
			<point x="441" y="792" type="line"/>
			<point x="36" y="792" type="line"/>
			<point x="36" y="686" type="line"/>
			<point x="302" y="686" type="line"/>
			<point x="302" y="-57" type="line"/>
			<point x="36" y="-57" type="line"/>
			<point x="36" y="-163" type="line"/>
			<point x="441" y="-163" type="line"/>
		</contour>
		<contour>
			<point x="-44" y="792" type="line"/>
			<point x="-394" y="792" type="line"/>
			<point x="-394" y="686" type="line"/>
			<point x="-182" y="686" type="line"/>
			<point x="-182" y="-57" type="line"/>
			<point x="-394" y="-57" type="line"/>
			<point x="-394" y="-163" type="line"/>
			<point x="-44" y="-163" type="line"/>
		</contour>
	</outline>
</glyph>
<glyph name="caron.cap" format="2">
	<advance width="600"/>
	<outline>
		<contour>
			<point x="495" y="884" type="line"/>
			<point x="369" y="884" type="line"/>
			<point x="300" y="799" type="line"/>
			<point x="231" y="884" type="line"/>
			<point x="104" y="884" type="line"/>
			<point x="222" y="744" type="line"/>
			<point x="377" y="744" type="line"/>
		</contour>
	</outline>
	<anchor name="_top" x="301" y="684"/>
</glyph>
<glyph name="circumflex.cap" format="2">
	<advance width="600"/>
	<outline>
		<contour>
			<point x="104" y="744" type="line"/>
			<point x="231" y="744" type="line"/>
			<point x="299" y="829" type="line"/>
			<point x="368" y="744" type="line"/>
			<point x="495" y="744" type="line"/>
			<point x="377" y="884" type="line"/>
			<point x="222" y="884" type="line"/>
		</contour>
	</outline>
	<anchor name="_top" x="300" y="684"/>
</glyph>
<glyph name="colon_colon.cLig" format="2">
	<advance width="600"/>
	<outline>
		<contour>
			<point x="-218" y="-12" type="curve" smooth="yes"/>
			<point x="-150" y="-12"/>
			<point x="-115" y="14"/>
			<point x="-115" y="82" type="curve" smooth="yes"/>
			<point x="-115" y="149"/>
			<point x="-150" y="174"/>
			<point x="-218" y="174" type="curve" smooth="yes"/>
			<point x="-286" y="174"/>
			<point x="-321" y="149"/>
			<point x="-321" y="82" type="curve" smooth="yes"/>
			<point x="-321" y="14"/>
			<point x="-286" y="-12"/>
		</contour>
		<contour>
			<point x="-218" y="343" type="curve" smooth="yes"/>
			<point x="-150" y="343"/>
			<point x="-115" y="369"/>
			<point x="-115" y="437" type="curve" smooth="yes"/>
			<point x="-115" y="504"/>
			<point x="-150" y="529"/>
			<point x="-218" y="529" type="curve" smooth="yes"/>
			<point x="-286" y="529"/>
			<point x="-321" y="504"/>
			<point x="-321" y="437" type="curve" smooth="yes"/>
			<point x="-321" y="369"/>
			<point x="-286" y="343"/>
		</contour>
		<contour>
			<point x="218" y="-12" type="curve" smooth="yes"/>
			<point x="286" y="-12"/>
			<point x="321" y="14"/>
			<point x="321" y="82" type="curve" smooth="yes"/>
			<point x="321" y="149"/>
			<point x="286" y="174"/>
			<point x="218" y="174" type="curve" smooth="yes"/>
			<point x="150" y="174"/>
			<point x="115" y="149"/>
			<point x="115" y="82" type="curve" smooth="yes"/>
			<point x="115" y="14"/>
			<point x="150" y="-12"/>
		</contour>
		<contour>
			<point x="218" y="343" type="curve" smooth="yes"/>
			<point x="286" y="343"/>
			<point x="321" y="369"/>
			<point x="321" y="437" type="curve" smooth="yes"/>
			<point x="321" y="504"/>
			<point x="286" y="529"/>
			<point x="218" y="529" type="curve" smooth="yes"/>
			<point x="150" y="529"/>
			<point x="115" y="504"/>
			<point x="115" y="437" type="curve" smooth="yes"/>
			<point x="115" y="369"/>
			<point x="150" y="343"/>
		</contour>
	</outline>
</glyph>
<glyph name="colon_colon_equal.cLig" format="2">
	<advance width="600"/>
	<outline>
		<contour>
			<point x="-848" y="43" type="curve" smooth="yes"/>
			<point x="-780" y="43"/>
			<point x="-745" y="69"/>
			<point x="-745" y="137" type="curve" smooth="yes"/>
			<point x="-745" y="204"/>
			<point x="-780" y="229"/>
			<point x="-848" y="229" type="curve" smooth="yes"/>
			<point x="-916" y="229"/>
			<point x="-951" y="204"/>
			<point x="-951" y="137" type="curve" smooth="yes"/>
			<point x="-951" y="69"/>
			<point x="-916" y="43"/>
		</contour>
		<contour>
			<point x="-848" y="336" type="curve" smooth="yes"/>
			<point x="-780" y="336"/>
			<point x="-745" y="362"/>
			<point x="-745" y="430" type="curve" smooth="yes"/>
			<point x="-745" y="497"/>
			<point x="-780" y="522"/>
			<point x="-848" y="522" type="curve" smooth="yes"/>
			<point x="-916" y="522"/>
			<point x="-951" y="497"/>
			<point x="-951" y="430" type="curve" smooth="yes"/>
			<point x="-951" y="362"/>
			<point x="-916" y="336"/>
		</contour>
		<contour>
			<point x="-454" y="43" type="curve" smooth="yes"/>
			<point x="-386" y="43"/>
			<point x="-351" y="69"/>
			<point x="-351" y="137" type="curve" smooth="yes"/>
			<point x="-351" y="204"/>
			<point x="-386" y="229"/>
			<point x="-454" y="229" type="curve" smooth="yes"/>
			<point x="-522" y="229"/>
			<point x="-557" y="204"/>
			<point x="-557" y="137" type="curve" smooth="yes"/>
			<point x="-557" y="69"/>
			<point x="-522" y="43"/>
		</contour>
		<contour>
			<point x="-454" y="336" type="curve" smooth="yes"/>
			<point x="-386" y="336"/>
			<point x="-351" y="362"/>
			<point x="-351" y="430" type="curve" smooth="yes"/>
			<point x="-351" y="497"/>
			<point x="-386" y="522"/>
			<point x="-454" y="522" type="curve" smooth="yes"/>
			<point x="-522" y="522"/>
			<point x="-557" y="497"/>
			<point x="-557" y="430" type="curve" smooth="yes"/>
			<point x="-557" y="362"/>
			<point x="-522" y="336"/>
		</contour>
		<contour>
			<point x="-134.622302155" y="343" type="line"/>
			<point x="374.262589955" y="343" type="line"/>
			<point x="374.262589955" y="465" type="line"/>
			<point x="-134.622302155" y="465" type="line"/>
		</contour>
		<contour>
			<point x="-134.622302155" y="120" type="line"/>
			<point x="374.262589955" y="120" type="line"/>
			<point x="374.262589955" y="242" type="line"/>
			<point x="-134.622302155" y="242" type="line"/>
		</contour>
	</outline>
</glyph>
<glyph name="colon_equal.med" format="2">
	<advance width="600"/>
	<outline>
		<contour>
			<point x="301" y="336" type="curve" smooth="yes"/>
			<point x="369" y="336"/>
			<point x="404" y="362"/>
			<point x="404" y="430" type="curve" smooth="yes"/>
			<point x="404" y="497"/>
			<point x="369" y="522"/>
			<point x="301" y="522" type="curve" smooth="yes"/>
			<point x="233" y="522"/>
			<point x="198" y="497"/>
			<point x="198" y="430" type="curve" smooth="yes"/>
			<point x="198" y="362"/>
			<point x="233" y="336"/>
		</contour>
		<contour>
			<point x="503" y="365" type="line"/>
			<point x="600" y="365" type="line"/>
			<point x="600" y="488" type="line"/>
			<point x="503" y="488" type="line"/>
		</contour>
		<contour>
			<point x="0" y="365" type="line"/>
			<point x="97" y="365" type="line"/>
			<point x="97" y="488" type="line"/>
			<point x="0" y="488" type="line"/>
		</contour>
		<contour>
			<point x="503" y="141" type="line"/>
			<point x="600" y="141" type="line"/>
			<point x="600" y="265" type="line"/>
			<point x="503" y="265" type="line"/>
		</contour>
		<contour>
			<point x="0" y="141" type="line"/>
			<point x="97" y="141" type="line"/>
			<point x="97" y="265" type="line"/>
			<point x="0" y="265" type="line"/>
		</contour>
		<contour>
			<point x="301" y="43" type="curve" smooth="yes"/>
			<point x="369" y="43"/>
			<point x="404" y="69"/>
			<point x="404" y="137" type="curve" smooth="yes"/>
			<point x="404" y="204"/>
			<point x="369" y="229"/>
			<point x="301" y="229" type="curve" smooth="yes"/>
			<point x="233" y="229"/>
			<point x="198" y="204"/>
			<point x="198" y="137" type="curve" smooth="yes"/>
			<point x="198" y="69"/>
			<point x="233" y="43"/>
		</contour>
	</outline>
</glyph>
<glyph name="colon_less.cLig.x" format="2">
	<advance width="600"/>
	<outline>
		<contour>
			<point x="433" y="-10" type="line"/>
			<point x="433" y="132" type="line"/>
			<point x="90" y="316" type="line"/>
			<point x="433" y="496" type="line"/>
			<point x="433" y="641" type="line"/>
			<point x="-16" y="396" type="line"/>
			<point x="-16" y="233" type="line"/>
		</contour>
		<contour>
			<point x="-300" y="392" type="curve" smooth="yes"/>
			<point x="-232" y="392"/>
			<point x="-197" y="418"/>
			<point x="-197" y="486" type="curve" smooth="yes"/>
			<point x="-197" y="553"/>
			<point x="-232" y="578"/>
			<point x="-300" y="578" type="curve" smooth="yes"/>
			<point x="-368" y="578"/>
			<point x="-403" y="553"/>
			<point x="-403" y="486" type="curve" smooth="yes"/>
			<point x="-403" y="418"/>
			<point x="-368" y="392"/>
		</contour>
		<contour>
			<point x="-300" y="37" type="curve" smooth="yes"/>
			<point x="-232" y="37"/>
			<point x="-197" y="63"/>
			<point x="-197" y="131" type="curve" smooth="yes"/>
			<point x="-197" y="198"/>
			<point x="-232" y="223"/>
			<point x="-300" y="223" type="curve" smooth="yes"/>
			<point x="-368" y="223"/>
			<point x="-403" y="198"/>
			<point x="-403" y="131" type="curve" smooth="yes"/>
			<point x="-403" y="63"/>
			<point x="-368" y="37"/>
		</contour>
	</outline>
</glyph>
<glyph name="cordinal" format="2">
	<advance width="600"/>
	<outline>
		<contour>
			<point x="365" y="225" type="curve" smooth="yes"/>
			<point x="414" y="225"/>
			<point x="456" y="235"/>
			<point x="484" y="247" type="curve"/>
			<point x="484" y="339" type="line"/>
			<point x="456" y="328"/>
			<point x="421" y="320"/>
			<point x="381" y="320" type="curve" smooth="yes"/>
			<point x="292" y="320"/>
			<point x="237" y="368"/>
			<point x="237" y="463" type="curve" smooth="yes"/>
			<point x="237" y="557"/>
			<point x="292" y="601"/>
			<point x="379" y="601" type="curve" smooth="yes"/>
			<point x="417" y="601"/>
			<point x="454" y="592"/>
			<point x="484" y="579" type="curve"/>
			<point x="484" y="673" type="line"/>
			<point x="454" y="687"/>
			<point x="413" y="695"/>
			<point x="362" y="695" type="curve" smooth="yes"/>
			<point x="211" y="695"/>
			<point x="112" y="610"/>
			<point x="112" y="461" type="curve" smooth="yes"/>
			<point x="112" y="311"/>
			<point x="209" y="225"/>
		</contour>
	</outline>
</glyph>
<glyph name="dieresis.cap" format="2">
	<advance width="600"/>
	<outline>
		<contour>
			<point x="404" y="875" type="curve" smooth="yes"/>
			<point x="349" y="875"/>
			<point x="330" y="854"/>
			<point x="330" y="810" type="curve" smooth="yes"/>
			<point x="330" y="767"/>
			<point x="348" y="745"/>
			<point x="404" y="745" type="curve" smooth="yes"/>
			<point x="461" y="745"/>
			<point x="480" y="768"/>
			<point x="480" y="810" type="curve" smooth="yes"/>
			<point x="480" y="854"/>
			<point x="461" y="875"/>
		</contour>
		<contour>
			<point x="196" y="745" type="curve" smooth="yes"/>
			<point x="252" y="745"/>
			<point x="270" y="768"/>
			<point x="270" y="810" type="curve" smooth="yes"/>
			<point x="270" y="854"/>
			<point x="252" y="875"/>
			<point x="196" y="875" type="curve" smooth="yes"/>
			<point x="140" y="875"/>
			<point x="120" y="854"/>
			<point x="120" y="810" type="curve" smooth="yes"/>
			<point x="120" y="767"/>
			<point x="139" y="745"/>
		</contour>
	</outline>
	<anchor name="_top" x="300" y="684"/>
</glyph>
<glyph name="equal.den" format="2">
	<advance width="600"/>
	<outline>
		<contour>
			<point x="141" y="300" type="line"/>
			<point x="141" y="220" type="line"/>
			<point x="459" y="220" type="line"/>
			<point x="459" y="300" type="line"/>
		</contour>
		<contour>
			<point x="141" y="159" type="line"/>
			<point x="141" y="80" type="line"/>
			<point x="459" y="80" type="line"/>
			<point x="459" y="159" type="line"/>
		</contour>
	</outline>
</glyph>
<glyph name="equal.fina" format="2">
	<advance width="600"/>
	<outline>
		<contour>
			<point x="0" y="365" type="line"/>
			<point x="440" y="365" type="line"/>
			<point x="440" y="488" type="line"/>
			<point x="0" y="488" type="line"/>
		</contour>
		<contour>
			<point x="0" y="141" type="line"/>
			<point x="440" y="141" type="line"/>
			<point x="440" y="264" type="line"/>
			<point x="0" y="264" type="line"/>
		</contour>
	</outline>
</glyph>
<glyph name="equal.init" format="2">
	<advance width="600"/>
	<outline>
		<contour>
			<point x="160" y="365" type="line"/>
			<point x="600" y="365" type="line"/>
			<point x="600" y="488" type="line"/>
			<point x="160" y="488" type="line"/>
		</contour>
		<contour>
			<point x="160" y="141" type="line"/>
			<point x="600" y="141" type="line"/>
			<point x="600" y="264" type="line"/>
			<point x="160" y="264" type="line"/>
		</contour>
	</outline>
	<guideline x="394.1726618705" y="603.5179856115" angle="270" identifier="c2Y1Sn7BVk"/>
</glyph>
<glyph name="equal_colon_equal.rem" format="2">
	<advance width="600"/>
	<outline>
		<contour>
			<point x="-300" y="43" type="curve" smooth="yes"/>
			<point x="-232" y="43"/>
			<point x="-197" y="69"/>
			<point x="-197" y="137" type="curve" smooth="yes"/>
			<point x="-197" y="204"/>
			<point x="-232" y="229"/>
			<point x="-300" y="229" type="curve" smooth="yes"/>
			<point x="-368" y="229"/>
			<point x="-403" y="204"/>
			<point x="-403" y="137" type="curve" smooth="yes"/>
			<point x="-403" y="69"/>
			<point x="-368" y="43"/>
		</contour>
		<contour>
			<point x="-300" y="336" type="curve" smooth="yes"/>
			<point x="-232" y="336"/>
			<point x="-197" y="362"/>
			<point x="-197" y="430" type="curve" smooth="yes"/>
			<point x="-197" y="497"/>
			<point x="-232" y="522"/>
			<point x="-300" y="522" type="curve" smooth="yes"/>
			<point x="-368" y="522"/>
			<point x="-403" y="497"/>
			<point x="-403" y="430" type="curve" smooth="yes"/>
			<point x="-403" y="362"/>
			<point x="-368" y="336"/>
		</contour>
		<contour>
			<point x="-1040.848920862" y="343" type="line"/>
			<point x="-555.294964018" y="343" type="line"/>
			<point x="-555.294964018" y="465" type="line"/>
			<point x="-1040.848920862" y="465" type="line"/>
		</contour>
		<contour>
			<point x="-1040.848920862" y="120" type="line"/>
			<point x="-555.294964018" y="120" type="line"/>
			<point x="-555.294964018" y="242" type="line"/>
			<point x="-1040.848920862" y="242" type="line"/>
		</contour>
		<contour>
			<point x="-44.848920862" y="343" type="line"/>
			<point x="440.705035982" y="343" type="line"/>
			<point x="440.705035982" y="465" type="line"/>
			<point x="-44.848920862" y="465" type="line"/>
		</contour>
		<contour>
			<point x="-44.848920862" y="120" type="line"/>
			<point x="440.705035982" y="120" type="line"/>
			<point x="440.705035982" y="242" type="line"/>
			<point x="-44.848920862" y="242" type="line"/>
		</contour>
	</outline>
</glyph>
<glyph name="equal_equal_equal.cLig" format="2">
	<advance width="600"/>
	<outline>
		<contour>
			<point x="-1050" y="464" type="line"/>
			<point x="450" y="464" type="line"/>
			<point x="450" y="578" type="line"/>
			<point x="-1050" y="578" type="line"/>
		</contour>
		<contour>
			<point x="-1050" y="256" type="line"/>
			<point x="450" y="256" type="line"/>
			<point x="450" y="370" type="line"/>
			<point x="-1050" y="370" type="line"/>
		</contour>
		<contour>
			<point x="-1050" y="48" type="line"/>
			<point x="450" y="48" type="line"/>
			<point x="450" y="162" type="line"/>
			<point x="-1050" y="162" type="line"/>
		</contour>
	</outline>
</glyph>
<glyph name="equal_exclam_equal.rem" format="2">
	<advance width="600"/>
	<outline>
		<contour>
			<point x="-353" y="231" type="line"/>
			<point x="-247" y="231" type="line"/>
			<point x="-219" y="559" type="line"/>
			<point x="-219" y="684" type="line"/>
			<point x="-380" y="684" type="line"/>
			<point x="-380" y="559" type="line"/>
		</contour>
		<contour>
			<point x="-298" y="-12" type="curve" smooth="yes"/>
			<point x="-236" y="-12"/>
			<point x="-205" y="11"/>
			<point x="-205" y="73" type="curve" smooth="yes"/>
			<point x="-205" y="133"/>
			<point x="-236" y="157"/>
			<point x="-298" y="157" type="curve" smooth="yes"/>
			<point x="-362" y="157"/>
			<point x="-393" y="133"/>
			<point x="-393" y="73" type="curve" smooth="yes"/>
			<point x="-393" y="11"/>
			<point x="-362" y="-12"/>
		</contour>
		<contour>
			<point x="-1040.848920862" y="343" type="line"/>
			<point x="-555.294964018" y="343" type="line"/>
			<point x="-555.294964018" y="465" type="line"/>
			<point x="-1040.848920862" y="465" type="line"/>
		</contour>
		<contour>
			<point x="-1040.848920862" y="120" type="line"/>
			<point x="-555.294964018" y="120" type="line"/>
			<point x="-555.294964018" y="242" type="line"/>
			<point x="-1040.848920862" y="242" type="line"/>
		</contour>
		<contour>
			<point x="-44.848920862" y="343" type="line"/>
			<point x="440.705035982" y="343" type="line"/>
			<point x="440.705035982" y="465" type="line"/>
			<point x="-44.848920862" y="465" type="line"/>
		</contour>
		<contour>
			<point x="-44.848920862" y="120" type="line"/>
			<point x="440.705035982" y="120" type="line"/>
			<point x="440.705035982" y="242" type="line"/>
			<point x="-44.848920862" y="242" type="line"/>
		</contour>
	</outline>
</glyph>
<glyph name="equal_greater_greater.rem" format="2">
	<advance width="600"/>
	<outline>
		<contour>
			<point x="42" y="0" type="line"/>
			<point x="209" y="0" type="line"/>
			<point x="474" y="314" type="line"/>
			<point x="207" y="629" type="line"/>
			<point x="39" y="629" type="line"/>
			<point x="307" y="316" type="line"/>
		</contour>
		<contour>
			<point x="-1040" y="141" type="line"/>
			<point x="-227" y="141" type="line"/>
			<point x="-344" y="0" type="line"/>
			<point x="-178" y="0" type="line"/>
			<point x="86" y="314" type="line"/>
			<point x="-181" y="629" type="line"/>
			<point x="-347" y="629" type="line"/>
			<point x="-227" y="488" type="line"/>
			<point x="-1040" y="488" type="line"/>
			<point x="-1040" y="365" type="line"/>
			<point x="-122" y="365" type="line"/>
			<point x="-80" y="316" type="line"/>
			<point x="-124" y="264" type="line"/>
			<point x="-1040" y="264" type="line"/>
		</contour>
	</outline>
</glyph>
<glyph name="equal_less_less.rem" format="2">
	<advance width="600"/>
	<outline>
		<contour>
			<point x="513" y="629" type="line"/>
			<point x="343" y="629" type="line"/>
			<point x="75" y="315" type="line"/>
			<point x="346" y="0" type="line"/>
			<point x="516" y="0" type="line"/>
			<point x="243" y="315" type="line"/>
		</contour>
		<contour>
			<point x="118" y="629" type="line"/>
			<point x="-50" y="629" type="line"/>
			<point x="-165" y="488" type="line"/>
			<point x="-1040" y="488" type="line"/>
			<point x="-1040" y="365" type="line"/>
			<point x="-99" y="365" type="line"/>
		</contour>
		<contour>
			<point x="-99" y="264" type="line"/>
			<point x="-1040" y="264" type="line"/>
			<point x="-1040" y="141" type="line"/>
			<point x="-164" y="141" type="line"/>
			<point x="-47" y="0" type="line"/>
			<point x="121" y="0" type="line"/>
		</contour>
	</outline>
</glyph>
<glyph name="exclam_equal.med" format="2">
	<advance width="600"/>
	<outline>
		<contour>
			<point x="246" y="231" type="line"/>
			<point x="352" y="231" type="line"/>
			<point x="380" y="559" type="line"/>
			<point x="380" y="684" type="line"/>
			<point x="219" y="684" type="line"/>
			<point x="219" y="559" type="line"/>
		</contour>
		<contour>
			<point x="503" y="365" type="line"/>
			<point x="600" y="365" type="line"/>
			<point x="600" y="488" type="line"/>
			<point x="503" y="488" type="line"/>
		</contour>
		<contour>
			<point x="0" y="365" type="line"/>
			<point x="97" y="365" type="line"/>
			<point x="97" y="488" type="line"/>
			<point x="0" y="488" type="line"/>
		</contour>
		<contour>
			<point x="503" y="141" type="line"/>
			<point x="600" y="141" type="line"/>
			<point x="600" y="264" type="line"/>
			<point x="503" y="264" type="line"/>
		</contour>
		<contour>
			<point x="0" y="141" type="line"/>
			<point x="97" y="141" type="line"/>
			<point x="97" y="264" type="line"/>
			<point x="0" y="264" type="line"/>
		</contour>
		<contour>
			<point x="301" y="-12" type="curve" smooth="yes"/>
			<point x="363" y="-12"/>
			<point x="394" y="11"/>
			<point x="394" y="73" type="curve" smooth="yes"/>
			<point x="394" y="133"/>
			<point x="363" y="157"/>
			<point x="301" y="157" type="curve" smooth="yes"/>
			<point x="237" y="157"/>
			<point x="206" y="133"/>
			<point x="206" y="73" type="curve" smooth="yes"/>
			<point x="206" y="11"/>
			<point x="237" y="-12"/>
		</contour>
	</outline>
</glyph>
<glyph name="exclam_equal_equal.cLig" format="2">
	<advance width="600"/>
	<outline>
		<contour>
			<point x="-1050" y="48" type="line"/>
			<point x="-523" y="48" type="line"/>
			<point x="-600" y="-82" type="line"/>
			<point x="-460" y="-82" type="line"/>
			<point x="-382" y="48" type="line"/>
			<point x="450" y="48" type="line"/>
			<point x="450" y="162" type="line"/>
			<point x="-314" y="162" type="line"/>
			<point x="-259" y="256" type="line"/>
			<point x="450" y="256" type="line"/>
			<point x="450" y="370" type="line"/>
			<point x="-191" y="370" type="line"/>
			<point x="-135" y="464" type="line"/>
			<point x="450" y="464" type="line"/>
			<point x="450" y="578" type="line"/>
			<point x="-67" y="578" type="line"/>
			<point x="0" y="692" type="line"/>
			<point x="-140" y="692" type="line"/>
			<point x="-208" y="578" type="line"/>
			<point x="-1050" y="578" type="line"/>
			<point x="-1050" y="464" type="line"/>
			<point x="-276" y="464" type="line"/>
			<point x="-331" y="370" type="line"/>
			<point x="-1050" y="370" type="line"/>
			<point x="-1050" y="256" type="line"/>
			<point x="-399" y="256" type="line"/>
			<point x="-455" y="162" type="line"/>
			<point x="-1050" y="162" type="line"/>
		</contour>
	</outline>
</glyph>
<glyph name="exclam_exclam.cLig" format="2">
	<advance width="600"/>
	<outline>
		<contour>
			<point x="-281" y="231" type="line"/>
			<point x="-175" y="231" type="line"/>
			<point x="-147" y="559" type="line"/>
			<point x="-147" y="684" type="line"/>
			<point x="-308" y="684" type="line"/>
			<point x="-308" y="559" type="line"/>
		</contour>
		<contour>
			<point x="-226" y="-12" type="curve" smooth="yes"/>
			<point x="-164" y="-12"/>
			<point x="-133" y="11"/>
			<point x="-133" y="73" type="curve" smooth="yes"/>
			<point x="-133" y="133"/>
			<point x="-164" y="157"/>
			<point x="-226" y="157" type="curve" smooth="yes"/>
			<point x="-290" y="157"/>
			<point x="-321" y="133"/>
			<point x="-321" y="73" type="curve" smooth="yes"/>
			<point x="-321" y="11"/>
			<point x="-290" y="-12"/>
		</contour>
		<contour>
			<point x="173" y="231" type="line"/>
			<point x="279" y="231" type="line"/>
			<point x="307" y="559" type="line"/>
			<point x="307" y="684" type="line"/>
			<point x="146" y="684" type="line"/>
			<point x="146" y="559" type="line"/>
		</contour>
		<contour>
			<point x="228" y="-12" type="curve" smooth="yes"/>
			<point x="290" y="-12"/>
			<point x="321" y="11"/>
			<point x="321" y="73" type="curve" smooth="yes"/>
			<point x="321" y="133"/>
			<point x="290" y="157"/>
			<point x="228" y="157" type="curve" smooth="yes"/>
			<point x="164" y="157"/>
			<point x="133" y="133"/>
			<point x="133" y="73" type="curve" smooth="yes"/>
			<point x="133" y="11"/>
			<point x="164" y="-12"/>
		</contour>
	</outline>
</glyph>
<glyph name="five.numr" format="2">
	<advance width="600"/>
	<outline>
		<contour>
			<point x="293" y="366" type="curve" smooth="yes"/>
			<point x="377" y="366"/>
			<point x="430" y="414"/>
			<point x="430" y="488" type="curve" smooth="yes"/>
			<point x="430" y="557"/>
			<point x="392" y="588"/>
			<point x="313" y="588" type="curve" smooth="yes"/>
			<point x="296" y="588"/>
			<point x="281" y="587"/>
			<point x="266" y="585" type="curve"/>
			<point x="266" y="649" type="line"/>
			<point x="422" y="649" type="line"/>
			<point x="422" y="718" type="line"/>
			<point x="187" y="718" type="line"/>
			<point x="187" y="515" type="line"/>
			<point x="221" y="522"/>
			<point x="248" y="526"/>
			<point x="274" y="526" type="curve" smooth="yes"/>
			<point x="324" y="526"/>
			<point x="342" y="510"/>
			<point x="342" y="484" type="curve" smooth="yes"/>
			<point x="342" y="457"/>
			<point x="324" y="436"/>
			<point x="283" y="436" type="curve" smooth="yes"/>
			<point x="248" y="436"/>
			<point x="211" y="446"/>
			<point x="173" y="469" type="curve"/>
			<point x="173" y="395" type="line"/>
			<point x="205" y="376"/>
			<point x="244" y="366"/>
		</contour>
	</outline>
</glyph>
<glyph name="four.den" format="2">
	<advance width="600"/>
	<outline>
		<contour>
			<point x="322" y="0" type="line"/>
			<point x="419" y="0" type="line"/>
			<point x="419" y="71" type="line"/>
			<point x="459" y="71" type="line"/>
			<point x="459" y="149" type="line"/>
			<point x="419" y="149" type="line"/>
			<point x="419" y="410" type="line"/>
			<point x="270" y="410" type="line"/>
			<point x="127" y="149" type="line"/>
			<point x="127" y="72" type="line"/>
			<point x="322" y="72" type="line"/>
		</contour>
		<contour>
			<point x="216" y="149" type="line"/>
			<point x="322" y="346" type="line"/>
			<point x="322" y="149" type="line"/>
		</contour>
	</outline>
</glyph>
<glyph name="four.numr" format="2">
	<advance width="600"/>
	<outline>
		<contour>
			<point x="314" y="372" type="line"/>
			<point x="401" y="372" type="line"/>
			<point x="401" y="430" type="line"/>
			<point x="433" y="430" type="line"/>
			<point x="433" y="500" type="line"/>
			<point x="401" y="500" type="line"/>
			<point x="401" y="717" type="line"/>
			<point x="267" y="717" type="line"/>
			<point x="152" y="500" type="line"/>
			<point x="152" y="430" type="line"/>
			<point x="314" y="430" type="line"/>
		</contour>
		<contour>
			<point x="231" y="500" type="line"/>
			<point x="314" y="662" type="line"/>
			<point x="314" y="500" type="line"/>
		</contour>
	</outline>
</glyph>
<glyph name="grave.cap" format="2">
	<advance width="600"/>
	<outline>
		<contour>
			<point x="405" y="744" type="line"/>
			<point x="352" y="884" type="line"/>
			<point x="194" y="884" type="line"/>
			<point x="296" y="744" type="line"/>
		</contour>
	</outline>
	<anchor name="_top" x="350" y="684"/>
</glyph>
<glyph name="greater_equal.cLig" format="2">
	<advance width="600"/>
	<outline>
		<contour>
			<point x="-291" y="164" type="line"/>
			<point x="298" y="373" type="line"/>
			<point x="298" y="536" type="line"/>
			<point x="-291" y="747" type="line"/>
			<point x="-291" y="612" type="line"/>
			<point x="181" y="457" type="line"/>
			<point x="-291" y="299" type="line"/>
		</contour>
		<contour>
			<point x="-291" y="-72" type="line"/>
			<point x="298" y="135" type="line"/>
			<point x="298" y="260" type="line"/>
			<point x="-291" y="53" type="line"/>
		</contour>
	</outline>
</glyph>
<glyph name="greater_equal.fina" format="2">
	<advance width="600"/>
	<outline>
		<contour>
			<point x="121" y="0" type="line"/>
			<point x="288" y="0" type="line"/>
			<point x="551" y="314" type="line"/>
			<point x="285" y="629" type="line"/>
			<point x="118" y="629" type="line"/>
			<point x="238" y="488" type="line"/>
			<point x="0" y="488" type="line"/>
			<point x="0" y="365" type="line"/>
			<point x="343" y="365" type="line"/>
			<point x="385" y="316" type="line"/>
			<point x="342" y="264" type="line"/>
			<point x="0" y="264" type="line"/>
			<point x="0" y="141" type="line"/>
			<point x="238" y="141" type="line"/>
		</contour>
	</outline>
</glyph>
<glyph name="greater_equal.init" format="2">
	<advance width="600"/>
	<outline>
		<contour>
			<point x="269" y="365" type="line"/>
			<point x="600" y="365" type="line"/>
			<point x="600" y="488" type="line"/>
			<point x="334" y="488" type="line"/>
			<point x="217" y="629" type="line"/>
			<point x="49" y="629" type="line"/>
		</contour>
		<contour>
			<point x="52" y="0" type="line"/>
			<point x="220" y="0" type="line"/>
			<point x="335" y="141" type="line"/>
			<point x="600" y="141" type="line"/>
			<point x="600" y="264" type="line"/>
			<point x="269" y="264" type="line"/>
		</contour>
	</outline>
</glyph>
<glyph name="greater_equal.med" format="2">
	<advance width="600"/>
	<outline>
		<contour>
			<point x="96" y="0" type="line"/>
			<point x="262" y="0" type="line"/>
			<point x="381" y="141" type="line"/>
			<point x="600" y="141" type="line"/>
			<point x="600" y="264" type="line"/>
			<point x="486" y="264" type="line"/>
			<point x="528" y="314" type="line"/>
			<point x="485" y="365" type="line"/>
			<point x="600" y="365" type="line"/>
			<point x="600" y="488" type="line"/>
			<point x="379" y="488" type="line"/>
			<point x="259" y="629" type="line"/>
			<point x="93" y="629" type="line"/>
			<point x="213" y="488" type="line"/>
			<point x="0" y="488" type="line"/>
			<point x="0" y="365" type="line"/>
			<point x="319" y="365" type="line"/>
			<point x="360" y="316" type="line"/>
			<point x="317" y="264" type="line"/>
			<point x="0" y="264" type="line"/>
			<point x="0" y="141" type="line"/>
			<point x="213" y="141" type="line"/>
		</contour>
	</outline>
</glyph>
<glyph name="greater_equal_greater.rem" format="2">
	<advance width="600"/>
	<outline>
		<contour>
			<point x="-1096" y="0" type="line"/>
			<point x="-928" y="0" type="line"/>
			<point x="-813" y="141" type="line"/>
			<point x="171" y="141" type="line"/>
			<point x="54" y="0" type="line"/>
			<point x="221" y="0" type="line"/>
			<point x="484" y="314" type="line"/>
			<point x="218" y="629" type="line"/>
			<point x="51" y="629" type="line"/>
			<point x="171" y="488" type="line"/>
			<point x="-814" y="488" type="line"/>
			<point x="-931" y="629" type="line"/>
			<point x="-1099" y="629" type="line"/>
			<point x="-879" y="365" type="line"/>
			<point x="276" y="365" type="line"/>
			<point x="318" y="316" type="line"/>
			<point x="275" y="264" type="line"/>
			<point x="-879" y="264" type="line"/>
		</contour>
	</outline>
</glyph>
<glyph name="greater_greater_equal.init" format="2">
	<advance width="600"/>
	<outline>
		<contour>
			<point x="-533" y="0" type="line"/>
			<point x="-363" y="0" type="line"/>
			<point x="-95" y="314" type="line"/>
			<point x="-366" y="629" type="line"/>
			<point x="-536" y="629" type="line"/>
			<point x="-263" y="314" type="line"/>
		</contour>
		<contour>
			<point x="79" y="365" type="line"/>
			<point x="600" y="365" type="line"/>
			<point x="600" y="488" type="line"/>
			<point x="144" y="488" type="line"/>
			<point x="27" y="629" type="line"/>
			<point x="-141" y="629" type="line"/>
		</contour>
		<contour>
			<point x="-138" y="0" type="line"/>
			<point x="30" y="0" type="line"/>
			<point x="145" y="141" type="line"/>
			<point x="600" y="141" type="line"/>
			<point x="600" y="264" type="line"/>
			<point x="79" y="264" type="line"/>
		</contour>
	</outline>
</glyph>
<glyph name="greater_greater_equal.med" format="2">
	<advance width="600"/>
	<outline>
		<contour>
			<point x="-479" y="0" type="line"/>
			<point x="-312" y="0" type="line"/>
			<point x="-49" y="314" type="line"/>
			<point x="-315" y="629" type="line"/>
			<point x="-482" y="629" type="line"/>
			<point x="-362" y="488" type="line"/>
			<point x="-600" y="488" type="line"/>
			<point x="-600" y="365" type="line"/>
			<point x="-257" y="365" type="line"/>
			<point x="-215" y="316" type="line"/>
			<point x="-258" y="264" type="line"/>
			<point x="-600" y="264" type="line"/>
			<point x="-600" y="141" type="line"/>
			<point x="-362" y="141" type="line"/>
		</contour>
		<contour>
			<point x="128" y="365" type="line"/>
			<point x="600" y="365" type="line"/>
			<point x="600" y="488" type="line"/>
			<point x="192" y="488" type="line"/>
			<point x="76" y="629" type="line"/>
			<point x="-92" y="629" type="line"/>
		</contour>
		<contour>
			<point x="-89" y="0" type="line"/>
			<point x="79" y="0" type="line"/>
			<point x="193" y="141" type="line"/>
			<point x="600" y="141" type="line"/>
			<point x="600" y="264" type="line"/>
			<point x="128" y="264" type="line"/>
		</contour>
	</outline>
</glyph>
<glyph name="greater_greater_greater.cLig" format="2">
	<advance width="600"/>
	<outline>
		<contour>
			<point x="-1115" y="16" type="line"/>
			<point x="-645" y="214" type="line"/>
			<point x="-645" y="375" type="line"/>
			<point x="-1115" y="575" type="line"/>
			<point x="-1115" y="434" type="line"/>
			<point x="-764" y="296" type="line"/>
			<point x="-1115" y="157" type="line"/>
		</contour>
		<contour>
			<point x="-533" y="16" type="line"/>
			<point x="-63" y="214" type="line"/>
			<point x="-63" y="375" type="line"/>
			<point x="-533" y="575" type="line"/>
			<point x="-533" y="434" type="line"/>
			<point x="-182" y="296" type="line"/>
			<point x="-533" y="157" type="line"/>
		</contour>
		<contour>
			<point x="48" y="16" type="line"/>
			<point x="518" y="214" type="line"/>
			<point x="518" y="375" type="line"/>
			<point x="48" y="575" type="line"/>
			<point x="48" y="434" type="line"/>
			<point x="399" y="296" type="line"/>
			<point x="48" y="157" type="line"/>
		</contour>
	</outline>
</glyph>
<glyph name="greater_greater_hyphen.fina" format="2">
	<advance width="600"/>
	<outline>
		<contour>
			<point x="57" y="0" type="line"/>
			<point x="224" y="0" type="line"/>
			<point x="490" y="314" type="line"/>
			<point x="221" y="629" type="line"/>
			<point x="54" y="629" type="line"/>
			<point x="319" y="316" type="line"/>
		</contour>
		<contour>
			<point x="-600" y="248" type="line"/>
			<point x="-109" y="248" type="line"/>
			<point x="-331" y="0" type="line"/>
			<point x="-162" y="0" type="line"/>
			<point x="108" y="314" type="line"/>
			<point x="-165" y="629" type="line"/>
			<point x="-334" y="629" type="line"/>
			<point x="-110" y="380" type="line"/>
			<point x="-600" y="380" type="line"/>
		</contour>
	</outline>
</glyph>
<glyph name="greater_greater_hyphen.init" format="2">
	<advance width="600"/>
	<outline>
		<contour>
			<point x="-514" y="0" type="line"/>
			<point x="-344" y="0" type="line"/>
			<point x="-76" y="314" type="line"/>
			<point x="-347" y="629" type="line"/>
			<point x="-517" y="629" type="line"/>
			<point x="-245" y="315" type="line"/>
		</contour>
		<contour>
			<point x="-123" y="0" type="line"/>
			<point x="47" y="0" type="line"/>
			<point x="258" y="248" type="line"/>
			<point x="600" y="248" type="line"/>
			<point x="600" y="380" type="line"/>
			<point x="257" y="380" type="line"/>
			<point x="44" y="629" type="line"/>
			<point x="-126" y="629" type="line"/>
			<point x="142" y="314" type="line"/>
		</contour>
	</outline>
</glyph>
<glyph name="greater_greater_hyphen.med" format="2">
	<advance width="600"/>
	<outline>
		<contour>
			<point x="-58" y="0" type="line"/>
			<point x="109" y="0" type="line"/>
			<point x="308" y="236" type="line"/>
			<point x="599" y="236" type="line"/>
			<point x="599" y="367" type="line"/>
			<point x="329" y="367" type="line"/>
			<point x="106" y="629" type="line"/>
			<point x="-61" y="629" type="line"/>
			<point x="204" y="316" type="line"/>
		</contour>
		<contour>
			<point x="-600" y="248" type="line"/>
			<point x="-227" y="248" type="line"/>
			<point x="-449" y="0" type="line"/>
			<point x="-280" y="0" type="line"/>
			<point x="-10" y="314" type="line"/>
			<point x="-283" y="629" type="line"/>
			<point x="-452" y="629" type="line"/>
			<point x="-228" y="380" type="line"/>
			<point x="-600" y="380" type="line"/>
		</contour>
	</outline>
</glyph>
<glyph name="greater_greater_hyphen.rem" format="2">
	<advance width="600"/>
	<outline>
		<contour>
			<point x="-1087" y="0" type="line"/>
			<point x="-917" y="0" type="line"/>
			<point x="-649" y="314" type="line"/>
			<point x="-920" y="629" type="line"/>
			<point x="-1090" y="629" type="line"/>
			<point x="-818" y="315" type="line"/>
		</contour>
		<contour>
			<point x="-696" y="0" type="line"/>
			<point x="-526" y="0" type="line"/>
			<point x="-315" y="248" type="line"/>
			<point x="467" y="248" type="line"/>
			<point x="467" y="380" type="line"/>
			<point x="-316" y="380" type="line"/>
			<point x="-529" y="629" type="line"/>
			<point x="-699" y="629" type="line"/>
			<point x="-431" y="314" type="line"/>
		</contour>
	</outline>
</glyph>
<glyph name="greater_hyphen.med" format="2">
	<advance width="600"/>
	<outline>
		<contour>
			<point x="91" y="0" type="line"/>
			<point x="258" y="0" type="line"/>
			<point x="472" y="248" type="line"/>
			<point x="600" y="248" type="line"/>
			<point x="600" y="380" type="line"/>
			<point x="471" y="380" type="line"/>
			<point x="255" y="629" type="line"/>
			<point x="88" y="629" type="line"/>
			<point x="310" y="380" type="line"/>
			<point x="0" y="380" type="line"/>
			<point x="0" y="248" type="line"/>
			<point x="310" y="248" type="line"/>
		</contour>
	</outline>
</glyph>
<glyph name="hungarumlaut.cap" format="2">
	<advance width="600"/>
	<outline>
		<contour>
			<point x="300" y="744" type="line"/>
			<point x="395" y="744" type="line"/>
			<point x="479" y="884" type="line"/>
			<point x="350" y="884" type="line"/>
		</contour>
		<contour>
			<point x="120" y="744" type="line"/>
			<point x="215" y="744" type="line"/>
			<point x="299" y="884" type="line"/>
			<point x="169" y="884" type="line"/>
		</contour>
	</outline>
	<anchor name="_top" x="258" y="684"/>
</glyph>
<glyph name="hyphen.init" format="2">
	<advance width="600"/>
	<outline>
		<contour>
			<point x="160" y="248" type="line"/>
			<point x="600" y="248" type="line"/>
			<point x="600" y="380" type="line"/>
			<point x="160" y="380" type="line"/>
		</contour>
	</outline>
</glyph>
<glyph name="less_asciitilde_greater.cLig" format="2">
	<advance width="600"/>
	<outline>
		<contour>
			<point x="-816" y="0" type="line"/>
			<point x="-648" y="0" type="line"/>
			<point x="-870" y="249" type="line"/>
			<point x="-480" y="249" type="line"/>
			<point x="-478" y="290"/>
			<point x="-455" y="322"/>
			<point x="-416" y="322" type="curve" smooth="yes"/>
			<point x="-329" y="322"/>
			<point x="-312" y="175"/>
			<point x="-171" y="175" type="curve" smooth="yes"/>
			<point x="-116" y="175"/>
			<point x="-71" y="202"/>
			<point x="-48" y="249" type="curve"/>
			<point x="270" y="249" type="line"/>
			<point x="51" y="0" type="line"/>
			<point x="219" y="0" type="line"/>
			<point x="490" y="314" type="line"/>
			<point x="216" y="629" type="line"/>
			<point x="48" y="629" type="line"/>
			<point x="270" y="381" type="line"/>
			<point x="-120" y="381" type="line"/>
			<point x="-123" y="340"/>
			<point x="-142" y="308"/>
			<point x="-180" y="308" type="curve" smooth="yes"/>
			<point x="-259" y="308"/>
			<point x="-291" y="455"/>
			<point x="-426" y="455" type="curve" smooth="yes"/>
			<point x="-482" y="455"/>
			<point x="-529" y="428"/>
			<point x="-552" y="381" type="curve"/>
			<point x="-870" y="381" type="line"/>
			<point x="-651" y="629" type="line"/>
			<point x="-819" y="629" type="line"/>
			<point x="-1090" y="315" type="line"/>
		</contour>
	</outline>
</glyph>
<glyph name="less_bar.cLig" format="2">
	<advance width="600"/>
	<outline>
		<contour>
			<point x="297" y="708" type="line"/>
			<point x="159" y="708" type="line"/>
			<point x="-363" y="396" type="line"/>
			<point x="-363" y="233" type="line"/>
			<point x="159" y="-79" type="line"/>
			<point x="297" y="-79" type="line"/>
		</contour>
		<contour>
			<point x="159" y="77" type="line"/>
			<point x="-245" y="313" type="line"/>
			<point x="159" y="553" type="line"/>
		</contour>
	</outline>
</glyph>
<glyph name="less_bar_bar_bar.cLig" format="2">
	<advance width="600"/>
	<outline>
		<contour>
			<point x="-303" y="708" type="line"/>
			<point x="-441" y="708" type="line"/>
			<point x="-441" y="-79" type="line"/>
			<point x="-303" y="-79" type="line"/>
		</contour>
		<contour>
			<point x="263" y="708" type="line"/>
			<point x="126" y="708" type="line"/>
			<point x="126" y="-79" type="line"/>
			<point x="263" y="-79" type="line"/>
		</contour>
		<contour>
			<point x="-870" y="708" type="line"/>
			<point x="-1007" y="708" type="line"/>
			<point x="-1529" y="396" type="line"/>
			<point x="-1529" y="233" type="line"/>
			<point x="-1007" y="-79" type="line"/>
			<point x="-870" y="-79" type="line"/>
		</contour>
		<contour>
			<point x="-1007" y="77" type="line"/>
			<point x="-1412" y="313" type="line"/>
			<point x="-1007" y="553" type="line"/>
		</contour>
	</outline>
</glyph>
<glyph name="less_dollar_greater.cLig" format="2">
	<advance width="600"/>
	<outline>
		<contour>
			<point x="-421" y="-93" type="line"/>
			<point x="-325" y="-93" type="line"/>
			<point x="-311" y="-11" type="line"/>
			<point x="-302" y="-11" type="line" smooth="yes"/>
			<point x="-144" y="-11"/>
			<point x="-44" y="65"/>
			<point x="-44" y="217" type="curve" smooth="yes"/>
			<point x="-44" y="344"/>
			<point x="-137" y="384"/>
			<point x="-253" y="406" type="curve"/>
			<point x="-224" y="574" type="line"/>
			<point x="-144" y="563"/>
			<point x="-75" y="530"/>
			<point x="54" y="471" type="curve" smooth="yes"/>
			<point x="395" y="315" type="line"/>
			<point x="74" y="168" type="line"/>
			<point x="74" y="27" type="line"/>
			<point x="507" y="233" type="line"/>
			<point x="507" y="396" type="line"/>
			<point x="111" y="582" type="line" smooth="yes"/>
			<point x="20" y="626"/>
			<point x="-88" y="669"/>
			<point x="-193" y="687" type="curve"/>
			<point x="-179" y="774" type="line"/>
			<point x="-276" y="774" type="line"/>
			<point x="-289" y="695" type="line"/>
			<point x="-450" y="695"/>
			<point x="-558" y="620"/>
			<point x="-558" y="477" type="curve" smooth="yes"/>
			<point x="-558" y="341"/>
			<point x="-471" y="305"/>
			<point x="-348" y="281" type="curve"/>
			<point x="-376" y="114" type="line"/>
			<point x="-455" y="125"/>
			<point x="-545" y="152"/>
			<point x="-655" y="194" type="curve" smooth="yes"/>
			<point x="-985" y="320" type="line"/>
			<point x="-674" y="464" type="line"/>
			<point x="-674" y="605" type="line"/>
			<point x="-1107" y="397" type="line"/>
			<point x="-1107" y="234" type="line"/>
			<point x="-704" y="76" type="line" smooth="yes"/>
			<point x="-598" y="36"/>
			<point x="-498" y="9"/>
			<point x="-407" y="-3" type="curve"/>
		</contour>
		<contour>
			<point x="-413" y="495" type="curve" smooth="yes"/>
			<point x="-413" y="550"/>
			<point x="-366" y="575"/>
			<point x="-298" y="578" type="curve"/>
			<point x="-324" y="419" type="line"/>
			<point x="-380" y="430"/>
			<point x="-413" y="447"/>
		</contour>
		<contour>
			<point x="-189" y="193" type="curve" smooth="yes"/>
			<point x="-189" y="138"/>
			<point x="-228" y="111"/>
			<point x="-303" y="110" type="curve"/>
			<point x="-276" y="268" type="line"/>
			<point x="-222" y="256"/>
			<point x="-189" y="238"/>
		</contour>
	</outline>
</glyph>
<glyph name="less_equal.rem" format="2">
	<advance width="600"/>
	<outline>
		<contour>
			<point x="524" y="629" type="line"/>
			<point x="356" y="629" type="line"/>
			<point x="241" y="488" type="line"/>
			<point x="-430" y="488" type="line"/>
			<point x="-430" y="365" type="line"/>
			<point x="307" y="365" type="line"/>
		</contour>
		<contour>
			<point x="307" y="264" type="line"/>
			<point x="-430" y="264" type="line"/>
			<point x="-430" y="141" type="line"/>
			<point x="242" y="141" type="line"/>
			<point x="359" y="0" type="line"/>
			<point x="527" y="0" type="line"/>
		</contour>
	</outline>
</glyph>
<glyph name="less_equal_equal.rem" format="2">
	<advance width="600"/>
	<outline>
		<contour>
			<point x="440" y="488" type="line"/>
			<point x="-767" y="488" type="line"/>
			<point x="-649" y="629" type="line"/>
			<point x="-816" y="629" type="line"/>
			<point x="-1080" y="315" type="line"/>
			<point x="-813" y="0" type="line"/>
			<point x="-646" y="0" type="line"/>
			<point x="-766" y="141" type="line"/>
			<point x="440" y="141" type="line"/>
			<point x="440" y="264" type="line"/>
			<point x="-872" y="264" type="line"/>
			<point x="-913" y="313" type="line"/>
			<point x="-870" y="365" type="line"/>
			<point x="440" y="365" type="line"/>
		</contour>
	</outline>
</glyph>
<glyph name="less_hyphen_less.rem" format="2">
	<advance width="600"/>
	<outline>
		<contour>
			<point x="-634" y="-1" type="line"/>
			<point x="-858" y="248" type="line"/>
			<point x="100" y="248" type="line"/>
			<point x="313" y="-1" type="line"/>
			<point x="483" y="-1" type="line"/>
			<point x="216" y="314" type="line"/>
			<point x="480" y="628" type="line"/>
			<point x="310" y="628" type="line"/>
			<point x="99" y="380" type="line"/>
			<point x="-859" y="380" type="line"/>
			<point x="-637" y="628" type="line"/>
			<point x="-805" y="628" type="line"/>
			<point x="-1076" y="314" type="line"/>
			<point x="-802" y="-1" type="line"/>
		</contour>
	</outline>
</glyph>
<glyph name="less_less.cLig" format="2">
	<advance width="600"/>
	<outline>
		<contour>
			<point x="-55" y="16" type="line"/>
			<point x="-55" y="157" type="line"/>
			<point x="-406" y="296" type="line"/>
			<point x="-55" y="434" type="line"/>
			<point x="-55" y="575" type="line"/>
			<point x="-525" y="375" type="line"/>
			<point x="-525" y="214" type="line"/>
		</contour>
		<contour>
			<point x="515" y="16" type="line"/>
			<point x="515" y="157" type="line"/>
			<point x="164" y="296" type="line"/>
			<point x="515" y="434" type="line"/>
			<point x="515" y="575" type="line"/>
			<point x="45" y="375" type="line"/>
			<point x="45" y="214" type="line"/>
		</contour>
	</outline>
</glyph>
<glyph name="less_less_equal.rem" format="2">
	<advance width="600"/>
	<outline>
		<contour>
			<point x="-642" y="629" type="line"/>
			<point x="-809" y="629" type="line"/>
			<point x="-1074" y="315" type="line"/>
			<point x="-807" y="0" type="line"/>
			<point x="-639" y="0" type="line"/>
			<point x="-907" y="313" type="line"/>
		</contour>
		<contour>
			<point x="440" y="488" type="line"/>
			<point x="-373" y="488" type="line"/>
			<point x="-256" y="629" type="line"/>
			<point x="-422" y="629" type="line"/>
			<point x="-686" y="315" type="line"/>
			<point x="-419" y="0" type="line"/>
			<point x="-253" y="0" type="line"/>
			<point x="-373" y="141" type="line"/>
			<point x="440" y="141" type="line"/>
			<point x="440" y="264" type="line"/>
			<point x="-478" y="264" type="line"/>
			<point x="-520" y="313" type="line"/>
			<point x="-476" y="365" type="line"/>
			<point x="440" y="365" type="line"/>
		</contour>
	</outline>
</glyph>
<glyph name="less_less_hyphen.fina" format="2">
	<advance width="600"/>
	<outline>
		<contour>
			<point x="514" y="629" type="line"/>
			<point x="344" y="629" type="line"/>
			<point x="76" y="315" type="line"/>
			<point x="347" y="0" type="line"/>
			<point x="517" y="0" type="line"/>
			<point x="245" y="314" type="line"/>
		</contour>
		<contour>
			<point x="123" y="629" type="line"/>
			<point x="-47" y="629" type="line"/>
			<point x="-258" y="381" type="line"/>
			<point x="-600" y="381" type="line"/>
			<point x="-600" y="249" type="line"/>
			<point x="-257" y="249" type="line"/>
			<point x="-44" y="0" type="line"/>
			<point x="126" y="0" type="line"/>
			<point x="-142" y="315" type="line"/>
		</contour>
	</outline>
</glyph>
<glyph name="less_less_hyphen.rem" format="2">
	<advance width="600"/>
	<outline>
		<contour>
			<point x="-642" y="0" type="line"/>
			<point x="-809" y="0" type="line"/>
			<point x="-1073" y="314" type="line"/>
			<point x="-806" y="629" type="line"/>
			<point x="-639" y="629" type="line"/>
			<point x="-904" y="316" type="line"/>
		</contour>
		<contour>
			<point x="447" y="248" type="line"/>
			<point x="-460" y="248" type="line"/>
			<point x="-239" y="0" type="line"/>
			<point x="-407" y="0" type="line"/>
			<point x="-678" y="314" type="line"/>
			<point x="-404" y="629" type="line"/>
			<point x="-236" y="629" type="line"/>
			<point x="-460" y="380" type="line"/>
			<point x="447" y="380" type="line"/>
		</contour>
	</outline>
</glyph>
<glyph name="less_plus.cLig" format="2">
	<advance width="600"/>
	<outline>
		<contour>
			<point x="-44" y="-10" type="line"/>
			<point x="-44" y="133" type="line"/>
			<point x="-390" y="313" type="line"/>
			<point x="-44" y="498" type="line"/>
			<point x="-44" y="641" type="line"/>
			<point x="-493" y="396" type="line"/>
			<point x="-493" y="233" type="line"/>
		</contour>
		<contour>
			<point x="205" y="530" type="line"/>
			<point x="205" y="357" type="line"/>
			<point x="34" y="357" type="line"/>
			<point x="34" y="234" type="line"/>
			<point x="205" y="234" type="line"/>
			<point x="205" y="60" type="line"/>
			<point x="333" y="60" type="line"/>
			<point x="333" y="234" type="line"/>
			<point x="504" y="234" type="line"/>
			<point x="504" y="357" type="line"/>
			<point x="333" y="357" type="line"/>
			<point x="333" y="530" type="line"/>
		</contour>
	</outline>
</glyph>
<glyph name="less_plus_greater.cLig" format="2">
	<advance width="600"/>
	<outline>
		<contour>
			<point x="31" y="-10" type="line"/>
			<point x="480" y="233" type="line"/>
			<point x="480" y="396" type="line"/>
			<point x="31" y="641" type="line"/>
			<point x="31" y="498" type="line"/>
			<point x="377" y="315" type="line"/>
			<point x="31" y="132" type="line"/>
		</contour>
		<contour>
			<point x="-631" y="-10" type="line"/>
			<point x="-631" y="133" type="line"/>
			<point x="-977" y="314" type="line"/>
			<point x="-631" y="498" type="line"/>
			<point x="-631" y="641" type="line"/>
			<point x="-1080" y="397" type="line"/>
			<point x="-1080" y="234" type="line"/>
		</contour>
		<contour>
			<point x="-371" y="530" type="line"/>
			<point x="-371" y="357" type="line"/>
			<point x="-542" y="357" type="line"/>
			<point x="-542" y="234" type="line"/>
			<point x="-371" y="234" type="line"/>
			<point x="-371" y="60" type="line"/>
			<point x="-243" y="60" type="line"/>
			<point x="-243" y="234" type="line"/>
			<point x="-72" y="234" type="line"/>
			<point x="-72" y="357" type="line"/>
			<point x="-243" y="357" type="line"/>
			<point x="-243" y="530" type="line"/>
		</contour>
	</outline>
</glyph>
<glyph name="less_slash.cLig" format="2">
	<advance width="600"/>
	<outline>
		<contour>
			<point x="-37" y="600" type="line"/>
			<point x="-487" y="396" type="line"/>
			<point x="-487" y="233" type="line"/>
			<point x="66" y="-27" type="line"/>
			<point x="16" y="-164" type="line"/>
			<point x="160" y="-164" type="line"/>
			<point x="508" y="791" type="line"/>
			<point x="363" y="791" type="line"/>
			<point x="110" y="93" type="line"/>
			<point x="-367" y="316" type="line"/>
			<point x="-37" y="459" type="line"/>
		</contour>
	</outline>
</glyph>
<glyph name="less_slash_greater.cLig" format="2">
	<advance width="600"/>
	<outline>
		<contour>
			<point x="-1" y="29" type="line"/>
			<point x="448" y="233" type="line"/>
			<point x="448" y="396" type="line"/>
			<point x="-104" y="657" type="line"/>
			<point x="-54" y="792" type="line"/>
			<point x="-199" y="792" type="line"/>
			<point x="-453" y="93" type="line"/>
			<point x="-929" y="315" type="line"/>
			<point x="-599" y="459" type="line"/>
			<point x="-599" y="600" type="line"/>
			<point x="-1048" y="396" type="line"/>
			<point x="-1048" y="233" type="line"/>
			<point x="-497" y="-27" type="line"/>
			<point x="-546" y="-163" type="line"/>
			<point x="-402" y="-163" type="line"/>
			<point x="-147" y="537" type="line"/>
			<point x="329" y="314" type="line"/>
			<point x="-1" y="171" type="line"/>
		</contour>
	</outline>
</glyph>
<glyph name="lslashcomb" format="2">
	<advance width="600"/>
	<outline>
		<contour>
			<point x="20" y="340" type="line"/>
			<point x="461" y="505" type="line"/>
			<point x="461" y="606" type="line"/>
			<point x="20" y="441" type="line"/>
		</contour>
	</outline>
	<anchor name="_center" x="240" y="469"/>
</glyph>
<glyph name="minus.den" format="2">
	<advance width="600"/>
	<outline>
		<contour>
			<point x="141" y="229" type="line"/>
			<point x="141" y="151" type="line"/>
			<point x="459" y="151" type="line"/>
			<point x="459" y="229" type="line"/>
		</contour>
	</outline>
</glyph>
<glyph name="nine.numr" format="2">
	<advance width="600"/>
	<outline>
		<contour>
			<point x="275" y="366" type="curve" smooth="yes"/>
			<point x="401" y="366"/>
			<point x="440" y="448"/>
			<point x="440" y="564" type="curve" smooth="yes"/>
			<point x="440" y="666"/>
			<point x="406" y="724"/>
			<point x="301" y="724" type="curve" smooth="yes"/>
			<point x="209" y="724"/>
			<point x="162" y="667"/>
			<point x="162" y="594" type="curve" smooth="yes"/>
			<point x="162" y="532"/>
			<point x="192" y="488"/>
			<point x="257" y="488" type="curve" smooth="yes"/>
			<point x="300" y="488"/>
			<point x="331" y="506"/>
			<point x="350" y="546" type="curve"/>
			<point x="347" y="469"/>
			<point x="329" y="436"/>
			<point x="263" y="436" type="curve" smooth="yes"/>
			<point x="232" y="436"/>
			<point x="194" y="449"/>
			<point x="171" y="465" type="curve"/>
			<point x="171" y="390" type="line"/>
			<point x="194" y="377"/>
			<point x="237" y="366"/>
		</contour>
		<contour>
			<point x="298" y="546" type="curve" smooth="yes"/>
			<point x="266" y="546"/>
			<point x="249" y="564"/>
			<point x="249" y="600" type="curve" smooth="yes"/>
			<point x="249" y="639"/>
			<point x="268" y="659"/>
			<point x="300" y="659" type="curve" smooth="yes"/>
			<point x="332" y="659"/>
			<point x="352" y="640"/>
			<point x="352" y="601" type="curve" smooth="yes"/>
			<point x="352" y="562"/>
			<point x="330" y="546"/>
		</contour>
	</outline>
</glyph>
